SplineFontDB: 3.0
FontName: Sansita-BoldItalic
FullName: Sansita-BoldItalic
FamilyName: Sansita
Weight: Bold
Copyright: Copyright (c) 2011-2013, Omnibus-Type (www.omnibus-type.com omnibus.type@gmail.com) with Reserved Font Name 'Sansita'
Version: 001.004
ItalicAngle: -11
UnderlinePosition: -102.4
UnderlineWidth: 102.4
Ascent: 1638
Descent: 410
sfntRevision: 0x00010106
LayerCount: 2
Layer: 0 1 "Back"  1
Layer: 1 1 "Fore"  0
XUID: [1021 809 -2065993493 6316820]
FSType: 8
OS2Version: 3
OS2_WeightWidthSlopeOnly: 0
OS2_UseTypoMetrics: 1
CreationTime: 1387883418
ModificationTime: 1388162155
PfmFamily: 81
TTFWeight: 700
TTFWidth: 5
LineGap: 0
VLineGap: 0
Panose: 0 0 8 0 0 0 0 0 0 0
OS2TypoAscent: 1434
OS2TypoAOffset: 0
OS2TypoDescent: -369
OS2TypoDOffset: 0
OS2TypoLinegap: 655
OS2WinAscent: 2089
OS2WinAOffset: 0
OS2WinDescent: 369
OS2WinDOffset: 0
HheadAscent: 2089
HheadAOffset: 0
HheadDescent: -369
HheadDOffset: 0
OS2SubXSize: 1331
OS2SubYSize: 1229
OS2SubXOff: -31
OS2SubYOff: 154
OS2SupXSize: 1331
OS2SupYSize: 1229
OS2SupXOff: 139
OS2SupYOff: 717
OS2StrikeYSize: 102
OS2StrikeYPos: 627
OS2Vendor: 'UKWN'
OS2CodePages: 20000093.00000000
OS2UnicodeRanges: 00000007.00000000.00000000.00000000
Lookup: 1 0 0 "'aalt' Access All Alternates lookup 0"  {"'aalt' Access All Alternates lookup 0 subtable"  } ['aalt' ('DFLT' <'dflt' > 'grek' <'dflt' > 'latn' <'AZE ' 'CAT ' 'CRT ' 'ESP ' 'KAZ ' 'MOL ' 'NLD ' 'PLK ' 'ROM ' 'TAT ' 'TRK ' 'dflt' > ) ]
Lookup: 3 0 0 "'aalt' Access All Alternates lookup 1"  {"'aalt' Access All Alternates lookup 1 subtable"  } ['aalt' ('DFLT' <'dflt' > 'grek' <'dflt' > 'latn' <'AZE ' 'CAT ' 'CRT ' 'ESP ' 'KAZ ' 'MOL ' 'NLD ' 'PLK ' 'ROM ' 'TAT ' 'TRK ' 'dflt' > ) ]

StartChar: .notdef
Encoding: 65536 -1 0
Width: 1052
Flags: MW
HStem: 0 102<100 797 100 940> 1331 102<336 1032 336 336>
VStem: -84 1303
LayerCount: 2
Fore
SplineSet
195 1434 m 1,0,-1
 1219 1434 l 1,1,-1
 940 0 l 1,2,-1
 -84 0 l 1,3,-1
 195 1434 l 1,0,-1
1032 1331 m 1,4,-1
 336 1331 l 1,5,-1
 586 809 l 1,6,-1
 1032 1331 l 1,4,-1
53 195 m 1,7,-1
 506 717 l 1,8,-1
 258 1239 l 1,9,-1
 53 195 l 1,7,-1
872 195 m 1,10,-1
 1077 1239 l 1,11,-1
 629 717 l 1,12,-1
 872 195 l 1,10,-1
797 102 m 1,13,-1
 547 625 l 1,14,-1
 100 102 l 1,15,-1
 797 102 l 1,13,-1
EndSplineSet
Validated: 1
EndChar

StartChar: A
Encoding: 65 65 1
Width: 1150
Flags: MW
HStem: 336 154<365 664 365 674 305 664> 1124 227<629 629> 1311 41G<539 918 918 918>
VStem: -90 1182
LayerCount: 2
Fore
SplineSet
997 303 m 1,0,1
 1013 124 1013 124 1092 72 c 1,2,3
 1072 20 1072 20 1021.5 -10.5 c 128,-1,4
 971 -41 971 -41 903 -41 c 0,5,6
 809 -41 809 -41 761 20 c 128,-1,7
 713 81 713 81 692 190 c 1,8,9
 680 262 680 262 674 336 c 1,10,-1
 305 336 l 1,11,12
 240 181 240 181 172 0 c 1,13,-1
 -90 0 l 1,14,-1
 539 1352 l 1,15,-1
 918 1352 l 1,16,-1
 997 303 l 1,0,1
629 1124 m 1,17,18
 562 968 562 968 472 749 c 128,-1,19
 382 530 382 530 365 489 c 1,20,-1
 664 489 l 1,21,-1
 629 1124 l 1,17,18
EndSplineSet
Validated: 1
Substitution2: "Single Substitution lookup 21 subtable" ordfeminine
Substitution2: "'aalt' Access All Alternates lookup 0 subtable" ordfeminine
Position2: "'cpsp' Capital Spacing lookup 3 subtable" dx=10 dy=0 dh=20 dv=0
EndChar

StartChar: Aacute
Encoding: 193 193 2
Width: 1150
Flags: MW
HStem: 336 154<365 664 365 674 305 664> 1124 227<629 629> 1311 41G<539 918 918 918>
VStem: -90 1198
LayerCount: 2
Fore
SplineSet
567 1552 m 1,0,-1
 1057 1747 l 1,1,2
 1108 1713 1108 1713 1108 1647 c 0,3,4
 1108 1476 1108 1476 827 1468 c 1,5,-1
 588 1458 l 1,6,-1
 567 1552 l 1,0,-1
997 303 m 1,7,8
 1013 124 1013 124 1092 72 c 1,9,10
 1072 20 1072 20 1021.5 -10.5 c 128,-1,11
 971 -41 971 -41 903 -41 c 0,12,13
 809 -41 809 -41 761 20 c 128,-1,14
 713 81 713 81 692 190 c 1,15,16
 680 262 680 262 674 336 c 1,17,-1
 305 336 l 1,18,19
 240 181 240 181 172 0 c 1,20,-1
 -90 0 l 1,21,-1
 539 1352 l 1,22,-1
 918 1352 l 1,23,-1
 997 303 l 1,7,8
629 1124 m 1,24,25
 562 968 562 968 472 749 c 128,-1,26
 382 530 382 530 365 489 c 1,27,-1
 664 489 l 1,28,-1
 629 1124 l 1,24,25
EndSplineSet
Validated: 1
Position2: "'cpsp' Capital Spacing lookup 3 subtable" dx=10 dy=0 dh=20 dv=0
EndChar

StartChar: Abreve
Encoding: 258 258 3
Width: 1150
Flags: MW
HStem: 336 154<365 664 365 674 305 664> 1124 227<629 629> 1311 41G<539 918 918 918> 1434 100<723 806 723 857>
VStem: 430 240<1614 1649 1614 1660>
LayerCount: 2
Fore
SplineSet
678 1706 m 1,0,1
 670 1667 670 1667 670 1638 c 0,2,3
 670 1594 670 1594 690 1564 c 128,-1,4
 710 1534 710 1534 758 1534 c 0,5,6
 823 1534 823 1534 861.5 1585 c 128,-1,7
 900 1636 900 1636 915 1706 c 1,8,-1
 1145 1706 l 1,9,10
 1119 1582 1119 1582 1015 1508 c 128,-1,11
 911 1434 911 1434 737 1434 c 0,12,13
 587 1434 587 1434 508.5 1493.5 c 128,-1,14
 430 1553 430 1553 430 1651 c 0,15,16
 430 1676 430 1676 436 1706 c 1,17,-1
 678 1706 l 1,0,1
997 303 m 1,18,19
 1013 124 1013 124 1092 72 c 1,20,21
 1072 20 1072 20 1021.5 -10.5 c 128,-1,22
 971 -41 971 -41 903 -41 c 0,23,24
 809 -41 809 -41 761 20 c 128,-1,25
 713 81 713 81 692 190 c 1,26,27
 680 262 680 262 674 336 c 1,28,-1
 305 336 l 1,29,30
 240 181 240 181 172 0 c 1,31,-1
 -90 0 l 1,32,-1
 539 1352 l 1,33,-1
 918 1352 l 1,34,-1
 997 303 l 1,18,19
629 1124 m 1,35,36
 562 968 562 968 472 749 c 128,-1,37
 382 530 382 530 365 489 c 1,38,-1
 664 489 l 1,39,-1
 629 1124 l 1,35,36
EndSplineSet
Validated: 1
Position2: "'cpsp' Capital Spacing lookup 3 subtable" dx=10 dy=0 dh=20 dv=0
EndChar

StartChar: Acircumflex
Encoding: 194 194 4
Width: 1150
Flags: MW
HStem: 336 154<365 664 365 674 305 664> 1124 227<629 629> 1311 41G<539 918 918 918>
VStem: -90 1182
LayerCount: 2
Fore
SplineSet
963 1395 m 1,0,-1
 735 1522 l 1,1,-1
 451 1395 l 1,2,-1
 391 1493 l 1,3,-1
 729 1731 l 1,4,-1
 782 1731 l 1,5,-1
 1055 1491 l 1,6,-1
 963 1395 l 1,0,-1
997 303 m 1,7,8
 1013 124 1013 124 1092 72 c 1,9,10
 1072 20 1072 20 1021.5 -10.5 c 128,-1,11
 971 -41 971 -41 903 -41 c 0,12,13
 809 -41 809 -41 761 20 c 128,-1,14
 713 81 713 81 692 190 c 1,15,16
 680 262 680 262 674 336 c 1,17,-1
 305 336 l 1,18,19
 240 181 240 181 172 0 c 1,20,-1
 -90 0 l 1,21,-1
 539 1352 l 1,22,-1
 918 1352 l 1,23,-1
 997 303 l 1,7,8
629 1124 m 1,24,25
 562 968 562 968 472 749 c 128,-1,26
 382 530 382 530 365 489 c 1,27,-1
 664 489 l 1,28,-1
 629 1124 l 1,24,25
EndSplineSet
Validated: 1
Position2: "'cpsp' Capital Spacing lookup 3 subtable" dx=10 dy=0 dh=20 dv=0
EndChar

StartChar: Adieresis
Encoding: 196 196 5
Width: 1150
Flags: MW
HStem: 336 154<365 664 365 674 305 664> 1124 227<629 629> 1311 41G<539 918 918 918> 1452 285<476 572 931 1027>
VStem: 342 362<1547 1639> 797 362<1547 1639>
LayerCount: 2
Fore
SplineSet
528 1737 m 0,0,1
 607 1737 607 1737 656 1699.5 c 128,-1,2
 705 1662 705 1662 705 1595 c 0,3,4
 705 1526 705 1526 653.5 1489 c 128,-1,5
 602 1452 602 1452 520 1452 c 0,6,7
 441 1452 441 1452 391.5 1488 c 128,-1,8
 342 1524 342 1524 342 1591 c 0,9,10
 342 1661 342 1661 394.5 1699 c 128,-1,11
 447 1737 447 1737 528 1737 c 0,0,1
983 1737 m 0,12,13
 1062 1737 1062 1737 1110.5 1699.5 c 128,-1,14
 1159 1662 1159 1662 1159 1595 c 0,15,16
 1159 1526 1159 1526 1108 1489 c 128,-1,17
 1057 1452 1057 1452 975 1452 c 0,18,19
 896 1452 896 1452 846.5 1488 c 128,-1,20
 797 1524 797 1524 797 1591 c 0,21,22
 797 1661 797 1661 849.5 1699 c 128,-1,23
 902 1737 902 1737 983 1737 c 0,12,13
997 303 m 1,24,25
 1013 124 1013 124 1092 72 c 1,26,27
 1072 20 1072 20 1021.5 -10.5 c 128,-1,28
 971 -41 971 -41 903 -41 c 0,29,30
 809 -41 809 -41 761 20 c 128,-1,31
 713 81 713 81 692 190 c 1,32,33
 680 262 680 262 674 336 c 1,34,-1
 305 336 l 1,35,36
 240 181 240 181 172 0 c 1,37,-1
 -90 0 l 1,38,-1
 539 1352 l 1,39,-1
 918 1352 l 1,40,-1
 997 303 l 1,24,25
629 1124 m 1,41,42
 562 968 562 968 472 749 c 128,-1,43
 382 530 382 530 365 489 c 1,44,-1
 664 489 l 1,45,-1
 629 1124 l 1,41,42
EndSplineSet
Validated: 1
Position2: "'cpsp' Capital Spacing lookup 3 subtable" dx=10 dy=0 dh=20 dv=0
EndChar

StartChar: Agrave
Encoding: 192 192 6
Width: 1150
Flags: MW
HStem: 336 154<365 664 365 674 305 664> 1124 227<629 629> 1311 41G<539 918 918 918>
VStem: -90 1182
LayerCount: 2
Fore
SplineSet
920 1458 m 1,0,-1
 680 1468 l 2,1,2
 397 1480 397 1480 397 1647 c 0,3,4
 397 1710 397 1710 449 1749 c 1,5,-1
 940 1552 l 1,6,-1
 920 1458 l 1,0,-1
997 303 m 1,7,8
 1013 124 1013 124 1092 72 c 1,9,10
 1072 20 1072 20 1021.5 -10.5 c 128,-1,11
 971 -41 971 -41 903 -41 c 0,12,13
 809 -41 809 -41 761 20 c 128,-1,14
 713 81 713 81 692 190 c 1,15,16
 680 262 680 262 674 336 c 1,17,-1
 305 336 l 1,18,19
 240 181 240 181 172 0 c 1,20,-1
 -90 0 l 1,21,-1
 539 1352 l 1,22,-1
 918 1352 l 1,23,-1
 997 303 l 1,7,8
629 1124 m 1,24,25
 562 968 562 968 472 749 c 128,-1,26
 382 530 382 530 365 489 c 1,27,-1
 664 489 l 1,28,-1
 629 1124 l 1,24,25
EndSplineSet
Validated: 1
Position2: "'cpsp' Capital Spacing lookup 3 subtable" dx=10 dy=0 dh=20 dv=0
EndChar

StartChar: Amacron
Encoding: 256 256 7
Width: 1150
Flags: MW
HStem: 336 154<365 664 365 674 305 664> 1124 227<629 629> 1311 41G<539 918 918 918> 1509 178<573 903 446 1042>
VStem: -90 1182
LayerCount: 2
Fore
SplineSet
1042 1688 m 1,0,1
 1051 1656 1051 1656 1051 1634 c 0,2,3
 1051 1578 1051 1578 1012.5 1543.5 c 128,-1,4
 974 1509 974 1509 903 1509 c 2,5,-1
 446 1509 l 1,6,7
 442 1527 442 1527 442 1563 c 0,8,9
 443 1620 443 1620 479.5 1654 c 128,-1,10
 516 1688 516 1688 573 1688 c 2,11,-1
 1042 1688 l 1,0,1
997 303 m 1,12,13
 1013 124 1013 124 1092 72 c 1,14,15
 1072 20 1072 20 1021.5 -10.5 c 128,-1,16
 971 -41 971 -41 903 -41 c 0,17,18
 809 -41 809 -41 761 20 c 128,-1,19
 713 81 713 81 692 190 c 1,20,21
 680 262 680 262 674 336 c 1,22,-1
 305 336 l 1,23,24
 240 181 240 181 172 0 c 1,25,-1
 -90 0 l 1,26,-1
 539 1352 l 1,27,-1
 918 1352 l 1,28,-1
 997 303 l 1,12,13
629 1124 m 1,29,30
 562 968 562 968 472 749 c 128,-1,31
 382 530 382 530 365 489 c 1,32,-1
 664 489 l 1,33,-1
 629 1124 l 1,29,30
EndSplineSet
Validated: 1
Position2: "'cpsp' Capital Spacing lookup 3 subtable" dx=10 dy=0 dh=20 dv=0
EndChar

StartChar: Aogonek
Encoding: 260 260 8
Width: 1150
Flags: MW
HStem: -528 150<945 999> -72 41G 336 154<365 664 365 674 305 664> 1124 227<629 629> 1311 41G<539 918 918 918>
VStem: 686 188<-305 -244>
LayerCount: 2
Fore
SplineSet
1067 20 m 1,0,-1
 1042 4 l 1,1,2
 1036 -2 1036 -2 1028 -6 c 1,3,4
 958 -59 958 -59 916 -128 c 128,-1,5
 874 -197 874 -197 874 -266 c 0,6,7
 874 -325 874 -325 900 -352 c 128,-1,8
 926 -379 926 -379 983 -379 c 0,9,10
 1060 -379 1060 -379 1100 -328 c 1,11,12
 1135 -363 1135 -363 1135 -406 c 0,13,14
 1135 -458 1135 -458 1081.5 -493 c 128,-1,15
 1028 -528 1028 -528 938 -528 c 0,16,17
 821 -528 821 -528 753.5 -470 c 128,-1,18
 686 -412 686 -412 686 -303 c 0,19,20
 686 -140 686 -140 838 -31 c 1,21,22
 727 5 727 5 692 190 c 1,23,24
 680 262 680 262 674 336 c 1,25,-1
 305 336 l 1,26,27
 240 181 240 181 172 0 c 1,28,-1
 -90 0 l 1,29,-1
 539 1352 l 1,30,-1
 918 1352 l 1,31,-1
 997 303 l 1,32,33
 1013 124 1013 124 1092 72 c 1,34,35
 1083 48 1083 48 1067 29 c 1,36,-1
 1067 20 l 1,0,-1
664 489 m 1,37,-1
 629 1124 l 1,38,39
 562 968 562 968 472 749 c 128,-1,40
 382 530 382 530 365 489 c 1,41,-1
 664 489 l 1,37,-1
EndSplineSet
Validated: 1
Position2: "'cpsp' Capital Spacing lookup 3 subtable" dx=10 dy=0 dh=20 dv=0
EndChar

StartChar: Aring
Encoding: 197 197 9
Width: 1150
Flags: MW
HStem: 336 154<365 664 365 674 305 664> 1124 227<629 629> 1311 41G<539 918 918 918> 1413 70<719 773 719 792> 1675 76<748 803>
VStem: 545 129<1531 1588> 850 131<1570 1626>
LayerCount: 2
Fore
SplineSet
981 1610 m 0,0,1
 981 1522 981 1522 905 1467.5 c 128,-1,2
 829 1413 829 1413 729 1413 c 0,3,4
 643 1413 643 1413 594 1450 c 128,-1,5
 545 1487 545 1487 545 1554 c 0,6,7
 545 1642 545 1642 621.5 1696.5 c 128,-1,8
 698 1751 698 1751 799 1751 c 0,9,10
 883 1751 883 1751 932 1714.5 c 128,-1,11
 981 1678 981 1678 981 1610 c 0,0,1
850 1604 m 0,12,13
 850 1675 850 1675 778 1675 c 0,14,15
 732 1675 732 1675 703 1640.5 c 128,-1,16
 674 1606 674 1606 674 1552 c 0,17,18
 674 1483 674 1483 743 1483 c 0,19,20
 787 1483 787 1483 818.5 1518 c 128,-1,21
 850 1553 850 1553 850 1604 c 0,12,13
997 303 m 1,22,23
 1013 124 1013 124 1092 72 c 1,24,25
 1072 20 1072 20 1021.5 -10.5 c 128,-1,26
 971 -41 971 -41 903 -41 c 0,27,28
 809 -41 809 -41 761 20 c 128,-1,29
 713 81 713 81 692 190 c 1,30,31
 680 262 680 262 674 336 c 1,32,-1
 305 336 l 1,33,34
 240 181 240 181 172 0 c 1,35,-1
 -90 0 l 1,36,-1
 539 1352 l 1,37,-1
 918 1352 l 1,38,-1
 997 303 l 1,22,23
629 1124 m 1,39,40
 562 968 562 968 472 749 c 128,-1,41
 382 530 382 530 365 489 c 1,42,-1
 664 489 l 1,43,-1
 629 1124 l 1,39,40
EndSplineSet
Validated: 1
Position2: "'cpsp' Capital Spacing lookup 3 subtable" dx=10 dy=0 dh=20 dv=0
EndChar

StartChar: Aringacute
Encoding: 506 506 10
Width: 1150
Flags: MW
HStem: 336 154<365 664 365 674 305 664> 1311 41G<539 555 555 555 709 764 913 918 918 918> 1542 76<738 794>
VStem: 537 129<1408 1456 1400 1483> 842 131<1453 1494>
LayerCount: 2
Fore
SplineSet
1098 1917 m 1,0,1
 1149 1883 1149 1883 1149 1817 c 0,2,3
 1149 1646 1149 1646 868 1638 c 1,4,-1
 629 1628 l 1,5,-1
 608 1722 l 1,6,-1
 1098 1917 l 1,0,1
997 303 m 1,7,8
 1013 124 1013 124 1092 72 c 1,9,10
 1072 20 1072 20 1021.5 -10.5 c 128,-1,11
 971 -41 971 -41 903 -41 c 0,12,13
 809 -41 809 -41 761 20 c 128,-1,14
 713 81 713 81 692 190 c 1,15,16
 680 262 680 262 674 336 c 1,17,-1
 305 336 l 1,18,19
 240 181 240 181 172 0 c 1,20,-1
 -90 0 l 1,21,-1
 539 1352 l 1,22,-1
 555 1352 l 1,23,24
 537 1379 537 1379 537 1421 c 0,25,26
 537 1509 537 1509 612 1563.5 c 128,-1,27
 687 1618 687 1618 788 1618 c 0,28,29
 873 1618 873 1618 923 1581.5 c 128,-1,30
 973 1545 973 1545 973 1479 c 0,31,32
 973 1406 973 1406 913 1352 c 1,33,-1
 918 1352 l 1,34,-1
 997 303 l 1,7,8
666 1421 m 0,35,36
 666 1352 666 1352 733 1352 c 0,37,38
 779 1352 779 1352 810.5 1386.5 c 128,-1,39
 842 1421 842 1421 842 1473 c 0,40,41
 842 1542 842 1542 768 1542 c 0,42,43
 724 1542 724 1542 695 1507.5 c 128,-1,44
 666 1473 666 1473 666 1421 c 0,35,36
664 489 m 1,45,-1
 629 1124 l 1,46,47
 562 968 562 968 472 749 c 128,-1,48
 382 530 382 530 365 489 c 1,49,-1
 664 489 l 1,45,-1
EndSplineSet
Validated: 1
Position2: "'cpsp' Capital Spacing lookup 3 subtable" dx=10 dy=0 dh=20 dv=0
EndChar

StartChar: Atilde
Encoding: 195 195 11
Width: 1150
Flags: MW
HStem: 336 154<365 664 365 674 305 664> 1124 227<629 629> 1311 41G<539 918 918 918> 1483 197<919 989 919 990> 1518 197<529 598>
VStem: -90 1204
LayerCount: 2
Fore
SplineSet
1077 1714 m 1,0,1
 1114 1669 1114 1669 1114 1620 c 0,2,3
 1114 1554 1114 1554 1066.5 1518.5 c 128,-1,4
 1019 1483 1019 1483 936 1483 c 0,5,6
 890 1483 890 1483 743.5 1500.5 c 128,-1,7
 597 1518 597 1518 557 1518 c 0,8,9
 479 1518 479 1518 432 1485 c 1,10,11
 393 1537 393 1537 393 1589 c 0,12,13
 393 1649 393 1649 441 1681.5 c 128,-1,14
 489 1714 489 1714 578 1714 c 0,15,16
 630 1714 630 1714 775 1696.5 c 128,-1,17
 920 1679 920 1679 965 1679 c 0,18,19
 1049 1679 1049 1679 1077 1714 c 1,0,1
997 303 m 1,20,21
 1013 124 1013 124 1092 72 c 1,22,23
 1072 20 1072 20 1021.5 -10.5 c 128,-1,24
 971 -41 971 -41 903 -41 c 0,25,26
 809 -41 809 -41 761 20 c 128,-1,27
 713 81 713 81 692 190 c 1,28,29
 680 262 680 262 674 336 c 1,30,-1
 305 336 l 1,31,32
 240 181 240 181 172 0 c 1,33,-1
 -90 0 l 1,34,-1
 539 1352 l 1,35,-1
 918 1352 l 1,36,-1
 997 303 l 1,20,21
629 1124 m 1,37,38
 562 968 562 968 472 749 c 128,-1,39
 382 530 382 530 365 489 c 1,40,-1
 664 489 l 1,41,-1
 629 1124 l 1,37,38
EndSplineSet
Validated: 1
Position2: "'cpsp' Capital Spacing lookup 3 subtable" dx=10 dy=0 dh=20 dv=0
EndChar

StartChar: AE
Encoding: 198 198 12
Width: 1462
Flags: MW
HStem: -41 236<1066 1090> 362 158<317 655 395 635> 584 199<1121 1215> 1126 225<1240 1347> 1159 193 1182 170<1020 1020>
VStem: 631 301<170 395>
LayerCount: 2
Fore
SplineSet
317 362 m 1,0,1
 291 313 291 313 224.5 178 c 128,-1,2
 158 43 158 43 139 0 c 1,3,-1
 -139 0 l 1,4,-1
 625 1352 l 1,5,-1
 1513 1352 l 1,6,7
 1513 1240 1513 1240 1449 1183 c 128,-1,8
 1385 1126 1385 1126 1278 1126 c 0,9,10
 1221 1126 1221 1126 1149 1141.5 c 128,-1,11
 1077 1157 1077 1157 1020 1182 c 1,12,-1
 975 782 l 1,13,-1
 1358 782 l 1,14,15
 1358 683 1358 683 1304 633.5 c 128,-1,16
 1250 584 1250 584 1153 584 c 0,17,18
 1044 584 1044 584 956 627 c 1,19,20
 932 431 932 431 932 371 c 0,21,22
 932 271 932 271 980 233 c 128,-1,23
 1028 195 1028 195 1130 195 c 0,24,25
 1238 195 1238 195 1321 225 c 1,26,27
 1337 189 1337 189 1337 145 c 0,28,29
 1337 91 1337 91 1308 52.5 c 128,-1,30
 1279 14 1279 14 1229.5 -5.5 c 128,-1,31
 1180 -25 1180 -25 1129 -33 c 128,-1,32
 1078 -41 1078 -41 1020 -41 c 0,33,34
 841 -41 841 -41 736 40 c 128,-1,35
 631 121 631 121 631 281 c 0,36,37
 631 322 631 322 635 362 c 1,38,-1
 317 362 l 1,0,1
655 520 m 1,39,40
 664 599 664 599 692 810.5 c 128,-1,41
 720 1022 720 1022 737 1159 c 1,42,43
 535 799 535 799 395 520 c 1,44,-1
 655 520 l 1,39,40
EndSplineSet
Validated: 1
Position2: "'cpsp' Capital Spacing lookup 3 subtable" dx=10 dy=0 dh=20 dv=0
EndChar

StartChar: AEacute
Encoding: 508 508 13
Width: 1462
Flags: MW
HStem: -41 236<1066 1090> 362 158<317 655 395 635> 584 199<1121 1215> 1126 225<1240 1347> 1159 193 1182 170<1020 1020>
VStem: 631 301<170 395>
LayerCount: 2
Fore
SplineSet
729 1552 m 1,0,-1
 1219 1747 l 1,1,2
 1270 1713 1270 1713 1270 1647 c 0,3,4
 1270 1476 1270 1476 989 1468 c 1,5,-1
 750 1458 l 1,6,-1
 729 1552 l 1,0,-1
317 362 m 1,7,8
 291 313 291 313 224.5 178 c 128,-1,9
 158 43 158 43 139 0 c 1,10,-1
 -139 0 l 1,11,-1
 625 1352 l 1,12,-1
 1513 1352 l 1,13,14
 1513 1240 1513 1240 1449 1183 c 128,-1,15
 1385 1126 1385 1126 1278 1126 c 0,16,17
 1221 1126 1221 1126 1149 1141.5 c 128,-1,18
 1077 1157 1077 1157 1020 1182 c 1,19,-1
 975 782 l 1,20,-1
 1358 782 l 1,21,22
 1358 683 1358 683 1304 633.5 c 128,-1,23
 1250 584 1250 584 1153 584 c 0,24,25
 1044 584 1044 584 956 627 c 1,26,27
 932 431 932 431 932 371 c 0,28,29
 932 271 932 271 980 233 c 128,-1,30
 1028 195 1028 195 1130 195 c 0,31,32
 1238 195 1238 195 1321 225 c 1,33,34
 1337 189 1337 189 1337 145 c 0,35,36
 1337 91 1337 91 1308 52.5 c 128,-1,37
 1279 14 1279 14 1229.5 -5.5 c 128,-1,38
 1180 -25 1180 -25 1129 -33 c 128,-1,39
 1078 -41 1078 -41 1020 -41 c 0,40,41
 841 -41 841 -41 736 40 c 128,-1,42
 631 121 631 121 631 281 c 0,43,44
 631 322 631 322 635 362 c 1,45,-1
 317 362 l 1,7,8
655 520 m 1,46,47
 664 599 664 599 692 810.5 c 128,-1,48
 720 1022 720 1022 737 1159 c 1,49,50
 535 799 535 799 395 520 c 1,51,-1
 655 520 l 1,46,47
EndSplineSet
Validated: 1
Position2: "'cpsp' Capital Spacing lookup 3 subtable" dx=10 dy=0 dh=20 dv=0
EndChar

StartChar: B
Encoding: 66 66 14
Width: 1173
Flags: MW
HStem: -41 41G<18 18> -14 145<454 573 454 598> 649 139<475 655> 1233 133<651 724>
VStem: 784 328<349 526> 834 299<1012 1121>
LayerCount: 2
Fore
SplineSet
276 1352 m 1,0,1
 484 1366 484 1366 649 1366 c 0,2,3
 708 1366 708 1366 754.5 1364 c 128,-1,4
 801 1362 801 1362 853 1355 c 128,-1,5
 905 1348 905 1348 944 1336 c 128,-1,6
 983 1324 983 1324 1020 1303.5 c 128,-1,7
 1057 1283 1057 1283 1080.5 1255 c 128,-1,8
 1104 1227 1104 1227 1118.5 1186 c 128,-1,9
 1133 1145 1133 1145 1133 1094 c 0,10,11
 1133 976 1133 976 1066 891.5 c 128,-1,12
 999 807 999 807 885 760 c 1,13,14
 1112 700 1112 700 1112 461 c 0,15,16
 1112 340 1112 340 1058 248 c 128,-1,17
 1004 156 1004 156 906 99.5 c 128,-1,18
 808 43 808 43 679 14.5 c 128,-1,19
 550 -14 550 -14 393 -14 c 0,20,21
 231 -14 231 -14 18 0 c 1,22,-1
 276 1352 l 1,0,1
504 793 m 1,23,24
 544 788 544 788 561 788 c 0,25,26
 696 788 696 788 765 863.5 c 128,-1,27
 834 939 834 939 834 1061 c 0,28,29
 834 1152 834 1152 794 1192.5 c 128,-1,30
 754 1233 754 1233 666 1233 c 0,31,32
 638 1233 638 1233 588 1225 c 1,33,-1
 504 793 l 1,23,24
377 139 m 1,34,35
 413 131 413 131 467 131 c 0,36,37
 621 131 621 131 702.5 215.5 c 128,-1,38
 784 300 784 300 784 434 c 0,39,40
 784 488 784 488 769 526.5 c 128,-1,41
 754 565 754 565 729.5 588 c 128,-1,42
 705 611 705 611 663.5 624.5 c 128,-1,43
 622 638 622 638 579.5 643 c 128,-1,44
 537 648 537 648 475 649 c 1,45,-1
 377 139 l 1,34,35
EndSplineSet
Validated: 1
Position2: "'cpsp' Capital Spacing lookup 3 subtable" dx=10 dy=0 dh=20 dv=0
EndChar

StartChar: C
Encoding: 67 67 15
Width: 1142
Flags: MW
HStem: -41 256<553 668> 1247 145<636 805>
VStem: 49 350<425 641 425 715> 883 305<1062 1123>
LayerCount: 2
Fore
SplineSet
813 1393 m 0,0,1
 917 1393 917 1393 999 1368 c 128,-1,2
 1081 1343 1081 1343 1134.5 1283 c 128,-1,3
 1188 1223 1188 1223 1188 1135 c 0,4,5
 1188 1030 1188 1030 1121 967.5 c 128,-1,6
 1054 905 1054 905 958 905 c 0,7,8
 896 905 896 905 860 928 c 1,9,10
 883 1002 883 1002 883 1083 c 0,11,12
 883 1152 883 1152 853.5 1199.5 c 128,-1,13
 824 1247 824 1247 756 1247 c 0,14,15
 671 1247 671 1247 600 1169 c 128,-1,16
 529 1091 529 1091 487 974.5 c 128,-1,17
 445 858 445 858 422 737 c 128,-1,18
 399 616 399 616 399 516 c 0,19,20
 399 215 399 215 643 215 c 0,21,22
 846 215 846 215 971 410 c 1,23,24
 1030 372 1030 372 1030 287 c 0,25,26
 1030 149 1030 149 884 54 c 128,-1,27
 738 -41 738 -41 526 -41 c 0,28,29
 290 -41 290 -41 169.5 92 c 128,-1,30
 49 225 49 225 49 489 c 0,31,32
 49 626 49 626 80 756.5 c 128,-1,33
 111 887 111 887 174.5 1002.5 c 128,-1,34
 238 1118 238 1118 327.5 1205 c 128,-1,35
 417 1292 417 1292 542 1342.5 c 128,-1,36
 667 1393 667 1393 813 1393 c 0,0,1
EndSplineSet
Validated: 1
Position2: "'cpsp' Capital Spacing lookup 3 subtable" dx=10 dy=0 dh=20 dv=0
EndChar

StartChar: Cacute
Encoding: 262 262 16
Width: 1142
Flags: MW
HStem: -41 256<553 668> 1247 145<636 805>
VStem: 49 350<425 641 425 715> 883 305<1062 1123>
LayerCount: 2
Fore
SplineSet
641 1552 m 1,0,-1
 1130 1747 l 1,1,2
 1182 1713 1182 1713 1182 1647 c 0,3,4
 1182 1476 1182 1476 901 1468 c 1,5,-1
 662 1458 l 1,6,-1
 641 1552 l 1,0,-1
813 1393 m 0,7,8
 917 1393 917 1393 999 1368 c 128,-1,9
 1081 1343 1081 1343 1134.5 1283 c 128,-1,10
 1188 1223 1188 1223 1188 1135 c 0,11,12
 1188 1030 1188 1030 1121 967.5 c 128,-1,13
 1054 905 1054 905 958 905 c 0,14,15
 896 905 896 905 860 928 c 1,16,17
 883 1002 883 1002 883 1083 c 0,18,19
 883 1152 883 1152 853.5 1199.5 c 128,-1,20
 824 1247 824 1247 756 1247 c 0,21,22
 671 1247 671 1247 600 1169 c 128,-1,23
 529 1091 529 1091 487 974.5 c 128,-1,24
 445 858 445 858 422 737 c 128,-1,25
 399 616 399 616 399 516 c 0,26,27
 399 215 399 215 643 215 c 0,28,29
 846 215 846 215 971 410 c 1,30,31
 1030 372 1030 372 1030 287 c 0,32,33
 1030 149 1030 149 884 54 c 128,-1,34
 738 -41 738 -41 526 -41 c 0,35,36
 290 -41 290 -41 169.5 92 c 128,-1,37
 49 225 49 225 49 489 c 0,38,39
 49 626 49 626 80 756.5 c 128,-1,40
 111 887 111 887 174.5 1002.5 c 128,-1,41
 238 1118 238 1118 327.5 1205 c 128,-1,42
 417 1292 417 1292 542 1342.5 c 128,-1,43
 667 1393 667 1393 813 1393 c 0,7,8
EndSplineSet
Validated: 1
Substitution2: "'locl' Localized Forms in Latin lookup 13 subtable" Cacute.loclPLK
Substitution2: "'aalt' Access All Alternates lookup 0 subtable" Cacute.loclPLK
Position2: "'cpsp' Capital Spacing lookup 3 subtable" dx=10 dy=0 dh=20 dv=0
EndChar

StartChar: Ccaron
Encoding: 268 268 17
Width: 1142
Flags: MW
HStem: -41 256<553 668> 1247 145<636 805>
VStem: 49 350<425 641 425 715> 883 305<1062 1123>
LayerCount: 2
Fore
SplineSet
612 1733 m 1,0,-1
 840 1626 l 1,1,-1
 1124 1733 l 1,2,-1
 1184 1645 l 1,3,-1
 856 1417 l 1,4,-1
 782 1417 l 1,5,-1
 520 1647 l 1,6,-1
 612 1733 l 1,0,-1
813 1393 m 0,7,8
 917 1393 917 1393 999 1368 c 128,-1,9
 1081 1343 1081 1343 1134.5 1283 c 128,-1,10
 1188 1223 1188 1223 1188 1135 c 0,11,12
 1188 1030 1188 1030 1121 967.5 c 128,-1,13
 1054 905 1054 905 958 905 c 0,14,15
 896 905 896 905 860 928 c 1,16,17
 883 1002 883 1002 883 1083 c 0,18,19
 883 1152 883 1152 853.5 1199.5 c 128,-1,20
 824 1247 824 1247 756 1247 c 0,21,22
 671 1247 671 1247 600 1169 c 128,-1,23
 529 1091 529 1091 487 974.5 c 128,-1,24
 445 858 445 858 422 737 c 128,-1,25
 399 616 399 616 399 516 c 0,26,27
 399 215 399 215 643 215 c 0,28,29
 846 215 846 215 971 410 c 1,30,31
 1030 372 1030 372 1030 287 c 0,32,33
 1030 149 1030 149 884 54 c 128,-1,34
 738 -41 738 -41 526 -41 c 0,35,36
 290 -41 290 -41 169.5 92 c 128,-1,37
 49 225 49 225 49 489 c 0,38,39
 49 626 49 626 80 756.5 c 128,-1,40
 111 887 111 887 174.5 1002.5 c 128,-1,41
 238 1118 238 1118 327.5 1205 c 128,-1,42
 417 1292 417 1292 542 1342.5 c 128,-1,43
 667 1393 667 1393 813 1393 c 0,7,8
EndSplineSet
Validated: 1
Position2: "'cpsp' Capital Spacing lookup 3 subtable" dx=10 dy=0 dh=20 dv=0
EndChar

StartChar: Ccedilla
Encoding: 199 199 18
Width: 1142
Flags: MW
HStem: -524 125<489 557 489 628> -227 102<498 708> -41 256<489 716> 1247 145<636 805>
VStem: 49 350<425 641 425 715> 653 209<-343 -274> 883 305<1062 1123>
LayerCount: 2
Fore
SplineSet
489 -41 m 1,0,1
 271 -30 271 -30 160 102.5 c 128,-1,2
 49 235 49 235 49 489 c 0,3,4
 49 626 49 626 80 756.5 c 128,-1,5
 111 887 111 887 174.5 1002.5 c 128,-1,6
 238 1118 238 1118 327.5 1205 c 128,-1,7
 417 1292 417 1292 542 1342.5 c 128,-1,8
 667 1393 667 1393 813 1393 c 0,9,10
 917 1393 917 1393 999 1368 c 128,-1,11
 1081 1343 1081 1343 1134.5 1283 c 128,-1,12
 1188 1223 1188 1223 1188 1135 c 0,13,14
 1188 1030 1188 1030 1121 967.5 c 128,-1,15
 1054 905 1054 905 958 905 c 0,16,17
 896 905 896 905 860 928 c 1,18,19
 883 1002 883 1002 883 1083 c 0,20,21
 883 1152 883 1152 853.5 1199.5 c 128,-1,22
 824 1247 824 1247 756 1247 c 0,23,24
 671 1247 671 1247 600 1169 c 128,-1,25
 529 1091 529 1091 487 974.5 c 128,-1,26
 445 858 445 858 422 737 c 128,-1,27
 399 616 399 616 399 516 c 0,28,29
 399 215 399 215 643 215 c 0,30,31
 846 215 846 215 971 410 c 1,32,33
 1030 372 1030 372 1030 287 c 0,34,35
 1030 162 1030 162 908 71 c 128,-1,36
 786 -20 786 -20 600 -37 c 1,37,-1
 573 -127 l 1,38,39
 584 -127 584 -127 611 -126 c 128,-1,40
 638 -125 638 -125 649 -125 c 0,41,42
 744 -125 744 -125 803 -164 c 128,-1,43
 862 -203 862 -203 862 -285 c 0,44,45
 862 -390 862 -390 768.5 -457 c 128,-1,46
 675 -524 675 -524 537 -524 c 0,47,48
 453 -524 453 -524 402.5 -496.5 c 128,-1,49
 352 -469 352 -469 352 -420 c 0,50,51
 352 -366 352 -366 387 -338 c 1,52,53
 426 -399 426 -399 524 -399 c 0,54,55
 653 -399 653 -399 653 -307 c 0,56,57
 653 -227 653 -227 512 -227 c 0,58,59
 486 -227 486 -227 432 -231 c 1,60,-1
 489 -41 l 1,0,1
EndSplineSet
Validated: 1
Position2: "'cpsp' Capital Spacing lookup 3 subtable" dx=10 dy=0 dh=20 dv=0
EndChar

StartChar: Ccircumflex
Encoding: 264 264 19
Width: 1142
Flags: MW
HStem: -41 256<553 668> 1247 145<636 805>
VStem: 49 350<425 641 425 715> 883 305<1062 1123>
LayerCount: 2
Fore
SplineSet
1036 1395 m 1,0,-1
 809 1522 l 1,1,-1
 524 1395 l 1,2,-1
 465 1493 l 1,3,-1
 803 1731 l 1,4,-1
 856 1731 l 1,5,-1
 1128 1491 l 1,6,-1
 1036 1395 l 1,0,-1
813 1393 m 0,7,8
 917 1393 917 1393 999 1368 c 128,-1,9
 1081 1343 1081 1343 1134.5 1283 c 128,-1,10
 1188 1223 1188 1223 1188 1135 c 0,11,12
 1188 1030 1188 1030 1121 967.5 c 128,-1,13
 1054 905 1054 905 958 905 c 0,14,15
 896 905 896 905 860 928 c 1,16,17
 883 1002 883 1002 883 1083 c 0,18,19
 883 1152 883 1152 853.5 1199.5 c 128,-1,20
 824 1247 824 1247 756 1247 c 0,21,22
 671 1247 671 1247 600 1169 c 128,-1,23
 529 1091 529 1091 487 974.5 c 128,-1,24
 445 858 445 858 422 737 c 128,-1,25
 399 616 399 616 399 516 c 0,26,27
 399 215 399 215 643 215 c 0,28,29
 846 215 846 215 971 410 c 1,30,31
 1030 372 1030 372 1030 287 c 0,32,33
 1030 149 1030 149 884 54 c 128,-1,34
 738 -41 738 -41 526 -41 c 0,35,36
 290 -41 290 -41 169.5 92 c 128,-1,37
 49 225 49 225 49 489 c 0,38,39
 49 626 49 626 80 756.5 c 128,-1,40
 111 887 111 887 174.5 1002.5 c 128,-1,41
 238 1118 238 1118 327.5 1205 c 128,-1,42
 417 1292 417 1292 542 1342.5 c 128,-1,43
 667 1393 667 1393 813 1393 c 0,7,8
EndSplineSet
Validated: 1
Position2: "'cpsp' Capital Spacing lookup 3 subtable" dx=10 dy=0 dh=20 dv=0
EndChar

StartChar: Cdotaccent
Encoding: 266 266 20
Width: 1142
Flags: MW
HStem: -41 256<553 668> 1247 145<636 805> 1452 285<769 865>
VStem: 49 350<425 641 425 715> 635 362<1547 1639> 883 305<1062 1123>
LayerCount: 2
Fore
SplineSet
821 1737 m 0,0,1
 900 1737 900 1737 948.5 1699.5 c 128,-1,2
 997 1662 997 1662 997 1595 c 0,3,4
 997 1526 997 1526 946 1489 c 128,-1,5
 895 1452 895 1452 813 1452 c 0,6,7
 734 1452 734 1452 684.5 1488 c 128,-1,8
 635 1524 635 1524 635 1591 c 0,9,10
 635 1661 635 1661 687.5 1699 c 128,-1,11
 740 1737 740 1737 821 1737 c 0,0,1
813 1393 m 0,12,13
 917 1393 917 1393 999 1368 c 128,-1,14
 1081 1343 1081 1343 1134.5 1283 c 128,-1,15
 1188 1223 1188 1223 1188 1135 c 0,16,17
 1188 1030 1188 1030 1121 967.5 c 128,-1,18
 1054 905 1054 905 958 905 c 0,19,20
 896 905 896 905 860 928 c 1,21,22
 883 1002 883 1002 883 1083 c 0,23,24
 883 1152 883 1152 853.5 1199.5 c 128,-1,25
 824 1247 824 1247 756 1247 c 0,26,27
 671 1247 671 1247 600 1169 c 128,-1,28
 529 1091 529 1091 487 974.5 c 128,-1,29
 445 858 445 858 422 737 c 128,-1,30
 399 616 399 616 399 516 c 0,31,32
 399 215 399 215 643 215 c 0,33,34
 846 215 846 215 971 410 c 1,35,36
 1030 372 1030 372 1030 287 c 0,37,38
 1030 149 1030 149 884 54 c 128,-1,39
 738 -41 738 -41 526 -41 c 0,40,41
 290 -41 290 -41 169.5 92 c 128,-1,42
 49 225 49 225 49 489 c 0,43,44
 49 626 49 626 80 756.5 c 128,-1,45
 111 887 111 887 174.5 1002.5 c 128,-1,46
 238 1118 238 1118 327.5 1205 c 128,-1,47
 417 1292 417 1292 542 1342.5 c 128,-1,48
 667 1393 667 1393 813 1393 c 0,12,13
EndSplineSet
Validated: 1
Position2: "'cpsp' Capital Spacing lookup 3 subtable" dx=10 dy=0 dh=20 dv=0
EndChar

StartChar: D
Encoding: 68 68 21
Width: 1304
Flags: MW
HStem: -41 41G<14 14> -14 145<480 606 480 680> 1223 143<684 782>
VStem: 924 328<931 1048 602 1063>
LayerCount: 2
Fore
SplineSet
276 1352 m 1,0,1
 484 1366 484 1366 655 1366 c 0,2,3
 820 1366 820 1366 930 1340.5 c 128,-1,4
 1040 1315 1040 1315 1113.5 1254.5 c 128,-1,5
 1187 1194 1187 1194 1219 1097.5 c 128,-1,6
 1251 1001 1251 1001 1251 856 c 0,7,8
 1251 703 1251 703 1217 570.5 c 128,-1,9
 1183 438 1183 438 1113.5 330 c 128,-1,10
 1044 222 1044 222 943 145.5 c 128,-1,11
 842 69 842 69 702 27.5 c 128,-1,12
 562 -14 562 -14 393 -14 c 0,13,14
 215 -14 215 -14 14 0 c 1,15,-1
 276 1352 l 1,0,1
377 141 m 1,16,17
 439 131 439 131 496 131 c 0,18,19
 561 131 561 131 615 154.5 c 128,-1,20
 669 178 669 178 708.5 219 c 128,-1,21
 748 260 748 260 780 321.5 c 128,-1,22
 812 383 812 383 834 452 c 128,-1,23
 856 521 856 521 874 608 c 0,24,25
 924 842 924 842 924 981 c 0,26,27
 924 1106 924 1106 872 1164.5 c 128,-1,28
 820 1223 820 1223 702 1223 c 0,29,30
 654 1223 654 1223 586 1212 c 1,31,-1
 377 141 l 1,16,17
EndSplineSet
Validated: 1
Position2: "'cpsp' Capital Spacing lookup 3 subtable" dx=10 dy=0 dh=20 dv=0
EndChar

StartChar: DZ
Encoding: 497 497 22
Width: 2314
Flags: MW
HStem: -41 41G<14 14> -29 283<1900 2006 1900 2038> -14 145<480 606 480 680> 1020 41G<2036 2036> 1100 283<1645 1731> 1223 143<684 782> 1311 41G<276 276>
VStem: 924 328<931 1048 602 1063>
LayerCount: 2
Fore
SplineSet
2036 1061 m 1,0,1
 1802 1100 1802 1100 1688 1100 c 0,2,3
 1555 1100 1555 1100 1470 1055 c 1,4,5
 1430 1117 1430 1117 1430 1198 c 0,6,7
 1430 1382 1430 1382 1683 1382 c 0,8,9
 1762 1382 1762 1382 1921 1355.5 c 128,-1,10
 2080 1329 2080 1329 2154 1329 c 0,11,12
 2240 1329 2240 1329 2314 1352 c 1,13,14
 2382 1296 2382 1296 2382 1198 c 0,15,16
 2382 1104 2382 1104 2298 1032 c 1,17,-1
 1597 293 l 1,18,19
 1759 254 1759 254 1958 254 c 0,20,21
 2113 254 2113 254 2183 307 c 1,22,23
 2222 252 2222 252 2222 174 c 0,24,25
 2222 -29 2222 -29 1944 -29 c 0,26,27
 1851 -29 1851 -29 1683 0 c 128,-1,28
 1515 29 1515 29 1454 29 c 0,29,30
 1382 29 1382 29 1329 0 c 1,31,32
 1301 23 1301 23 1282.5 70 c 128,-1,33
 1264 117 1264 117 1264 164 c 0,34,35
 1264 258 1264 258 1343 326 c 1,36,-1
 2036 1061 l 1,0,1
276 1352 m 1,37,38
 484 1366 484 1366 655 1366 c 0,39,40
 820 1366 820 1366 930 1340.5 c 128,-1,41
 1040 1315 1040 1315 1113.5 1254.5 c 128,-1,42
 1187 1194 1187 1194 1219 1097.5 c 128,-1,43
 1251 1001 1251 1001 1251 856 c 0,44,45
 1251 703 1251 703 1217 570.5 c 128,-1,46
 1183 438 1183 438 1113.5 330 c 128,-1,47
 1044 222 1044 222 943 145.5 c 128,-1,48
 842 69 842 69 702 27.5 c 128,-1,49
 562 -14 562 -14 393 -14 c 0,50,51
 215 -14 215 -14 14 0 c 1,52,-1
 276 1352 l 1,37,38
377 141 m 1,53,54
 439 131 439 131 496 131 c 0,55,56
 561 131 561 131 615 154.5 c 128,-1,57
 669 178 669 178 708.5 219 c 128,-1,58
 748 260 748 260 780 321.5 c 128,-1,59
 812 383 812 383 834 452 c 128,-1,60
 856 521 856 521 874 608 c 0,61,62
 924 842 924 842 924 981 c 0,63,64
 924 1106 924 1106 872 1164.5 c 128,-1,65
 820 1223 820 1223 702 1223 c 0,66,67
 654 1223 654 1223 586 1212 c 1,68,-1
 377 141 l 1,53,54
EndSplineSet
Validated: 1
Position2: "'cpsp' Capital Spacing lookup 3 subtable" dx=10 dy=0 dh=20 dv=0
EndChar

StartChar: DZcaron
Encoding: 452 452 23
Width: 2314
Flags: MW
HStem: -41 41G<14 14> -29 283<1900 2006 1900 2038> -14 145<480 606 480 680> 1020 41G<2036 2036> 1100 283<1645 1731> 1223 143<684 782> 1311 41G<276 276>
VStem: 924 328<931 1048 602 1063>
LayerCount: 2
Fore
SplineSet
1724 1733 m 1,0,-1
 1952 1626 l 1,1,-1
 2236 1733 l 1,2,-1
 2296 1645 l 1,3,-1
 1968 1417 l 1,4,-1
 1894 1417 l 1,5,-1
 1632 1647 l 1,6,-1
 1724 1733 l 1,0,-1
2036 1061 m 1,7,8
 1802 1100 1802 1100 1688 1100 c 0,9,10
 1555 1100 1555 1100 1470 1055 c 1,11,12
 1430 1117 1430 1117 1430 1198 c 0,13,14
 1430 1382 1430 1382 1683 1382 c 0,15,16
 1762 1382 1762 1382 1921 1355.5 c 128,-1,17
 2080 1329 2080 1329 2154 1329 c 0,18,19
 2240 1329 2240 1329 2314 1352 c 1,20,21
 2382 1296 2382 1296 2382 1198 c 0,22,23
 2382 1104 2382 1104 2298 1032 c 1,24,-1
 1597 293 l 1,25,26
 1759 254 1759 254 1958 254 c 0,27,28
 2113 254 2113 254 2183 307 c 1,29,30
 2222 252 2222 252 2222 174 c 0,31,32
 2222 -29 2222 -29 1944 -29 c 0,33,34
 1851 -29 1851 -29 1683 0 c 128,-1,35
 1515 29 1515 29 1454 29 c 0,36,37
 1382 29 1382 29 1329 0 c 1,38,39
 1301 23 1301 23 1282.5 70 c 128,-1,40
 1264 117 1264 117 1264 164 c 0,41,42
 1264 258 1264 258 1343 326 c 1,43,-1
 2036 1061 l 1,7,8
276 1352 m 1,44,45
 484 1366 484 1366 655 1366 c 0,46,47
 820 1366 820 1366 930 1340.5 c 128,-1,48
 1040 1315 1040 1315 1113.5 1254.5 c 128,-1,49
 1187 1194 1187 1194 1219 1097.5 c 128,-1,50
 1251 1001 1251 1001 1251 856 c 0,51,52
 1251 703 1251 703 1217 570.5 c 128,-1,53
 1183 438 1183 438 1113.5 330 c 128,-1,54
 1044 222 1044 222 943 145.5 c 128,-1,55
 842 69 842 69 702 27.5 c 128,-1,56
 562 -14 562 -14 393 -14 c 0,57,58
 215 -14 215 -14 14 0 c 1,59,-1
 276 1352 l 1,44,45
377 141 m 1,60,61
 439 131 439 131 496 131 c 0,62,63
 561 131 561 131 615 154.5 c 128,-1,64
 669 178 669 178 708.5 219 c 128,-1,65
 748 260 748 260 780 321.5 c 128,-1,66
 812 383 812 383 834 452 c 128,-1,67
 856 521 856 521 874 608 c 0,68,69
 924 842 924 842 924 981 c 0,70,71
 924 1106 924 1106 872 1164.5 c 128,-1,72
 820 1223 820 1223 702 1223 c 0,73,74
 654 1223 654 1223 586 1212 c 1,75,-1
 377 141 l 1,60,61
EndSplineSet
Validated: 1
Position2: "'cpsp' Capital Spacing lookup 3 subtable" dx=10 dy=0 dh=20 dv=0
EndChar

StartChar: Eth
Encoding: 208 208 24
Width: 1304
Flags: MW
HStem: -41 41G<14 14> -14 145<480 606 480 680> 600 168<106 131 -16 164 500 610> 1223 143<684 782>
VStem: 924 328<931 1048 602 1063>
LayerCount: 2
Fore
SplineSet
276 1352 m 1,0,1
 484 1366 484 1366 655 1366 c 0,2,3
 820 1366 820 1366 930 1340.5 c 128,-1,4
 1040 1315 1040 1315 1113.5 1254.5 c 128,-1,5
 1187 1194 1187 1194 1219 1097.5 c 128,-1,6
 1251 1001 1251 1001 1251 856 c 0,7,8
 1251 703 1251 703 1217 570.5 c 128,-1,9
 1183 438 1183 438 1113.5 330 c 128,-1,10
 1044 222 1044 222 943 145.5 c 128,-1,11
 842 69 842 69 702 27.5 c 128,-1,12
 562 -14 562 -14 393 -14 c 0,13,14
 215 -14 215 -14 14 0 c 1,15,-1
 131 600 l 1,16,-1
 -16 600 l 1,17,18
 -20 618 -20 618 -20 653 c 0,19,20
 -19 707 -19 707 15 737.5 c 128,-1,21
 49 768 49 768 106 768 c 2,22,-1
 164 768 l 1,23,-1
 276 1352 l 1,0,1
377 141 m 1,24,25
 439 131 439 131 496 131 c 0,26,27
 561 131 561 131 615 154.5 c 128,-1,28
 669 178 669 178 708.5 219 c 128,-1,29
 748 260 748 260 780 321.5 c 128,-1,30
 812 383 812 383 834 452 c 128,-1,31
 856 521 856 521 874 608 c 0,32,33
 924 842 924 842 924 981 c 0,34,35
 924 1106 924 1106 872 1164.5 c 128,-1,36
 820 1223 820 1223 702 1223 c 0,37,38
 654 1223 654 1223 586 1212 c 1,39,-1
 500 768 l 1,40,-1
 745 768 l 1,41,42
 752 744 752 744 752 715 c 0,43,44
 752 663 752 663 716.5 631.5 c 128,-1,45
 681 600 681 600 610 600 c 2,46,-1
 467 600 l 1,47,-1
 377 141 l 1,24,25
EndSplineSet
Validated: 1
Position2: "'cpsp' Capital Spacing lookup 3 subtable" dx=10 dy=0 dh=20 dv=0
EndChar

StartChar: Dcaron
Encoding: 270 270 25
Width: 1304
Flags: MW
HStem: -41 41G<14 14> -14 145<480 606 480 680> 1223 143<684 782>
VStem: 924 328<931 1048 602 1063>
LayerCount: 2
Fore
SplineSet
563 1733 m 1,0,-1
 791 1626 l 1,1,-1
 1075 1733 l 1,2,-1
 1135 1645 l 1,3,-1
 807 1417 l 1,4,-1
 733 1417 l 1,5,-1
 471 1647 l 1,6,-1
 563 1733 l 1,0,-1
276 1352 m 1,7,8
 484 1366 484 1366 655 1366 c 0,9,10
 820 1366 820 1366 930 1340.5 c 128,-1,11
 1040 1315 1040 1315 1113.5 1254.5 c 128,-1,12
 1187 1194 1187 1194 1219 1097.5 c 128,-1,13
 1251 1001 1251 1001 1251 856 c 0,14,15
 1251 703 1251 703 1217 570.5 c 128,-1,16
 1183 438 1183 438 1113.5 330 c 128,-1,17
 1044 222 1044 222 943 145.5 c 128,-1,18
 842 69 842 69 702 27.5 c 128,-1,19
 562 -14 562 -14 393 -14 c 0,20,21
 215 -14 215 -14 14 0 c 1,22,-1
 276 1352 l 1,7,8
377 141 m 1,23,24
 439 131 439 131 496 131 c 0,25,26
 561 131 561 131 615 154.5 c 128,-1,27
 669 178 669 178 708.5 219 c 128,-1,28
 748 260 748 260 780 321.5 c 128,-1,29
 812 383 812 383 834 452 c 128,-1,30
 856 521 856 521 874 608 c 0,31,32
 924 842 924 842 924 981 c 0,33,34
 924 1106 924 1106 872 1164.5 c 128,-1,35
 820 1223 820 1223 702 1223 c 0,36,37
 654 1223 654 1223 586 1212 c 1,38,-1
 377 141 l 1,23,24
EndSplineSet
Validated: 1
Position2: "'cpsp' Capital Spacing lookup 3 subtable" dx=10 dy=0 dh=20 dv=0
EndChar

StartChar: Dcroat
Encoding: 272 272 26
Width: 1304
Flags: MW
HStem: -41 41G<14 14> -14 145<480 606 480 680> 600 168<106 131 -16 164 500 610> 1223 143<684 782>
VStem: 924 328<931 1048 602 1063>
LayerCount: 2
Fore
SplineSet
276 1352 m 1,0,1
 484 1366 484 1366 655 1366 c 0,2,3
 820 1366 820 1366 930 1340.5 c 128,-1,4
 1040 1315 1040 1315 1113.5 1254.5 c 128,-1,5
 1187 1194 1187 1194 1219 1097.5 c 128,-1,6
 1251 1001 1251 1001 1251 856 c 0,7,8
 1251 703 1251 703 1217 570.5 c 128,-1,9
 1183 438 1183 438 1113.5 330 c 128,-1,10
 1044 222 1044 222 943 145.5 c 128,-1,11
 842 69 842 69 702 27.5 c 128,-1,12
 562 -14 562 -14 393 -14 c 0,13,14
 215 -14 215 -14 14 0 c 1,15,-1
 131 600 l 1,16,-1
 -16 600 l 1,17,18
 -20 618 -20 618 -20 653 c 0,19,20
 -19 707 -19 707 15 737.5 c 128,-1,21
 49 768 49 768 106 768 c 2,22,-1
 164 768 l 1,23,-1
 276 1352 l 1,0,1
377 141 m 1,24,25
 439 131 439 131 496 131 c 0,26,27
 561 131 561 131 615 154.5 c 128,-1,28
 669 178 669 178 708.5 219 c 128,-1,29
 748 260 748 260 780 321.5 c 128,-1,30
 812 383 812 383 834 452 c 128,-1,31
 856 521 856 521 874 608 c 0,32,33
 924 842 924 842 924 981 c 0,34,35
 924 1106 924 1106 872 1164.5 c 128,-1,36
 820 1223 820 1223 702 1223 c 0,37,38
 654 1223 654 1223 586 1212 c 1,39,-1
 500 768 l 1,40,-1
 745 768 l 1,41,42
 752 744 752 744 752 715 c 0,43,44
 752 663 752 663 716.5 631.5 c 128,-1,45
 681 600 681 600 610 600 c 2,46,-1
 467 600 l 1,47,-1
 377 141 l 1,24,25
EndSplineSet
Validated: 1
Position2: "'cpsp' Capital Spacing lookup 3 subtable" dx=10 dy=0 dh=20 dv=0
EndChar

StartChar: Ddotbelow
Encoding: 7692 7692 27
Width: 1304
Flags: MW
HStem: -383 285<407 503> -41 41G<14 14> -14 145<480 606 480 680> 1223 143<684 782>
VStem: 272 365<-288 -196> 924 328<931 1048 602 1063>
LayerCount: 2
Fore
SplineSet
276 1352 m 1,0,1
 484 1366 484 1366 655 1366 c 0,2,3
 820 1366 820 1366 930 1340.5 c 128,-1,4
 1040 1315 1040 1315 1113.5 1254.5 c 128,-1,5
 1187 1194 1187 1194 1219 1097.5 c 128,-1,6
 1251 1001 1251 1001 1251 856 c 0,7,8
 1251 703 1251 703 1217 570.5 c 128,-1,9
 1183 438 1183 438 1113.5 330 c 128,-1,10
 1044 222 1044 222 943 145.5 c 128,-1,11
 842 69 842 69 702 27.5 c 128,-1,12
 562 -14 562 -14 393 -14 c 0,13,14
 215 -14 215 -14 14 0 c 1,15,-1
 276 1352 l 1,0,1
377 141 m 1,16,17
 439 131 439 131 496 131 c 0,18,19
 561 131 561 131 615 154.5 c 128,-1,20
 669 178 669 178 708.5 219 c 128,-1,21
 748 260 748 260 780 321.5 c 128,-1,22
 812 383 812 383 834 452 c 128,-1,23
 856 521 856 521 874 608 c 0,24,25
 924 842 924 842 924 981 c 0,26,27
 924 1106 924 1106 872 1164.5 c 128,-1,28
 820 1223 820 1223 702 1223 c 0,29,30
 654 1223 654 1223 586 1212 c 1,31,-1
 377 141 l 1,16,17
459 -98 m 0,32,33
 538 -98 538 -98 587.5 -135.5 c 128,-1,34
 637 -173 637 -173 637 -240 c 0,35,36
 637 -309 637 -309 585 -346 c 128,-1,37
 533 -383 533 -383 451 -383 c 0,38,39
 371 -383 371 -383 321.5 -347 c 128,-1,40
 272 -311 272 -311 272 -244 c 0,41,42
 272 -175 272 -175 324.5 -136.5 c 128,-1,43
 377 -98 377 -98 459 -98 c 0,32,33
EndSplineSet
Validated: 1
Position2: "'cpsp' Capital Spacing lookup 3 subtable" dx=10 dy=0 dh=20 dv=0
EndChar

StartChar: Dz
Encoding: 498 498 28
Width: 2172
Flags: MW
HStem: -41 41G<14 14> -37 268<1840 1910 1840 1940> -14 145<480 606 480 680> 827 258<1584 1659> 1016 41G 1223 143<684 782>
VStem: 924 328<931 1048 602 1063>
LayerCount: 2
Fore
SplineSet
276 1352 m 1,0,1
 484 1366 484 1366 655 1366 c 0,2,3
 820 1366 820 1366 930 1340.5 c 128,-1,4
 1040 1315 1040 1315 1113.5 1254.5 c 128,-1,5
 1187 1194 1187 1194 1219 1097.5 c 128,-1,6
 1251 1001 1251 1001 1251 856 c 0,7,8
 1251 703 1251 703 1217 570.5 c 128,-1,9
 1183 438 1183 438 1113.5 330 c 128,-1,10
 1044 222 1044 222 943 145.5 c 128,-1,11
 842 69 842 69 702 27.5 c 128,-1,12
 562 -14 562 -14 393 -14 c 0,13,14
 215 -14 215 -14 14 0 c 1,15,-1
 276 1352 l 1,0,1
377 141 m 1,16,17
 439 131 439 131 496 131 c 0,18,19
 561 131 561 131 615 154.5 c 128,-1,20
 669 178 669 178 708.5 219 c 128,-1,21
 748 260 748 260 780 321.5 c 128,-1,22
 812 383 812 383 834 452 c 128,-1,23
 856 521 856 521 874 608 c 0,24,25
 924 842 924 842 924 981 c 0,26,27
 924 1106 924 1106 872 1164.5 c 128,-1,28
 820 1223 820 1223 702 1223 c 0,29,30
 654 1223 654 1223 586 1212 c 1,31,-1
 377 141 l 1,16,17
1907 793 m 1,32,33
 1761 827 1761 827 1624 827 c 0,34,35
 1504 827 1504 827 1452 756 c 1,36,37
 1399 819 1399 819 1399 913 c 0,38,39
 1399 1003 1399 1003 1461.5 1044 c 128,-1,40
 1524 1085 1524 1085 1626 1085 c 0,41,42
 1693 1085 1693 1085 1842 1060.5 c 128,-1,43
 1991 1036 1991 1036 2054 1036 c 0,44,45
 2126 1036 2126 1036 2167 1057 c 1,46,47
 2212 1015 2212 1015 2212 950 c 0,48,49
 2212 854 2212 854 2118 774 c 1,50,-1
 1585 270 l 1,51,52
 1649 253 1649 253 1734.5 242 c 128,-1,53
 1820 231 1820 231 1876 231 c 0,54,55
 2005 231 2005 231 2068 299 c 1,56,57
 2116 245 2116 245 2116 160 c 0,58,59
 2116 61 2116 61 2049 12 c 128,-1,60
 1982 -37 1982 -37 1872 -37 c 0,61,62
 1802 -37 1802 -37 1665 -9.5 c 128,-1,63
 1528 18 1528 18 1464 18 c 0,64,65
 1395 18 1395 18 1343 -4 c 1,66,67
 1316 14 1316 14 1299 48 c 128,-1,68
 1282 82 1282 82 1282 125 c 0,69,70
 1282 229 1282 229 1382 322 c 1,71,-1
 1907 793 l 1,32,33
EndSplineSet
Validated: 1
Position2: "'cpsp' Capital Spacing lookup 3 subtable" dx=10 dy=0 dh=20 dv=0
EndChar

StartChar: Dzcaron
Encoding: 453 453 29
Width: 2172
Flags: MW
HStem: -41 41G<14 14> -37 268<1840 1910 1840 1940> -14 145<480 606 480 680> 827 258<1584 1659> 1016 41G 1223 143<684 782>
VStem: 924 328<931 1048 602 1063>
LayerCount: 2
Fore
SplineSet
1663 1425 m 1,0,-1
 1890 1319 l 1,1,-1
 2175 1425 l 1,2,-1
 2234 1337 l 1,3,-1
 1907 1110 l 1,4,-1
 1833 1110 l 1,5,-1
 1571 1339 l 1,6,-1
 1663 1425 l 1,0,-1
276 1352 m 1,7,8
 484 1366 484 1366 655 1366 c 0,9,10
 820 1366 820 1366 930 1340.5 c 128,-1,11
 1040 1315 1040 1315 1113.5 1254.5 c 128,-1,12
 1187 1194 1187 1194 1219 1097.5 c 128,-1,13
 1251 1001 1251 1001 1251 856 c 0,14,15
 1251 703 1251 703 1217 570.5 c 128,-1,16
 1183 438 1183 438 1113.5 330 c 128,-1,17
 1044 222 1044 222 943 145.5 c 128,-1,18
 842 69 842 69 702 27.5 c 128,-1,19
 562 -14 562 -14 393 -14 c 0,20,21
 215 -14 215 -14 14 0 c 1,22,-1
 276 1352 l 1,7,8
377 141 m 1,23,24
 439 131 439 131 496 131 c 0,25,26
 561 131 561 131 615 154.5 c 128,-1,27
 669 178 669 178 708.5 219 c 128,-1,28
 748 260 748 260 780 321.5 c 128,-1,29
 812 383 812 383 834 452 c 128,-1,30
 856 521 856 521 874 608 c 0,31,32
 924 842 924 842 924 981 c 0,33,34
 924 1106 924 1106 872 1164.5 c 128,-1,35
 820 1223 820 1223 702 1223 c 0,36,37
 654 1223 654 1223 586 1212 c 1,38,-1
 377 141 l 1,23,24
1907 793 m 1,39,40
 1761 827 1761 827 1624 827 c 0,41,42
 1504 827 1504 827 1452 756 c 1,43,44
 1399 819 1399 819 1399 913 c 0,45,46
 1399 1003 1399 1003 1461.5 1044 c 128,-1,47
 1524 1085 1524 1085 1626 1085 c 0,48,49
 1693 1085 1693 1085 1842 1060.5 c 128,-1,50
 1991 1036 1991 1036 2054 1036 c 0,51,52
 2126 1036 2126 1036 2167 1057 c 1,53,54
 2212 1015 2212 1015 2212 950 c 0,55,56
 2212 854 2212 854 2118 774 c 1,57,-1
 1585 270 l 1,58,59
 1649 253 1649 253 1734.5 242 c 128,-1,60
 1820 231 1820 231 1876 231 c 0,61,62
 2005 231 2005 231 2068 299 c 1,63,64
 2116 245 2116 245 2116 160 c 0,65,66
 2116 61 2116 61 2049 12 c 128,-1,67
 1982 -37 1982 -37 1872 -37 c 0,68,69
 1802 -37 1802 -37 1665 -9.5 c 128,-1,70
 1528 18 1528 18 1464 18 c 0,71,72
 1395 18 1395 18 1343 -4 c 1,73,74
 1316 14 1316 14 1299 48 c 128,-1,75
 1282 82 1282 82 1282 125 c 0,76,77
 1282 229 1282 229 1382 322 c 1,78,-1
 1907 793 l 1,39,40
EndSplineSet
Validated: 1
Position2: "'cpsp' Capital Spacing lookup 3 subtable" dx=10 dy=0 dh=20 dv=0
EndChar

StartChar: E
Encoding: 69 69 30
Width: 960
Flags: MW
HStem: 0 215<403 596> 584 199<631 736> 1126 225<776 897> 1182 170<580 580>
VStem: 20 1034
LayerCount: 2
Fore
SplineSet
1055 1352 m 1,0,1
 1055 1241 1055 1241 995 1183.5 c 128,-1,2
 935 1126 935 1126 823 1126 c 0,3,4
 714 1126 714 1126 580 1182 c 1,5,-1
 510 782 l 1,6,-1
 877 782 l 1,7,8
 877 684 877 684 823.5 634 c 128,-1,9
 770 584 770 584 674 584 c 0,10,11
 570 584 570 584 479 631 c 1,12,-1
 403 215 l 1,13,-1
 618 215 l 2,14,15
 745 215 745 215 801 238 c 1,16,17
 829 199 829 199 829 135 c 0,18,19
 829 0 829 0 596 0 c 2,20,-1
 20 0 l 1,21,-1
 276 1352 l 1,22,-1
 1055 1352 l 1,0,1
EndSplineSet
Validated: 1
Position2: "'cpsp' Capital Spacing lookup 3 subtable" dx=10 dy=0 dh=20 dv=0
EndChar

StartChar: Eacute
Encoding: 201 201 31
Width: 960
Flags: MW
HStem: 0 215<403 596> 584 199<631 736> 1126 225<776 897> 1182 170<580 580>
VStem: 20 1040
LayerCount: 2
Fore
SplineSet
520 1552 m 1,0,-1
 1010 1747 l 1,1,2
 1061 1713 1061 1713 1061 1647 c 0,3,4
 1061 1476 1061 1476 780 1468 c 1,5,-1
 541 1458 l 1,6,-1
 520 1552 l 1,0,-1
1055 1352 m 1,7,8
 1055 1241 1055 1241 995 1183.5 c 128,-1,9
 935 1126 935 1126 823 1126 c 0,10,11
 714 1126 714 1126 580 1182 c 1,12,-1
 510 782 l 1,13,-1
 877 782 l 1,14,15
 877 684 877 684 823.5 634 c 128,-1,16
 770 584 770 584 674 584 c 0,17,18
 570 584 570 584 479 631 c 1,19,-1
 403 215 l 1,20,-1
 618 215 l 2,21,22
 745 215 745 215 801 238 c 1,23,24
 829 199 829 199 829 135 c 0,25,26
 829 0 829 0 596 0 c 2,27,-1
 20 0 l 1,28,-1
 276 1352 l 1,29,-1
 1055 1352 l 1,7,8
EndSplineSet
Validated: 1
Position2: "'cpsp' Capital Spacing lookup 3 subtable" dx=10 dy=0 dh=20 dv=0
EndChar

StartChar: Ebreve
Encoding: 276 276 32
Width: 960
Flags: MW
HStem: 0 215<403 596> 584 199<631 736> 1126 225<776 897> 1182 170<580 580> 1434 100<676 759 676 810>
VStem: 383 240<1614 1649 1614 1660>
LayerCount: 2
Fore
SplineSet
631 1706 m 1,0,1
 623 1667 623 1667 623 1638 c 0,2,3
 623 1594 623 1594 643 1564 c 128,-1,4
 663 1534 663 1534 711 1534 c 0,5,6
 776 1534 776 1534 814.5 1585 c 128,-1,7
 853 1636 853 1636 868 1706 c 1,8,-1
 1098 1706 l 1,9,10
 1072 1582 1072 1582 968 1508 c 128,-1,11
 864 1434 864 1434 690 1434 c 0,12,13
 540 1434 540 1434 461.5 1493.5 c 128,-1,14
 383 1553 383 1553 383 1651 c 0,15,16
 383 1676 383 1676 389 1706 c 1,17,-1
 631 1706 l 1,0,1
1055 1352 m 1,18,19
 1055 1241 1055 1241 995 1183.5 c 128,-1,20
 935 1126 935 1126 823 1126 c 0,21,22
 714 1126 714 1126 580 1182 c 1,23,-1
 510 782 l 1,24,-1
 877 782 l 1,25,26
 877 684 877 684 823.5 634 c 128,-1,27
 770 584 770 584 674 584 c 0,28,29
 570 584 570 584 479 631 c 1,30,-1
 403 215 l 1,31,-1
 618 215 l 2,32,33
 745 215 745 215 801 238 c 1,34,35
 829 199 829 199 829 135 c 0,36,37
 829 0 829 0 596 0 c 2,38,-1
 20 0 l 1,39,-1
 276 1352 l 1,40,-1
 1055 1352 l 1,18,19
EndSplineSet
Validated: 1
Position2: "'cpsp' Capital Spacing lookup 3 subtable" dx=10 dy=0 dh=20 dv=0
EndChar

StartChar: Ecaron
Encoding: 282 282 33
Width: 960
Flags: MW
HStem: 0 215<403 596> 584 199<631 736> 1126 225<776 897> 1182 170<580 580>
VStem: 20 1042
LayerCount: 2
Fore
SplineSet
492 1733 m 1,0,-1
 719 1626 l 1,1,-1
 1004 1733 l 1,2,-1
 1063 1645 l 1,3,-1
 735 1417 l 1,4,-1
 662 1417 l 1,5,-1
 399 1647 l 1,6,-1
 492 1733 l 1,0,-1
1055 1352 m 1,7,8
 1055 1241 1055 1241 995 1183.5 c 128,-1,9
 935 1126 935 1126 823 1126 c 0,10,11
 714 1126 714 1126 580 1182 c 1,12,-1
 510 782 l 1,13,-1
 877 782 l 1,14,15
 877 684 877 684 823.5 634 c 128,-1,16
 770 584 770 584 674 584 c 0,17,18
 570 584 570 584 479 631 c 1,19,-1
 403 215 l 1,20,-1
 618 215 l 2,21,22
 745 215 745 215 801 238 c 1,23,24
 829 199 829 199 829 135 c 0,25,26
 829 0 829 0 596 0 c 2,27,-1
 20 0 l 1,28,-1
 276 1352 l 1,29,-1
 1055 1352 l 1,7,8
EndSplineSet
Validated: 1
Position2: "'cpsp' Capital Spacing lookup 3 subtable" dx=10 dy=0 dh=20 dv=0
EndChar

StartChar: Ecircumflex
Encoding: 202 202 34
Width: 960
Flags: MW
HStem: 0 215<403 596> 584 199<631 736> 1126 225<776 897> 1182 170<580 580>
VStem: 20 1034
LayerCount: 2
Fore
SplineSet
915 1395 m 1,0,-1
 688 1522 l 1,1,-1
 403 1395 l 1,2,-1
 344 1493 l 1,3,-1
 682 1731 l 1,4,-1
 735 1731 l 1,5,-1
 1008 1491 l 1,6,-1
 915 1395 l 1,0,-1
1055 1352 m 1,7,8
 1055 1241 1055 1241 995 1183.5 c 128,-1,9
 935 1126 935 1126 823 1126 c 0,10,11
 714 1126 714 1126 580 1182 c 1,12,-1
 510 782 l 1,13,-1
 877 782 l 1,14,15
 877 684 877 684 823.5 634 c 128,-1,16
 770 584 770 584 674 584 c 0,17,18
 570 584 570 584 479 631 c 1,19,-1
 403 215 l 1,20,-1
 618 215 l 2,21,22
 745 215 745 215 801 238 c 1,23,24
 829 199 829 199 829 135 c 0,25,26
 829 0 829 0 596 0 c 2,27,-1
 20 0 l 1,28,-1
 276 1352 l 1,29,-1
 1055 1352 l 1,7,8
EndSplineSet
Validated: 1
Position2: "'cpsp' Capital Spacing lookup 3 subtable" dx=10 dy=0 dh=20 dv=0
EndChar

StartChar: Edieresis
Encoding: 203 203 35
Width: 960
Flags: MW
HStem: 0 215<403 596> 584 199<631 736> 1126 225<776 897> 1182 170<580 580> 1452 285<429 525 884 980>
VStem: 295 362<1547 1639> 750 362<1547 1639>
LayerCount: 2
Fore
SplineSet
481 1737 m 0,0,1
 560 1737 560 1737 608.5 1699.5 c 128,-1,2
 657 1662 657 1662 657 1595 c 0,3,4
 657 1526 657 1526 606 1489 c 128,-1,5
 555 1452 555 1452 473 1452 c 0,6,7
 394 1452 394 1452 344.5 1488 c 128,-1,8
 295 1524 295 1524 295 1591 c 0,9,10
 295 1661 295 1661 347.5 1699 c 128,-1,11
 400 1737 400 1737 481 1737 c 0,0,1
936 1737 m 0,12,13
 1015 1737 1015 1737 1063.5 1699.5 c 128,-1,14
 1112 1662 1112 1662 1112 1595 c 0,15,16
 1112 1526 1112 1526 1061 1489 c 128,-1,17
 1010 1452 1010 1452 928 1452 c 0,18,19
 849 1452 849 1452 799.5 1488 c 128,-1,20
 750 1524 750 1524 750 1591 c 0,21,22
 750 1661 750 1661 802.5 1699 c 128,-1,23
 855 1737 855 1737 936 1737 c 0,12,13
1055 1352 m 1,24,25
 1055 1241 1055 1241 995 1183.5 c 128,-1,26
 935 1126 935 1126 823 1126 c 0,27,28
 714 1126 714 1126 580 1182 c 1,29,-1
 510 782 l 1,30,-1
 877 782 l 1,31,32
 877 684 877 684 823.5 634 c 128,-1,33
 770 584 770 584 674 584 c 0,34,35
 570 584 570 584 479 631 c 1,36,-1
 403 215 l 1,37,-1
 618 215 l 2,38,39
 745 215 745 215 801 238 c 1,40,41
 829 199 829 199 829 135 c 0,42,43
 829 0 829 0 596 0 c 2,44,-1
 20 0 l 1,45,-1
 276 1352 l 1,46,-1
 1055 1352 l 1,24,25
EndSplineSet
Validated: 1
Position2: "'cpsp' Capital Spacing lookup 3 subtable" dx=10 dy=0 dh=20 dv=0
EndChar

StartChar: Edotaccent
Encoding: 278 278 36
Width: 960
Flags: MW
HStem: 0 215<403 596> 584 199<631 736> 1126 225<776 897> 1182 170<580 580> 1452 285<648 744>
VStem: 514 362<1547 1639>
LayerCount: 2
Fore
SplineSet
700 1737 m 0,0,1
 779 1737 779 1737 828 1699.5 c 128,-1,2
 877 1662 877 1662 877 1595 c 0,3,4
 877 1526 877 1526 825.5 1489 c 128,-1,5
 774 1452 774 1452 692 1452 c 0,6,7
 613 1452 613 1452 563.5 1488 c 128,-1,8
 514 1524 514 1524 514 1591 c 0,9,10
 514 1661 514 1661 566.5 1699 c 128,-1,11
 619 1737 619 1737 700 1737 c 0,0,1
1055 1352 m 1,12,13
 1055 1241 1055 1241 995 1183.5 c 128,-1,14
 935 1126 935 1126 823 1126 c 0,15,16
 714 1126 714 1126 580 1182 c 1,17,-1
 510 782 l 1,18,-1
 877 782 l 1,19,20
 877 684 877 684 823.5 634 c 128,-1,21
 770 584 770 584 674 584 c 0,22,23
 570 584 570 584 479 631 c 1,24,-1
 403 215 l 1,25,-1
 618 215 l 2,26,27
 745 215 745 215 801 238 c 1,28,29
 829 199 829 199 829 135 c 0,30,31
 829 0 829 0 596 0 c 2,32,-1
 20 0 l 1,33,-1
 276 1352 l 1,34,-1
 1055 1352 l 1,12,13
EndSplineSet
Validated: 1
Position2: "'cpsp' Capital Spacing lookup 3 subtable" dx=10 dy=0 dh=20 dv=0
EndChar

StartChar: Edotbelow
Encoding: 7864 7864 37
Width: 960
Flags: MW
HStem: -383 285<343 439> 0 215<403 596> 584 199<631 736> 1126 225<776 897> 1182 170<580 580>
VStem: 209 365<-288 -196>
LayerCount: 2
Fore
SplineSet
1055 1352 m 1,0,1
 1055 1241 1055 1241 995 1183.5 c 128,-1,2
 935 1126 935 1126 823 1126 c 0,3,4
 714 1126 714 1126 580 1182 c 1,5,-1
 510 782 l 1,6,-1
 877 782 l 1,7,8
 877 684 877 684 823.5 634 c 128,-1,9
 770 584 770 584 674 584 c 0,10,11
 570 584 570 584 479 631 c 1,12,-1
 403 215 l 1,13,-1
 618 215 l 2,14,15
 745 215 745 215 801 238 c 1,16,17
 829 199 829 199 829 135 c 0,18,19
 829 0 829 0 596 0 c 2,20,-1
 20 0 l 1,21,-1
 276 1352 l 1,22,-1
 1055 1352 l 1,0,1
395 -98 m 0,23,24
 474 -98 474 -98 523.5 -135.5 c 128,-1,25
 573 -173 573 -173 573 -240 c 0,26,27
 573 -309 573 -309 521 -346 c 128,-1,28
 469 -383 469 -383 387 -383 c 0,29,30
 308 -383 308 -383 258.5 -347 c 128,-1,31
 209 -311 209 -311 209 -244 c 0,32,33
 209 -174 209 -174 261.5 -136 c 128,-1,34
 314 -98 314 -98 395 -98 c 0,23,24
EndSplineSet
Validated: 1
Position2: "'cpsp' Capital Spacing lookup 3 subtable" dx=10 dy=0 dh=20 dv=0
EndChar

StartChar: Egrave
Encoding: 200 200 38
Width: 960
Flags: MW
HStem: 0 215<403 596> 584 199<631 736> 1126 225<776 897> 1182 170<580 580>
VStem: 20 1034
LayerCount: 2
Fore
SplineSet
872 1458 m 1,0,-1
 633 1468 l 2,1,2
 350 1480 350 1480 350 1647 c 0,3,4
 350 1710 350 1710 401 1749 c 1,5,-1
 893 1552 l 1,6,-1
 872 1458 l 1,0,-1
1055 1352 m 1,7,8
 1055 1241 1055 1241 995 1183.5 c 128,-1,9
 935 1126 935 1126 823 1126 c 0,10,11
 714 1126 714 1126 580 1182 c 1,12,-1
 510 782 l 1,13,-1
 877 782 l 1,14,15
 877 684 877 684 823.5 634 c 128,-1,16
 770 584 770 584 674 584 c 0,17,18
 570 584 570 584 479 631 c 1,19,-1
 403 215 l 1,20,-1
 618 215 l 2,21,22
 745 215 745 215 801 238 c 1,23,24
 829 199 829 199 829 135 c 0,25,26
 829 0 829 0 596 0 c 2,27,-1
 20 0 l 1,28,-1
 276 1352 l 1,29,-1
 1055 1352 l 1,7,8
EndSplineSet
Validated: 1
Position2: "'cpsp' Capital Spacing lookup 3 subtable" dx=10 dy=0 dh=20 dv=0
EndChar

StartChar: Emacron
Encoding: 274 274 39
Width: 960
Flags: MW
HStem: 0 215<403 596> 584 199<631 736> 1126 225<776 897> 1182 170<580 580> 1509 178<524 854 397 993>
VStem: 20 1034
LayerCount: 2
Fore
SplineSet
993 1688 m 1,0,1
 1001 1660 1001 1660 1001 1634 c 0,2,3
 1001 1578 1001 1578 963 1543.5 c 128,-1,4
 925 1509 925 1509 854 1509 c 2,5,-1
 397 1509 l 1,6,7
 393 1527 393 1527 393 1563 c 0,8,9
 394 1620 394 1620 430.5 1654 c 128,-1,10
 467 1688 467 1688 524 1688 c 2,11,-1
 993 1688 l 1,0,1
1055 1352 m 1,12,13
 1055 1241 1055 1241 995 1183.5 c 128,-1,14
 935 1126 935 1126 823 1126 c 0,15,16
 714 1126 714 1126 580 1182 c 1,17,-1
 510 782 l 1,18,-1
 877 782 l 1,19,20
 877 684 877 684 823.5 634 c 128,-1,21
 770 584 770 584 674 584 c 0,22,23
 570 584 570 584 479 631 c 1,24,-1
 403 215 l 1,25,-1
 618 215 l 2,26,27
 745 215 745 215 801 238 c 1,28,29
 829 199 829 199 829 135 c 0,30,31
 829 0 829 0 596 0 c 2,32,-1
 20 0 l 1,33,-1
 276 1352 l 1,34,-1
 1055 1352 l 1,12,13
EndSplineSet
Validated: 1
Position2: "'cpsp' Capital Spacing lookup 3 subtable" dx=10 dy=0 dh=20 dv=0
EndChar

StartChar: Eogonek
Encoding: 280 280 40
Width: 960
Flags: MW
HStem: -528 150<624 678> 0 215<403 563> 584 199<631 736> 1126 225<776 897> 1182 170<580 580>
VStem: 365 188<-305 -233>
LayerCount: 2
Fore
SplineSet
1055 1352 m 1,0,1
 1055 1241 1055 1241 995 1183.5 c 128,-1,2
 935 1126 935 1126 823 1126 c 0,3,4
 714 1126 714 1126 580 1182 c 1,5,-1
 510 782 l 1,6,-1
 877 782 l 1,7,8
 877 684 877 684 823.5 634 c 128,-1,9
 770 584 770 584 674 584 c 0,10,11
 570 584 570 584 479 631 c 1,12,-1
 403 215 l 1,13,-1
 618 215 l 2,14,15
 745 215 745 215 801 238 c 1,16,17
 829 199 829 199 829 135 c 0,18,19
 829 51 829 51 745 20 c 1,20,21
 660 -33 660 -33 606.5 -110 c 128,-1,22
 553 -187 553 -187 553 -266 c 0,23,24
 553 -325 553 -325 579 -352 c 128,-1,25
 605 -379 605 -379 662 -379 c 0,26,27
 738 -379 738 -379 778 -328 c 1,28,29
 813 -363 813 -363 813 -406 c 0,30,31
 813 -458 813 -458 759.5 -493 c 128,-1,32
 706 -528 706 -528 616 -528 c 0,33,34
 499 -528 499 -528 432 -470 c 128,-1,35
 365 -412 365 -412 365 -303 c 0,36,37
 365 -204 365 -204 420 -126.5 c 128,-1,38
 475 -49 475 -49 563 0 c 1,39,-1
 20 0 l 1,40,-1
 276 1352 l 1,41,-1
 1055 1352 l 1,0,1
EndSplineSet
Validated: 1
Position2: "'cpsp' Capital Spacing lookup 3 subtable" dx=10 dy=0 dh=20 dv=0
EndChar

StartChar: Etilde
Encoding: 7868 7868 41
Width: 960
Flags: MW
HStem: 0 215<403 596> 584 199<631 736> 1126 225<776 897> 1182 170<580 580> 1483 197<871 942 871 943> 1518 197<482 551>
VStem: 20 1047
LayerCount: 2
Fore
SplineSet
1030 1714 m 1,0,1
 1067 1669 1067 1669 1067 1620 c 0,2,3
 1067 1554 1067 1554 1019.5 1518.5 c 128,-1,4
 972 1483 972 1483 889 1483 c 0,5,6
 843 1483 843 1483 696.5 1500.5 c 128,-1,7
 550 1518 550 1518 510 1518 c 0,8,9
 432 1518 432 1518 385 1485 c 1,10,11
 346 1537 346 1537 346 1589 c 0,12,13
 346 1649 346 1649 393.5 1681.5 c 128,-1,14
 441 1714 441 1714 530 1714 c 0,15,16
 582 1714 582 1714 727.5 1696.5 c 128,-1,17
 873 1679 873 1679 918 1679 c 0,18,19
 1002 1679 1002 1679 1030 1714 c 1,0,1
1055 1352 m 1,20,21
 1055 1241 1055 1241 995 1183.5 c 128,-1,22
 935 1126 935 1126 823 1126 c 0,23,24
 714 1126 714 1126 580 1182 c 1,25,-1
 510 782 l 1,26,-1
 877 782 l 1,27,28
 877 684 877 684 823.5 634 c 128,-1,29
 770 584 770 584 674 584 c 0,30,31
 570 584 570 584 479 631 c 1,32,-1
 403 215 l 1,33,-1
 618 215 l 2,34,35
 745 215 745 215 801 238 c 1,36,37
 829 199 829 199 829 135 c 0,38,39
 829 0 829 0 596 0 c 2,40,-1
 20 0 l 1,41,-1
 276 1352 l 1,42,-1
 1055 1352 l 1,20,21
EndSplineSet
Validated: 1
Position2: "'cpsp' Capital Spacing lookup 3 subtable" dx=10 dy=0 dh=20 dv=0
EndChar

StartChar: F
Encoding: 70 70 42
Width: 964
Flags: MW
HStem: 584 207<642 753> 1122 229<797 916> 1178 174<580 580>
VStem: 20 1049
LayerCount: 2
Fore
SplineSet
1069 1352 m 1,0,1
 1069 1122 1069 1122 840 1122 c 0,2,3
 706 1122 706 1122 580 1178 c 1,4,-1
 512 791 l 1,5,-1
 893 791 l 1,6,7
 893 692 893 692 839.5 638 c 128,-1,8
 786 584 786 584 684 584 c 0,9,10
 584 584 584 584 479 633 c 1,11,-1
 367 0 l 1,12,-1
 20 0 l 1,13,-1
 276 1352 l 1,14,-1
 1069 1352 l 1,0,1
EndSplineSet
Validated: 1
Position2: "'cpsp' Capital Spacing lookup 3 subtable" dx=10 dy=0 dh=20 dv=0
EndChar

StartChar: G
Encoding: 71 71 43
Width: 1196
Flags: MW
HStem: -41 221<313 636> 1247 145<642 810>
VStem: 49 348<425 647 425 714> 770 260 887 305<1062 1122>
LayerCount: 2
Fore
SplineSet
1167 682 m 1,0,1
 1101 536 1101 536 1067 354 c 128,-1,2
 1033 172 1033 172 1030 -6 c 1,3,4
 992 -41 992 -41 932 -41 c 0,5,6
 861 -41 861 -41 818 -7 c 128,-1,7
 775 27 775 27 770 76 c 1,8,9
 712 24 712 24 626.5 -8.5 c 128,-1,10
 541 -41 541 -41 449 -41 c 0,11,12
 251 -41 251 -41 150 98 c 128,-1,13
 49 237 49 237 49 483 c 0,14,15
 49 623 49 623 80 755 c 128,-1,16
 111 887 111 887 174.5 1002.5 c 128,-1,17
 238 1118 238 1118 328 1205 c 128,-1,18
 418 1292 418 1292 543.5 1342.5 c 128,-1,19
 669 1393 669 1393 815 1393 c 0,20,21
 920 1393 920 1393 1002 1368 c 128,-1,22
 1084 1343 1084 1343 1138 1283 c 128,-1,23
 1192 1223 1192 1223 1192 1135 c 0,24,25
 1192 1030 1192 1030 1125.5 967.5 c 128,-1,26
 1059 905 1059 905 963 905 c 0,27,28
 900 905 900 905 864 928 c 1,29,30
 887 1002 887 1002 887 1083 c 0,31,32
 887 1151 887 1151 857.5 1199 c 128,-1,33
 828 1247 828 1247 762 1247 c 0,34,35
 693 1247 693 1247 632 1197 c 128,-1,36
 571 1147 571 1147 529 1067.5 c 128,-1,37
 487 988 487 988 456.5 889 c 128,-1,38
 426 790 426 790 411.5 691.5 c 128,-1,39
 397 593 397 593 397 506 c 0,40,41
 397 180 397 180 612 180 c 0,42,43
 718 180 718 180 766 223 c 1,44,-1
 831 645 l 1,45,-1
 1167 682 l 1,0,1
EndSplineSet
Validated: 1
Position2: "'cpsp' Capital Spacing lookup 3 subtable" dx=10 dy=0 dh=20 dv=0
EndChar

StartChar: Gbreve
Encoding: 286 286 44
Width: 1196
Flags: MW
HStem: -41 221<313 636> 1247 145<642 810> 1434 100<819 902 819 953>
VStem: 49 348<425 647 425 714> 526 240<1614 1649> 770 260 887 305<1062 1122>
LayerCount: 2
Fore
SplineSet
774 1706 m 1,0,1
 766 1667 766 1667 766 1638 c 0,2,3
 766 1594 766 1594 786 1564 c 128,-1,4
 806 1534 806 1534 854 1534 c 0,5,6
 919 1534 919 1534 958 1585.5 c 128,-1,7
 997 1637 997 1637 1012 1706 c 1,8,-1
 1241 1706 l 1,9,10
 1215 1582 1215 1582 1111.5 1508 c 128,-1,11
 1008 1434 1008 1434 834 1434 c 0,12,13
 684 1434 684 1434 605 1493.5 c 128,-1,14
 526 1553 526 1553 526 1651 c 0,15,16
 526 1676 526 1676 532 1706 c 1,17,-1
 774 1706 l 1,0,1
1167 682 m 1,18,19
 1101 536 1101 536 1067 354 c 128,-1,20
 1033 172 1033 172 1030 -6 c 1,21,22
 992 -41 992 -41 932 -41 c 0,23,24
 861 -41 861 -41 818 -7 c 128,-1,25
 775 27 775 27 770 76 c 1,26,27
 712 24 712 24 626.5 -8.5 c 128,-1,28
 541 -41 541 -41 449 -41 c 0,29,30
 251 -41 251 -41 150 98 c 128,-1,31
 49 237 49 237 49 483 c 0,32,33
 49 623 49 623 80 755 c 128,-1,34
 111 887 111 887 174.5 1002.5 c 128,-1,35
 238 1118 238 1118 328 1205 c 128,-1,36
 418 1292 418 1292 543.5 1342.5 c 128,-1,37
 669 1393 669 1393 815 1393 c 0,38,39
 920 1393 920 1393 1002 1368 c 128,-1,40
 1084 1343 1084 1343 1138 1283 c 128,-1,41
 1192 1223 1192 1223 1192 1135 c 0,42,43
 1192 1030 1192 1030 1125.5 967.5 c 128,-1,44
 1059 905 1059 905 963 905 c 0,45,46
 900 905 900 905 864 928 c 1,47,48
 887 1002 887 1002 887 1083 c 0,49,50
 887 1151 887 1151 857.5 1199 c 128,-1,51
 828 1247 828 1247 762 1247 c 0,52,53
 693 1247 693 1247 632 1197 c 128,-1,54
 571 1147 571 1147 529 1067.5 c 128,-1,55
 487 988 487 988 456.5 889 c 128,-1,56
 426 790 426 790 411.5 691.5 c 128,-1,57
 397 593 397 593 397 506 c 0,58,59
 397 180 397 180 612 180 c 0,60,61
 718 180 718 180 766 223 c 1,62,-1
 831 645 l 1,63,-1
 1167 682 l 1,18,19
EndSplineSet
Validated: 1
Position2: "'cpsp' Capital Spacing lookup 3 subtable" dx=10 dy=0 dh=20 dv=0
EndChar

StartChar: Gcircumflex
Encoding: 284 284 45
Width: 1196
Flags: MW
HStem: -41 221<313 636> 1247 145<642 810>
VStem: 49 348<425 647 425 714> 770 260 887 305<1062 1122>
LayerCount: 2
Fore
SplineSet
1059 1395 m 1,0,-1
 831 1522 l 1,1,-1
 547 1395 l 1,2,-1
 487 1493 l 1,3,-1
 825 1731 l 1,4,-1
 879 1731 l 1,5,-1
 1151 1491 l 1,6,-1
 1059 1395 l 1,0,-1
1167 682 m 1,7,8
 1101 536 1101 536 1067 354 c 128,-1,9
 1033 172 1033 172 1030 -6 c 1,10,11
 992 -41 992 -41 932 -41 c 0,12,13
 861 -41 861 -41 818 -7 c 128,-1,14
 775 27 775 27 770 76 c 1,15,16
 712 24 712 24 626.5 -8.5 c 128,-1,17
 541 -41 541 -41 449 -41 c 0,18,19
 251 -41 251 -41 150 98 c 128,-1,20
 49 237 49 237 49 483 c 0,21,22
 49 623 49 623 80 755 c 128,-1,23
 111 887 111 887 174.5 1002.5 c 128,-1,24
 238 1118 238 1118 328 1205 c 128,-1,25
 418 1292 418 1292 543.5 1342.5 c 128,-1,26
 669 1393 669 1393 815 1393 c 0,27,28
 920 1393 920 1393 1002 1368 c 128,-1,29
 1084 1343 1084 1343 1138 1283 c 128,-1,30
 1192 1223 1192 1223 1192 1135 c 0,31,32
 1192 1030 1192 1030 1125.5 967.5 c 128,-1,33
 1059 905 1059 905 963 905 c 0,34,35
 900 905 900 905 864 928 c 1,36,37
 887 1002 887 1002 887 1083 c 0,38,39
 887 1151 887 1151 857.5 1199 c 128,-1,40
 828 1247 828 1247 762 1247 c 0,41,42
 693 1247 693 1247 632 1197 c 128,-1,43
 571 1147 571 1147 529 1067.5 c 128,-1,44
 487 988 487 988 456.5 889 c 128,-1,45
 426 790 426 790 411.5 691.5 c 128,-1,46
 397 593 397 593 397 506 c 0,47,48
 397 180 397 180 612 180 c 0,49,50
 718 180 718 180 766 223 c 1,51,-1
 831 645 l 1,52,-1
 1167 682 l 1,7,8
EndSplineSet
Validated: 1
Position2: "'cpsp' Capital Spacing lookup 3 subtable" dx=10 dy=0 dh=20 dv=0
EndChar

StartChar: Gcommaaccent
Encoding: 290 290 46
Width: 1196
Flags: MW
HStem: -41 221<313 636> 1247 145<642 810>
VStem: 49 348<425 647 425 714> 426 242<-275 -204> 770 260 887 305<1062 1122>
LayerCount: 2
Fore
SplineSet
1167 682 m 1,0,1
 1101 536 1101 536 1067 354 c 128,-1,2
 1033 172 1033 172 1030 -6 c 1,3,4
 992 -41 992 -41 932 -41 c 0,5,6
 861 -41 861 -41 818 -7 c 128,-1,7
 775 27 775 27 770 76 c 1,8,9
 712 24 712 24 626.5 -8.5 c 128,-1,10
 541 -41 541 -41 449 -41 c 0,11,12
 251 -41 251 -41 150 98 c 128,-1,13
 49 237 49 237 49 483 c 0,14,15
 49 623 49 623 80 755 c 128,-1,16
 111 887 111 887 174.5 1002.5 c 128,-1,17
 238 1118 238 1118 328 1205 c 128,-1,18
 418 1292 418 1292 543.5 1342.5 c 128,-1,19
 669 1393 669 1393 815 1393 c 0,20,21
 920 1393 920 1393 1002 1368 c 128,-1,22
 1084 1343 1084 1343 1138 1283 c 128,-1,23
 1192 1223 1192 1223 1192 1135 c 0,24,25
 1192 1030 1192 1030 1125.5 967.5 c 128,-1,26
 1059 905 1059 905 963 905 c 0,27,28
 900 905 900 905 864 928 c 1,29,30
 887 1002 887 1002 887 1083 c 0,31,32
 887 1151 887 1151 857.5 1199 c 128,-1,33
 828 1247 828 1247 762 1247 c 0,34,35
 693 1247 693 1247 632 1197 c 128,-1,36
 571 1147 571 1147 529 1067.5 c 128,-1,37
 487 988 487 988 456.5 889 c 128,-1,38
 426 790 426 790 411.5 691.5 c 128,-1,39
 397 593 397 593 397 506 c 0,40,41
 397 180 397 180 612 180 c 0,42,43
 718 180 718 180 766 223 c 1,44,-1
 831 645 l 1,45,-1
 1167 682 l 1,0,1
668 -229 m 0,46,47
 668 -304 668 -304 621 -370 c 128,-1,48
 574 -436 574 -436 506.5 -472 c 128,-1,49
 439 -508 439 -508 375 -508 c 0,50,51
 327 -508 327 -508 305 -492 c 1,52,53
 367 -418 367 -418 396.5 -357.5 c 128,-1,54
 426 -297 426 -297 426 -219 c 0,55,56
 426 -169 426 -169 410 -129 c 1,57,58
 458 -102 458 -102 526 -102 c 0,59,60
 590 -102 590 -102 629 -136 c 128,-1,61
 668 -170 668 -170 668 -229 c 0,46,47
EndSplineSet
Validated: 1
Position2: "'cpsp' Capital Spacing lookup 3 subtable" dx=10 dy=0 dh=20 dv=0
EndChar

StartChar: Gdotaccent
Encoding: 288 288 47
Width: 1196
Flags: MW
HStem: -41 221<313 636> 1247 145<642 810> 1452 285<792 888>
VStem: 49 348<425 647 425 714> 657 362<1547 1639> 770 260 887 305<1062 1122>
LayerCount: 2
Fore
SplineSet
844 1737 m 0,0,1
 923 1737 923 1737 971.5 1699.5 c 128,-1,2
 1020 1662 1020 1662 1020 1595 c 0,3,4
 1020 1526 1020 1526 969 1489 c 128,-1,5
 918 1452 918 1452 836 1452 c 0,6,7
 756 1452 756 1452 706.5 1488 c 128,-1,8
 657 1524 657 1524 657 1591 c 0,9,10
 657 1660 657 1660 709.5 1698.5 c 128,-1,11
 762 1737 762 1737 844 1737 c 0,0,1
1167 682 m 1,12,13
 1101 536 1101 536 1067 354 c 128,-1,14
 1033 172 1033 172 1030 -6 c 1,15,16
 992 -41 992 -41 932 -41 c 0,17,18
 861 -41 861 -41 818 -7 c 128,-1,19
 775 27 775 27 770 76 c 1,20,21
 712 24 712 24 626.5 -8.5 c 128,-1,22
 541 -41 541 -41 449 -41 c 0,23,24
 251 -41 251 -41 150 98 c 128,-1,25
 49 237 49 237 49 483 c 0,26,27
 49 623 49 623 80 755 c 128,-1,28
 111 887 111 887 174.5 1002.5 c 128,-1,29
 238 1118 238 1118 328 1205 c 128,-1,30
 418 1292 418 1292 543.5 1342.5 c 128,-1,31
 669 1393 669 1393 815 1393 c 0,32,33
 920 1393 920 1393 1002 1368 c 128,-1,34
 1084 1343 1084 1343 1138 1283 c 128,-1,35
 1192 1223 1192 1223 1192 1135 c 0,36,37
 1192 1030 1192 1030 1125.5 967.5 c 128,-1,38
 1059 905 1059 905 963 905 c 0,39,40
 900 905 900 905 864 928 c 1,41,42
 887 1002 887 1002 887 1083 c 0,43,44
 887 1151 887 1151 857.5 1199 c 128,-1,45
 828 1247 828 1247 762 1247 c 0,46,47
 693 1247 693 1247 632 1197 c 128,-1,48
 571 1147 571 1147 529 1067.5 c 128,-1,49
 487 988 487 988 456.5 889 c 128,-1,50
 426 790 426 790 411.5 691.5 c 128,-1,51
 397 593 397 593 397 506 c 0,52,53
 397 180 397 180 612 180 c 0,54,55
 718 180 718 180 766 223 c 1,56,-1
 831 645 l 1,57,-1
 1167 682 l 1,12,13
EndSplineSet
Validated: 1
Position2: "'cpsp' Capital Spacing lookup 3 subtable" dx=10 dy=0 dh=20 dv=0
EndChar

StartChar: H
Encoding: 72 72 48
Width: 1325
Flags: MW
HStem: 590 154<494 840 463 868> 1311 41G<276 612 612 612 981 1319 1319 1319>
VStem: 770 330<109 147 109 147>
LayerCount: 2
Fore
SplineSet
1114 260 m 1,0,1
 1100 192 1100 192 1100 129 c 0,2,3
 1100 62 1100 62 1124 18 c 1,4,5
 1045 -41 1045 -41 940 -41 c 0,6,7
 770 -41 770 -41 770 129 c 0,8,9
 770 171 770 171 793 309 c 2,10,-1
 840 590 l 1,11,-1
 463 590 l 1,12,-1
 348 0 l 1,13,-1
 16 0 l 1,14,-1
 276 1352 l 1,15,-1
 612 1352 l 1,16,-1
 494 743 l 1,17,-1
 868 743 l 1,18,-1
 981 1352 l 1,19,-1
 1319 1352 l 1,20,-1
 1114 260 l 1,0,1
EndSplineSet
Validated: 1
Position2: "'cpsp' Capital Spacing lookup 3 subtable" dx=10 dy=0 dh=20 dv=0
EndChar

StartChar: Hbar
Encoding: 294 294 49
Width: 1325
Flags: MW
HStem: 590 154<494 840 463 868> 948 178<76 233 76 233 567 905> 948 403<76 612 76 612 532 532 532 612 276 905 1243 1257 1243 1243>
VStem: 770 330<109 147 109 147>
LayerCount: 2
Fore
SplineSet
1399 1126 m 1,0,1
 1405 1102 1405 1102 1405 1073 c 0,2,3
 1405 1017 1405 1017 1367 982.5 c 128,-1,4
 1329 948 1329 948 1257 948 c 2,5,-1
 1243 948 l 1,6,-1
 1114 260 l 1,7,8
 1100 192 1100 192 1100 129 c 0,9,10
 1100 62 1100 62 1124 18 c 1,11,12
 1045 -41 1045 -41 940 -41 c 0,13,14
 770 -41 770 -41 770 129 c 0,15,16
 770 171 770 171 793 309 c 2,17,-1
 840 590 l 1,18,-1
 463 590 l 1,19,-1
 348 0 l 1,20,-1
 16 0 l 1,21,-1
 199 948 l 1,22,-1
 76 948 l 1,23,24
 70 964 70 964 70 999 c 0,25,26
 71 1057 71 1057 107.5 1091.5 c 128,-1,27
 144 1126 144 1126 203 1126 c 2,28,-1
 233 1126 l 1,29,-1
 276 1352 l 1,30,-1
 612 1352 l 1,31,-1
 567 1126 l 1,32,-1
 940 1126 l 1,33,-1
 981 1352 l 1,34,-1
 1319 1352 l 1,35,-1
 1276 1126 l 1,36,-1
 1399 1126 l 1,0,1
905 948 m 1,37,-1
 532 948 l 1,38,-1
 494 743 l 1,39,-1
 868 743 l 1,40,-1
 905 948 l 1,37,-1
EndSplineSet
Validated: 1
Position2: "'cpsp' Capital Spacing lookup 3 subtable" dx=10 dy=0 dh=20 dv=0
EndChar

StartChar: Hcircumflex
Encoding: 292 292 50
Width: 1325
Flags: MW
HStem: 590 154<494 840 463 868> 1311 41G<276 612 612 612 981 1319 1319 1319>
VStem: 770 330<109 147 109 147>
LayerCount: 2
Fore
SplineSet
1038 1395 m 1,0,-1
 811 1522 l 1,1,-1
 526 1395 l 1,2,-1
 467 1493 l 1,3,-1
 805 1731 l 1,4,-1
 858 1731 l 1,5,-1
 1130 1491 l 1,6,-1
 1038 1395 l 1,0,-1
1114 260 m 1,7,8
 1100 192 1100 192 1100 129 c 0,9,10
 1100 62 1100 62 1124 18 c 1,11,12
 1045 -41 1045 -41 940 -41 c 0,13,14
 770 -41 770 -41 770 129 c 0,15,16
 770 171 770 171 793 309 c 2,17,-1
 840 590 l 1,18,-1
 463 590 l 1,19,-1
 348 0 l 1,20,-1
 16 0 l 1,21,-1
 276 1352 l 1,22,-1
 612 1352 l 1,23,-1
 494 743 l 1,24,-1
 868 743 l 1,25,-1
 981 1352 l 1,26,-1
 1319 1352 l 1,27,-1
 1114 260 l 1,7,8
EndSplineSet
Validated: 1
Position2: "'cpsp' Capital Spacing lookup 3 subtable" dx=10 dy=0 dh=20 dv=0
EndChar

StartChar: Hdotbelow
Encoding: 7716 7716 51
Width: 1325
Flags: MW
HStem: -383 285<476 572> 590 154<494 840 463 868> 1311 41G<276 612 612 612 981 1319 1319 1319>
VStem: 342 365<-288 -196> 770 330<109 147 109 147>
LayerCount: 2
Fore
SplineSet
1114 260 m 1,0,1
 1100 192 1100 192 1100 129 c 0,2,3
 1100 62 1100 62 1124 18 c 1,4,5
 1045 -41 1045 -41 940 -41 c 0,6,7
 770 -41 770 -41 770 129 c 0,8,9
 770 171 770 171 793 309 c 2,10,-1
 840 590 l 1,11,-1
 463 590 l 1,12,-1
 348 0 l 1,13,-1
 16 0 l 1,14,-1
 276 1352 l 1,15,-1
 612 1352 l 1,16,-1
 494 743 l 1,17,-1
 868 743 l 1,18,-1
 981 1352 l 1,19,-1
 1319 1352 l 1,20,-1
 1114 260 l 1,0,1
528 -98 m 0,21,22
 607 -98 607 -98 657 -135.5 c 128,-1,23
 707 -173 707 -173 707 -240 c 0,24,25
 707 -309 707 -309 654.5 -346 c 128,-1,26
 602 -383 602 -383 520 -383 c 0,27,28
 441 -383 441 -383 391.5 -347 c 128,-1,29
 342 -311 342 -311 342 -244 c 0,30,31
 342 -174 342 -174 394.5 -136 c 128,-1,32
 447 -98 447 -98 528 -98 c 0,21,22
EndSplineSet
Validated: 1
Position2: "'cpsp' Capital Spacing lookup 3 subtable" dx=10 dy=0 dh=20 dv=0
EndChar

StartChar: I
Encoding: 73 73 52
Width: 641
Flags: MW
HStem: 1311 41G<276 623 623 623>
VStem: 16 606
LayerCount: 2
Fore
SplineSet
358 0 m 1,0,-1
 16 0 l 1,1,-1
 276 1352 l 1,2,-1
 623 1352 l 1,3,-1
 358 0 l 1,0,-1
EndSplineSet
Validated: 1
Position2: "'cpsp' Capital Spacing lookup 3 subtable" dx=10 dy=0 dh=20 dv=0
EndChar

StartChar: IJ
Encoding: 306 306 53
Width: 1280
Flags: MW
HStem: 1311 41G<276 623 623 623 920 1262 1262 1262>
VStem: 16 1245
LayerCount: 2
Fore
SplineSet
16 0 m 1,0,-1
 276 1352 l 1,1,-1
 623 1352 l 1,2,-1
 358 0 l 1,3,-1
 16 0 l 1,0,-1
1044 231 m 2,4,5
 986 -71 986 -71 893.5 -214.5 c 128,-1,6
 801 -358 801 -358 643 -358 c 0,7,8
 575 -358 575 -358 526 -334.5 c 128,-1,9
 477 -311 477 -311 457 -266 c 1,10,11
 556 -226 556 -226 605.5 -124 c 128,-1,12
 655 -22 655 -22 700 211 c 2,13,-1
 920 1352 l 1,14,-1
 1262 1352 l 1,15,-1
 1044 231 l 2,4,5
EndSplineSet
Validated: 1
Position2: "'cpsp' Capital Spacing lookup 3 subtable" dx=10 dy=0 dh=20 dv=0
EndChar

StartChar: Iacute
Encoding: 205 205 54
Width: 641
Flags: MW
HStem: 1311 41G<276 623 623 623>
VStem: 16 838
LayerCount: 2
Fore
SplineSet
313 1552 m 1,0,-1
 803 1747 l 1,1,2
 854 1713 854 1713 854 1647 c 0,3,4
 854 1476 854 1476 573 1468 c 1,5,-1
 334 1458 l 1,6,-1
 313 1552 l 1,0,-1
16 0 m 1,7,-1
 276 1352 l 1,8,-1
 623 1352 l 1,9,-1
 358 0 l 1,10,-1
 16 0 l 1,7,-1
EndSplineSet
Validated: 1
Position2: "'cpsp' Capital Spacing lookup 3 subtable" dx=10 dy=0 dh=20 dv=0
EndChar

StartChar: Ibreve
Encoding: 300 300 55
Width: 641
Flags: MW
HStem: 1311 41G<276 623 623 623> 1434 100<469 552 469 603>
VStem: 176 240<1614 1649 1614 1660>
LayerCount: 2
Fore
SplineSet
424 1706 m 1,0,1
 416 1667 416 1667 416 1638 c 0,2,3
 416 1594 416 1594 436 1564 c 128,-1,4
 456 1534 456 1534 504 1534 c 0,5,6
 569 1534 569 1534 608 1585.5 c 128,-1,7
 647 1637 647 1637 662 1706 c 1,8,-1
 891 1706 l 1,9,10
 865 1582 865 1582 761 1508 c 128,-1,11
 657 1434 657 1434 483 1434 c 0,12,13
 333 1434 333 1434 254.5 1493.5 c 128,-1,14
 176 1553 176 1553 176 1651 c 0,15,16
 176 1676 176 1676 182 1706 c 1,17,-1
 424 1706 l 1,0,1
16 0 m 1,18,-1
 276 1352 l 1,19,-1
 623 1352 l 1,20,-1
 358 0 l 1,21,-1
 16 0 l 1,18,-1
EndSplineSet
Validated: 1
Position2: "'cpsp' Capital Spacing lookup 3 subtable" dx=10 dy=0 dh=20 dv=0
EndChar

StartChar: Icircumflex
Encoding: 206 206 56
Width: 641
Flags: MW
HStem: 1311 41G<276 623 623 623>
VStem: 16 784
LayerCount: 2
Fore
SplineSet
709 1395 m 1,0,-1
 481 1522 l 1,1,-1
 197 1395 l 1,2,-1
 137 1493 l 1,3,-1
 475 1731 l 1,4,-1
 528 1731 l 1,5,-1
 801 1491 l 1,6,-1
 709 1395 l 1,0,-1
16 0 m 1,7,-1
 276 1352 l 1,8,-1
 623 1352 l 1,9,-1
 358 0 l 1,10,-1
 16 0 l 1,7,-1
EndSplineSet
Validated: 1
Position2: "'cpsp' Capital Spacing lookup 3 subtable" dx=10 dy=0 dh=20 dv=0
EndChar

StartChar: Idieresis
Encoding: 207 207 57
Width: 641
Flags: MW
HStem: 1311 41G<276 623 623 623> 1452 285<222 318 677 773>
VStem: 88 362<1547 1639> 543 362<1547 1639>
LayerCount: 2
Fore
SplineSet
274 1737 m 0,0,1
 353 1737 353 1737 402 1699.5 c 128,-1,2
 451 1662 451 1662 451 1595 c 0,3,4
 451 1526 451 1526 399.5 1489 c 128,-1,5
 348 1452 348 1452 266 1452 c 0,6,7
 187 1452 187 1452 137.5 1488 c 128,-1,8
 88 1524 88 1524 88 1591 c 0,9,10
 88 1661 88 1661 140.5 1699 c 128,-1,11
 193 1737 193 1737 274 1737 c 0,0,1
729 1737 m 0,12,13
 808 1737 808 1737 856.5 1699.5 c 128,-1,14
 905 1662 905 1662 905 1595 c 0,15,16
 905 1526 905 1526 854 1489 c 128,-1,17
 803 1452 803 1452 721 1452 c 0,18,19
 642 1452 642 1452 592.5 1488 c 128,-1,20
 543 1524 543 1524 543 1591 c 0,21,22
 543 1661 543 1661 595.5 1699 c 128,-1,23
 648 1737 648 1737 729 1737 c 0,12,13
16 0 m 1,24,-1
 276 1352 l 1,25,-1
 623 1352 l 1,26,-1
 358 0 l 1,27,-1
 16 0 l 1,24,-1
EndSplineSet
Validated: 1
Position2: "'cpsp' Capital Spacing lookup 3 subtable" dx=10 dy=0 dh=20 dv=0
EndChar

StartChar: Idotaccent
Encoding: 304 304 58
Width: 641
Flags: MW
HStem: 1311 41G<276 623 623 623> 1452 285<441 538>
VStem: 307 362<1547 1639>
LayerCount: 2
Fore
SplineSet
494 1737 m 0,0,1
 573 1737 573 1737 621.5 1699.5 c 128,-1,2
 670 1662 670 1662 670 1595 c 0,3,4
 670 1526 670 1526 618.5 1489 c 128,-1,5
 567 1452 567 1452 485 1452 c 0,6,7
 406 1452 406 1452 356.5 1488 c 128,-1,8
 307 1524 307 1524 307 1591 c 0,9,10
 307 1660 307 1660 359.5 1698.5 c 128,-1,11
 412 1737 412 1737 494 1737 c 0,0,1
16 0 m 1,12,-1
 276 1352 l 1,13,-1
 623 1352 l 1,14,-1
 358 0 l 1,15,-1
 16 0 l 1,12,-1
EndSplineSet
Validated: 1
Position2: "'cpsp' Capital Spacing lookup 3 subtable" dx=10 dy=0 dh=20 dv=0
EndChar

StartChar: Idotbelow
Encoding: 7882 7882 59
Width: 641
Flags: MW
HStem: -383 285<97 194> 1311 41G<276 623 623 623>
VStem: -39 367<-288 -196>
LayerCount: 2
Fore
SplineSet
16 0 m 1,0,-1
 276 1352 l 1,1,-1
 623 1352 l 1,2,-1
 358 0 l 1,3,-1
 16 0 l 1,0,-1
150 -98 m 0,4,5
 229 -98 229 -98 278.5 -135.5 c 128,-1,6
 328 -173 328 -173 328 -240 c 0,7,8
 328 -309 328 -309 275.5 -346 c 128,-1,9
 223 -383 223 -383 141 -383 c 0,10,11
 61 -383 61 -383 11 -347 c 128,-1,12
 -39 -311 -39 -311 -39 -244 c 0,13,14
 -39 -175 -39 -175 14.5 -136.5 c 128,-1,15
 68 -98 68 -98 150 -98 c 0,4,5
EndSplineSet
Validated: 1
Position2: "'cpsp' Capital Spacing lookup 3 subtable" dx=10 dy=0 dh=20 dv=0
EndChar

StartChar: Igrave
Encoding: 204 204 60
Width: 641
Flags: MW
HStem: 1311 41G<276 623 623 623>
VStem: 16 670
LayerCount: 2
Fore
SplineSet
666 1458 m 1,0,-1
 426 1468 l 2,1,2
 143 1480 143 1480 143 1647 c 0,3,4
 143 1710 143 1710 195 1749 c 1,5,-1
 686 1552 l 1,6,-1
 666 1458 l 1,0,-1
16 0 m 1,7,-1
 276 1352 l 1,8,-1
 623 1352 l 1,9,-1
 358 0 l 1,10,-1
 16 0 l 1,7,-1
EndSplineSet
Validated: 1
Position2: "'cpsp' Capital Spacing lookup 3 subtable" dx=10 dy=0 dh=20 dv=0
EndChar

StartChar: Imacron
Encoding: 298 298 61
Width: 641
Flags: MW
HStem: 1311 41G<276 623 623 623> 1509 178<319 649 193 788>
VStem: 16 780
LayerCount: 2
Fore
SplineSet
788 1688 m 1,0,1
 797 1656 797 1656 797 1634 c 0,2,3
 797 1578 797 1578 758.5 1543.5 c 128,-1,4
 720 1509 720 1509 649 1509 c 2,5,-1
 193 1509 l 1,6,7
 188 1531 188 1531 188 1563 c 0,8,9
 189 1620 189 1620 225.5 1654 c 128,-1,10
 262 1688 262 1688 319 1688 c 2,11,-1
 788 1688 l 1,0,1
16 0 m 1,12,-1
 276 1352 l 1,13,-1
 623 1352 l 1,14,-1
 358 0 l 1,15,-1
 16 0 l 1,12,-1
EndSplineSet
Validated: 1
Position2: "'cpsp' Capital Spacing lookup 3 subtable" dx=10 dy=0 dh=20 dv=0
EndChar

StartChar: Iogonek
Encoding: 302 302 62
Width: 641
Flags: MW
HStem: -528 150<241 295> 1311 41G<276 623 623 623>
VStem: -18 188<-305 -233>
LayerCount: 2
Fore
SplineSet
332 0 m 1,0,1
 260 -53 260 -53 215 -124 c 128,-1,2
 170 -195 170 -195 170 -266 c 0,3,4
 170 -325 170 -325 196 -352 c 128,-1,5
 222 -379 222 -379 279 -379 c 0,6,7
 355 -379 355 -379 395 -328 c 1,8,9
 430 -363 430 -363 430 -406 c 0,10,11
 430 -458 430 -458 376.5 -493 c 128,-1,12
 323 -528 323 -528 233 -528 c 0,13,14
 116 -528 116 -528 49 -470 c 128,-1,15
 -18 -412 -18 -412 -18 -303 c 0,16,17
 -18 -204 -18 -204 37 -126.5 c 128,-1,18
 92 -49 92 -49 180 0 c 1,19,-1
 16 0 l 1,20,-1
 276 1352 l 1,21,-1
 623 1352 l 1,22,-1
 362 20 l 1,23,-1
 358 0 l 1,24,-1
 332 0 l 1,0,1
EndSplineSet
Validated: 1
Position2: "'cpsp' Capital Spacing lookup 3 subtable" dx=10 dy=0 dh=20 dv=0
EndChar

StartChar: Itilde
Encoding: 296 296 63
Width: 641
Flags: MW
HStem: 1311 41G<276 623 623 623> 1483 197<665 735 665 736> 1518 197<275 344>
VStem: 16 844
LayerCount: 2
Fore
SplineSet
823 1714 m 1,0,1
 860 1669 860 1669 860 1620 c 0,2,3
 860 1554 860 1554 812.5 1518.5 c 128,-1,4
 765 1483 765 1483 682 1483 c 0,5,6
 636 1483 636 1483 489.5 1500.5 c 128,-1,7
 343 1518 343 1518 303 1518 c 0,8,9
 225 1518 225 1518 178 1485 c 1,10,11
 139 1537 139 1537 139 1589 c 0,12,13
 139 1649 139 1649 187 1681.5 c 128,-1,14
 235 1714 235 1714 324 1714 c 0,15,16
 376 1714 376 1714 521 1696.5 c 128,-1,17
 666 1679 666 1679 711 1679 c 0,18,19
 795 1679 795 1679 823 1714 c 1,0,1
16 0 m 1,20,-1
 276 1352 l 1,21,-1
 623 1352 l 1,22,-1
 358 0 l 1,23,-1
 16 0 l 1,20,-1
EndSplineSet
Validated: 1
Position2: "'cpsp' Capital Spacing lookup 3 subtable" dx=10 dy=0 dh=20 dv=0
EndChar

StartChar: J
Encoding: 74 74 64
Width: 641
Flags: MW
HStem: 1311 41G<279 621 621 621>
VStem: -184 805
LayerCount: 2
Fore
SplineSet
403 231 m 2,0,1
 345 -71 345 -71 252.5 -214.5 c 128,-1,2
 160 -358 160 -358 2 -358 c 0,3,4
 -66 -358 -66 -358 -115 -334.5 c 128,-1,5
 -164 -311 -164 -311 -184 -266 c 1,6,7
 -85 -226 -85 -226 -35.5 -124 c 128,-1,8
 14 -22 14 -22 59 211 c 2,9,-1
 279 1352 l 1,10,-1
 621 1352 l 1,11,-1
 403 231 l 2,0,1
EndSplineSet
Validated: 1
Position2: "'cpsp' Capital Spacing lookup 3 subtable" dx=10 dy=0 dh=20 dv=0
EndChar

StartChar: Jcircumflex
Encoding: 308 308 65
Width: 641
Flags: MW
HStem: 1311 41G<279 621 621 621>
VStem: -184 983
LayerCount: 2
Fore
SplineSet
707 1395 m 1,0,-1
 479 1522 l 1,1,-1
 195 1395 l 1,2,-1
 135 1493 l 1,3,-1
 473 1731 l 1,4,-1
 526 1731 l 1,5,-1
 799 1491 l 1,6,-1
 707 1395 l 1,0,-1
403 231 m 2,7,8
 345 -71 345 -71 252.5 -214.5 c 128,-1,9
 160 -358 160 -358 2 -358 c 0,10,11
 -66 -358 -66 -358 -115 -334.5 c 128,-1,12
 -164 -311 -164 -311 -184 -266 c 1,13,14
 -85 -226 -85 -226 -35.5 -124 c 128,-1,15
 14 -22 14 -22 59 211 c 2,16,-1
 279 1352 l 1,17,-1
 621 1352 l 1,18,-1
 403 231 l 2,7,8
EndSplineSet
Validated: 1
Position2: "'cpsp' Capital Spacing lookup 3 subtable" dx=10 dy=0 dh=20 dv=0
EndChar

StartChar: K
Encoding: 75 75 66
Width: 1228
Flags: MW
HStem: 1311 41G<276 616 616 616 1028 1384 1384 1384>
VStem: 20 1364<0 1352>
LayerCount: 2
Fore
SplineSet
358 0 m 1,0,-1
 20 0 l 1,1,2
 246 1200 246 1200 276 1352 c 1,3,-1
 616 1352 l 1,4,-1
 358 0 l 1,0,-1
1384 1352 m 1,5,6
 1029 940 1029 940 834 688 c 1,7,8
 920 438 920 438 1010 288 c 128,-1,9
 1100 138 1100 138 1184 96 c 1,10,11
 1164 29 1164 29 1111.5 -6 c 128,-1,12
 1059 -41 1059 -41 983 -41 c 0,13,14
 938 -41 938 -41 900 -30.5 c 128,-1,15
 862 -20 862 -20 829 6 c 128,-1,16
 796 32 796 32 769 61.5 c 128,-1,17
 742 91 742 91 715 143 c 128,-1,18
 688 195 688 195 667.5 242 c 128,-1,19
 647 289 647 289 622 366.5 c 128,-1,20
 597 444 597 444 578 507.5 c 128,-1,21
 559 571 559 571 530 672 c 1,22,-1
 1028 1352 l 1,23,-1
 1384 1352 l 1,5,6
EndSplineSet
Validated: 1
Position2: "'cpsp' Capital Spacing lookup 3 subtable" dx=10 dy=0 dh=20 dv=0
EndChar

StartChar: Kcommaaccent
Encoding: 310 310 67
Width: 1228
Flags: MW
HStem: 1311 41G<276 616 616 616 1028 1384 1384 1384>
VStem: 436 242<-275 -204>
LayerCount: 2
Fore
SplineSet
20 0 m 1,0,1
 246 1200 246 1200 276 1352 c 1,2,-1
 616 1352 l 1,3,-1
 358 0 l 1,4,-1
 20 0 l 1,0,1
1384 1352 m 1,5,6
 1029 940 1029 940 834 688 c 1,7,8
 920 438 920 438 1010 288 c 128,-1,9
 1100 138 1100 138 1184 96 c 1,10,11
 1164 29 1164 29 1111.5 -6 c 128,-1,12
 1059 -41 1059 -41 983 -41 c 0,13,14
 938 -41 938 -41 900 -30.5 c 128,-1,15
 862 -20 862 -20 829 6 c 128,-1,16
 796 32 796 32 769 61.5 c 128,-1,17
 742 91 742 91 715 143 c 128,-1,18
 688 195 688 195 667.5 242 c 128,-1,19
 647 289 647 289 622 366.5 c 128,-1,20
 597 444 597 444 578 507.5 c 128,-1,21
 559 571 559 571 530 672 c 1,22,-1
 1028 1352 l 1,23,-1
 1384 1352 l 1,5,6
678 -229 m 0,24,25
 678 -304 678 -304 631 -370 c 128,-1,26
 584 -436 584 -436 516.5 -472 c 128,-1,27
 449 -508 449 -508 385 -508 c 0,28,29
 337 -508 337 -508 315 -492 c 1,30,31
 377 -418 377 -418 406.5 -357.5 c 128,-1,32
 436 -297 436 -297 436 -219 c 0,33,34
 436 -169 436 -169 420 -129 c 1,35,36
 439 -118 439 -118 473.5 -110 c 128,-1,37
 508 -102 508 -102 537 -102 c 0,38,39
 601 -102 601 -102 639.5 -136 c 128,-1,40
 678 -170 678 -170 678 -229 c 0,24,25
EndSplineSet
Validated: 1
Position2: "'cpsp' Capital Spacing lookup 3 subtable" dx=10 dy=0 dh=20 dv=0
EndChar

StartChar: L
Encoding: 76 76 68
Width: 837
Flags: MW
HStem: 0 215<406 604> 1311 41G<276 621 621 621>
VStem: 23 813<0 152>
LayerCount: 2
Fore
SplineSet
276 1352 m 1,0,-1
 621 1352 l 1,1,-1
 406 215 l 1,2,-1
 625 215 l 2,3,4
 751 215 751 215 807 238 c 1,5,6
 836 198 836 198 836 135 c 0,7,8
 836 94 836 94 816.5 66 c 128,-1,9
 797 38 797 38 761.5 24 c 128,-1,10
 726 10 726 10 689 5 c 128,-1,11
 652 0 652 0 604 0 c 2,12,-1
 23 0 l 1,13,-1
 276 1352 l 1,0,-1
EndSplineSet
Validated: 1
Position2: "'cpsp' Capital Spacing lookup 3 subtable" dx=10 dy=0 dh=20 dv=0
EndChar

StartChar: LJ
Encoding: 455 455 69
Width: 1478
Flags: MW
HStem: 0 215<406 604> 1311 41G<276 621 621 621 1116 1458 1458 1458>
VStem: 23 1436<0 1352>
LayerCount: 2
Fore
SplineSet
621 1352 m 1,0,-1
 406 215 l 1,1,-1
 625 215 l 2,2,3
 751 215 751 215 807 238 c 1,4,5
 836 198 836 198 836 135 c 0,6,7
 836 94 836 94 816.5 66 c 128,-1,8
 797 38 797 38 761.5 24 c 128,-1,9
 726 10 726 10 689 5 c 128,-1,10
 652 0 652 0 604 0 c 2,11,-1
 23 0 l 1,12,-1
 276 1352 l 1,13,-1
 621 1352 l 1,0,-1
1241 231 m 2,14,15
 1183 -71 1183 -71 1090.5 -214.5 c 128,-1,16
 998 -358 998 -358 840 -358 c 0,17,18
 772 -358 772 -358 722.5 -334.5 c 128,-1,19
 673 -311 673 -311 653 -266 c 1,20,21
 752 -226 752 -226 802 -123.5 c 128,-1,22
 852 -21 852 -21 897 211 c 2,23,-1
 1116 1352 l 1,24,-1
 1458 1352 l 1,25,-1
 1241 231 l 2,14,15
EndSplineSet
Validated: 1
Position2: "'cpsp' Capital Spacing lookup 3 subtable" dx=10 dy=0 dh=20 dv=0
EndChar

StartChar: Lacute
Encoding: 313 313 70
Width: 837
Flags: MW
HStem: 0 215<406 604> 1311 41G<276 621 621 621>
VStem: 23 813<0 152>
LayerCount: 2
Fore
SplineSet
274 1552 m 1,0,-1
 764 1747 l 1,1,2
 815 1713 815 1713 815 1647 c 0,3,4
 815 1476 815 1476 535 1468 c 1,5,-1
 295 1458 l 1,6,-1
 274 1552 l 1,0,-1
621 1352 m 1,7,-1
 406 215 l 1,8,-1
 625 215 l 2,9,10
 751 215 751 215 807 238 c 1,11,12
 836 198 836 198 836 135 c 0,13,14
 836 94 836 94 816.5 66 c 128,-1,15
 797 38 797 38 761.5 24 c 128,-1,16
 726 10 726 10 689 5 c 128,-1,17
 652 0 652 0 604 0 c 2,18,-1
 23 0 l 1,19,-1
 276 1352 l 1,20,-1
 621 1352 l 1,7,-1
EndSplineSet
Validated: 1
Position2: "'cpsp' Capital Spacing lookup 3 subtable" dx=10 dy=0 dh=20 dv=0
EndChar

StartChar: Lcaron
Encoding: 317 317 71
Width: 837
Flags: MW
HStem: 0 215<406 604> 1081 270<276 827> 1430 41G<870 927>
VStem: 795 221<1302 1365>
LayerCount: 2
Fore
SplineSet
778 1444 m 1,0,1
 828 1470 828 1470 891 1470 c 0,2,3
 947 1470 947 1470 981.5 1433 c 128,-1,4
 1016 1396 1016 1396 1016 1329 c 0,5,6
 1016 1237 1016 1237 938 1159 c 128,-1,7
 860 1081 860 1081 760 1081 c 0,8,9
 735 1081 735 1081 692 1094 c 1,10,11
 795 1216 795 1216 795 1346 c 0,12,13
 795 1400 795 1400 778 1444 c 1,0,1
621 1352 m 1,14,-1
 406 215 l 1,15,-1
 625 215 l 2,16,17
 751 215 751 215 807 238 c 1,18,19
 836 198 836 198 836 135 c 0,20,21
 836 94 836 94 816.5 66 c 128,-1,22
 797 38 797 38 761.5 24 c 128,-1,23
 726 10 726 10 689 5 c 128,-1,24
 652 0 652 0 604 0 c 2,25,-1
 23 0 l 1,26,-1
 276 1352 l 1,27,-1
 621 1352 l 1,14,-1
EndSplineSet
Validated: 1
Position2: "'cpsp' Capital Spacing lookup 3 subtable" dx=10 dy=0 dh=20 dv=0
EndChar

StartChar: Lcommaaccent
Encoding: 315 315 72
Width: 837
Flags: MW
HStem: 0 215<406 604> 1311 41G<276 621 621 621>
VStem: 260 242<-275 -204>
LayerCount: 2
Fore
SplineSet
621 1352 m 1,0,-1
 406 215 l 1,1,-1
 625 215 l 2,2,3
 751 215 751 215 807 238 c 1,4,5
 836 198 836 198 836 135 c 0,6,7
 836 94 836 94 816.5 66 c 128,-1,8
 797 38 797 38 761.5 24 c 128,-1,9
 726 10 726 10 689 5 c 128,-1,10
 652 0 652 0 604 0 c 2,11,-1
 23 0 l 1,12,-1
 276 1352 l 1,13,-1
 621 1352 l 1,0,-1
502 -229 m 0,14,15
 502 -304 502 -304 455 -370 c 128,-1,16
 408 -436 408 -436 340.5 -472 c 128,-1,17
 273 -508 273 -508 209 -508 c 0,18,19
 161 -508 161 -508 139 -492 c 1,20,21
 201 -418 201 -418 230.5 -357.5 c 128,-1,22
 260 -297 260 -297 260 -219 c 0,23,24
 260 -169 260 -169 244 -129 c 1,25,26
 292 -102 292 -102 360 -102 c 0,27,28
 424 -102 424 -102 463 -136 c 128,-1,29
 502 -170 502 -170 502 -229 c 0,14,15
EndSplineSet
Validated: 1
Position2: "'cpsp' Capital Spacing lookup 3 subtable" dx=10 dy=0 dh=20 dv=0
EndChar

StartChar: Ldot
Encoding: 319 319 73
Width: 837
Flags: MW
HStem: 0 215<406 604> 1311 41G<276 621 621 621>
VStem: 23 817<0 753> 573 266<626 753>
LayerCount: 2
Fore
SplineSet
621 1352 m 1,0,-1
 406 215 l 1,1,-1
 625 215 l 2,2,3
 751 215 751 215 807 238 c 1,4,5
 836 198 836 198 836 135 c 0,6,7
 836 94 836 94 816.5 66 c 128,-1,8
 797 38 797 38 761.5 24 c 128,-1,9
 726 10 726 10 689 5 c 128,-1,10
 652 0 652 0 604 0 c 2,11,-1
 23 0 l 1,12,-1
 276 1352 l 1,13,-1
 621 1352 l 1,0,-1
737 821 m 0,14,15
 783 821 783 821 811.5 794.5 c 128,-1,16
 840 768 840 768 840 721 c 0,17,18
 840 702 840 702 838 692 c 0,19,20
 826 631 826 631 781.5 595 c 128,-1,21
 737 559 737 559 678 559 c 0,22,23
 630 559 630 559 601.5 585 c 128,-1,24
 573 611 573 611 573 655 c 0,25,26
 573 728 573 728 622.5 774.5 c 128,-1,27
 672 821 672 821 737 821 c 0,14,15
EndSplineSet
Validated: 1
Ligature2: "Ligature Substitution lookup 20 subtable" L periodcentered
Position2: "'cpsp' Capital Spacing lookup 3 subtable" dx=10 dy=0 dh=20 dv=0
EndChar

StartChar: Lj
Encoding: 456 456 74
Width: 1417
Flags: MW
HStem: -410 135 0 215<406 604> 1036 41G<1401 1401> 1217 293<1237 1337> 1311 41G<276 621 621 621>
VStem: 1100 373<1315 1409>
LayerCount: 2
Fore
SplineSet
1290 1509 m 0,0,1
 1372 1509 1372 1509 1422.5 1471 c 128,-1,2
 1473 1433 1473 1433 1473 1364 c 0,3,4
 1473 1293 1473 1293 1420 1255 c 128,-1,5
 1367 1217 1367 1217 1284 1217 c 0,6,7
 1202 1217 1202 1217 1151 1254.5 c 128,-1,8
 1100 1292 1100 1292 1100 1360 c 0,9,10
 1100 1431 1100 1431 1153.5 1470 c 128,-1,11
 1207 1509 1207 1509 1290 1509 c 0,0,1
621 1352 m 1,12,-1
 406 215 l 1,13,-1
 625 215 l 2,14,15
 751 215 751 215 807 238 c 1,16,17
 836 198 836 198 836 135 c 0,18,19
 836 94 836 94 816.5 66 c 128,-1,20
 797 38 797 38 761.5 24 c 128,-1,21
 726 10 726 10 689 5 c 128,-1,22
 652 0 652 0 604 0 c 2,23,-1
 23 0 l 1,24,-1
 276 1352 l 1,25,-1
 621 1352 l 1,12,-1
1212 125 m 2,26,27
 1157 -154 1157 -154 1061.5 -282 c 128,-1,28
 966 -410 966 -410 817 -410 c 0,29,30
 740 -410 740 -410 688.5 -376 c 128,-1,31
 637 -342 637 -342 623 -274 c 1,32,33
 740 -270 740 -270 801 -162 c 128,-1,34
 862 -54 862 -54 915 217 c 2,35,-1
 1079 1044 l 1,36,-1
 1401 1077 l 1,37,-1
 1212 125 l 2,26,27
EndSplineSet
Validated: 1
Position2: "'cpsp' Capital Spacing lookup 3 subtable" dx=10 dy=0 dh=20 dv=0
EndChar

StartChar: Lslash
Encoding: 321 321 75
Width: 919
Flags: MW
HStem: 0 215<487 684> 1311 41G<356 702 702 702>
VStem: -20 936<78 545>
LayerCount: 2
Fore
SplineSet
705 215 m 2,0,1
 831 215 831 215 887 238 c 1,2,3
 915 199 915 199 915 135 c 0,4,5
 915 94 915 94 896 66 c 128,-1,6
 877 38 877 38 842 24 c 128,-1,7
 807 10 807 10 769.5 5 c 128,-1,8
 732 0 732 0 684 0 c 2,9,-1
 102 0 l 1,10,-1
 197 498 l 1,11,-1
 20 434 l 1,12,13
 -20 471 -20 471 -20 522 c 0,14,15
 -20 601 -20 601 66 635 c 1,16,-1
 233 696 l 1,17,-1
 356 1352 l 1,18,-1
 702 1352 l 1,19,-1
 604 831 l 1,20,-1
 803 905 l 1,21,22
 838 875 838 875 838 813 c 0,23,24
 838 767 838 767 806 736.5 c 128,-1,25
 774 706 774 706 705 682 c 1,26,-1
 565 631 l 1,27,-1
 487 215 l 1,28,-1
 705 215 l 2,0,1
EndSplineSet
Validated: 1
Position2: "'cpsp' Capital Spacing lookup 3 subtable" dx=10 dy=0 dh=20 dv=0
EndChar

StartChar: M
Encoding: 77 77 76
Width: 1597
Flags: MW
HStem: 991 360<416 416 1241 1241> 1311 41G<303 668 668 668 1210 1571 1571 1571>
VStem: 1163 315<176 181>
LayerCount: 2
Fore
SplineSet
1571 1352 m 1,0,-1
 1485 305 l 1,1,2
 1479 251 1479 251 1479 209 c 0,3,4
 1479 98 1479 98 1534 51 c 1,5,6
 1472 -43 1472 -43 1333 -43 c 0,7,8
 1239 -43 1239 -43 1201 9.5 c 128,-1,9
 1163 62 1163 62 1163 166 c 0,10,11
 1163 227 1163 227 1171 289 c 1,12,-1
 1241 991 l 1,13,-1
 791 0 l 1,14,-1
 588 0 l 1,15,-1
 416 991 l 1,16,-1
 207 0 l 1,17,-1
 -12 0 l 1,18,-1
 303 1352 l 1,19,-1
 668 1352 l 1,20,-1
 819 500 l 1,21,-1
 1210 1352 l 1,22,-1
 1571 1352 l 1,0,-1
EndSplineSet
Validated: 1
Position2: "'cpsp' Capital Spacing lookup 3 subtable" dx=10 dy=0 dh=20 dv=0
EndChar

StartChar: N
Encoding: 78 78 77
Width: 1368
Flags: MW
HStem: 1311 41G<276 643 643 643 1116 1335 1335 1335>
VStem: 29 1307
LayerCount: 2
Fore
SplineSet
29 0 m 1,0,-1
 276 1352 l 1,1,-1
 643 1352 l 1,2,-1
 950 358 l 1,3,-1
 1116 1352 l 1,4,-1
 1335 1352 l 1,5,-1
 1087 0 l 1,6,-1
 721 0 l 1,7,-1
 414 995 l 1,8,-1
 248 0 l 1,9,-1
 29 0 l 1,0,-1
EndSplineSet
Validated: 1
Position2: "'cpsp' Capital Spacing lookup 3 subtable" dx=10 dy=0 dh=20 dv=0
EndChar

StartChar: NJ
Encoding: 458 458 78
Width: 2009
Flags: MW
HStem: 995 356<414 414> 1311 41G<276 643 643 643 1116 1335 1335 1335 1647 1989 1989 1989>
VStem: 29 1960<0 1352>
LayerCount: 2
Fore
SplineSet
276 1352 m 1,0,-1
 643 1352 l 1,1,-1
 950 358 l 1,2,-1
 1116 1352 l 1,3,-1
 1335 1352 l 1,4,-1
 1087 0 l 1,5,-1
 721 0 l 1,6,-1
 414 995 l 1,7,-1
 248 0 l 1,8,-1
 29 0 l 1,9,-1
 276 1352 l 1,0,-1
1772 231 m 2,10,11
 1714 -70 1714 -70 1621 -214 c 128,-1,12
 1528 -358 1528 -358 1370 -358 c 0,13,14
 1302 -358 1302 -358 1253 -334.5 c 128,-1,15
 1204 -311 1204 -311 1184 -266 c 1,16,17
 1283 -226 1283 -226 1332.5 -124 c 128,-1,18
 1382 -22 1382 -22 1427 211 c 2,19,-1
 1647 1352 l 1,20,-1
 1989 1352 l 1,21,-1
 1772 231 l 2,10,11
EndSplineSet
Validated: 1
Position2: "'cpsp' Capital Spacing lookup 3 subtable" dx=10 dy=0 dh=20 dv=0
EndChar

StartChar: Nacute
Encoding: 323 323 79
Width: 1368
Flags: MW
HStem: 1311 41G<276 643 643 643 1116 1335 1335 1335>
VStem: 29 1307
LayerCount: 2
Fore
SplineSet
672 1552 m 1,0,-1
 1161 1747 l 1,1,2
 1212 1713 1212 1713 1212 1647 c 0,3,4
 1212 1476 1212 1476 932 1468 c 1,5,-1
 692 1458 l 1,6,-1
 672 1552 l 1,0,-1
276 1352 m 1,7,-1
 643 1352 l 1,8,-1
 950 358 l 1,9,-1
 1116 1352 l 1,10,-1
 1335 1352 l 1,11,-1
 1087 0 l 1,12,-1
 721 0 l 1,13,-1
 414 995 l 1,14,-1
 248 0 l 1,15,-1
 29 0 l 1,16,-1
 276 1352 l 1,7,-1
EndSplineSet
Validated: 1
Substitution2: "'locl' Localized Forms in Latin lookup 13 subtable" Nacute.loclPLK
Substitution2: "'aalt' Access All Alternates lookup 0 subtable" Nacute.loclPLK
Position2: "'cpsp' Capital Spacing lookup 3 subtable" dx=10 dy=0 dh=20 dv=0
EndChar

StartChar: Ncaron
Encoding: 327 327 80
Width: 1368
Flags: MW
HStem: 1311 41G<276 643 643 643 1116 1335 1335 1335>
VStem: 29 1307
LayerCount: 2
Fore
SplineSet
643 1733 m 1,0,-1
 870 1626 l 1,1,-1
 1155 1733 l 1,2,-1
 1214 1645 l 1,3,-1
 887 1417 l 1,4,-1
 813 1417 l 1,5,-1
 551 1647 l 1,6,-1
 643 1733 l 1,0,-1
276 1352 m 1,7,-1
 643 1352 l 1,8,-1
 950 358 l 1,9,-1
 1116 1352 l 1,10,-1
 1335 1352 l 1,11,-1
 1087 0 l 1,12,-1
 721 0 l 1,13,-1
 414 995 l 1,14,-1
 248 0 l 1,15,-1
 29 0 l 1,16,-1
 276 1352 l 1,7,-1
EndSplineSet
Validated: 1
Position2: "'cpsp' Capital Spacing lookup 3 subtable" dx=10 dy=0 dh=20 dv=0
EndChar

StartChar: Ncommaaccent
Encoding: 325 325 81
Width: 1368
Flags: MW
HStem: 1311 41G<276 643 643 643 1116 1335 1335 1335>
VStem: 489 242<-275 -204>
LayerCount: 2
Fore
SplineSet
276 1352 m 1,0,-1
 643 1352 l 1,1,-1
 950 358 l 1,2,-1
 1116 1352 l 1,3,-1
 1335 1352 l 1,4,-1
 1087 0 l 1,5,-1
 721 0 l 1,6,-1
 414 995 l 1,7,-1
 248 0 l 1,8,-1
 29 0 l 1,9,-1
 276 1352 l 1,0,-1
731 -229 m 0,10,11
 731 -304 731 -304 684 -370 c 128,-1,12
 637 -436 637 -436 569.5 -472 c 128,-1,13
 502 -508 502 -508 438 -508 c 0,14,15
 391 -508 391 -508 369 -492 c 1,16,17
 430 -419 430 -419 459.5 -358 c 128,-1,18
 489 -297 489 -297 489 -219 c 0,19,20
 489 -169 489 -169 473 -129 c 1,21,22
 492 -118 492 -118 526.5 -110 c 128,-1,23
 561 -102 561 -102 590 -102 c 0,24,25
 654 -102 654 -102 692.5 -136 c 128,-1,26
 731 -170 731 -170 731 -229 c 0,10,11
EndSplineSet
Validated: 1
Position2: "'cpsp' Capital Spacing lookup 3 subtable" dx=10 dy=0 dh=20 dv=0
EndChar

StartChar: Ndotaccent
Encoding: 7748 7748 82
Width: 1368
Flags: MW
HStem: 1311 41G<276 643 643 643 1116 1335 1335 1335> 1452 285<800 896>
VStem: 666 362<1547 1639>
LayerCount: 2
Fore
SplineSet
852 1737 m 0,0,1
 931 1737 931 1737 979.5 1699.5 c 128,-1,2
 1028 1662 1028 1662 1028 1595 c 0,3,4
 1028 1526 1028 1526 977 1489 c 128,-1,5
 926 1452 926 1452 844 1452 c 0,6,7
 765 1452 765 1452 715.5 1488 c 128,-1,8
 666 1524 666 1524 666 1591 c 0,9,10
 666 1661 666 1661 718.5 1699 c 128,-1,11
 771 1737 771 1737 852 1737 c 0,0,1
276 1352 m 1,12,-1
 643 1352 l 1,13,-1
 950 358 l 1,14,-1
 1116 1352 l 1,15,-1
 1335 1352 l 1,16,-1
 1087 0 l 1,17,-1
 721 0 l 1,18,-1
 414 995 l 1,19,-1
 248 0 l 1,20,-1
 29 0 l 1,21,-1
 276 1352 l 1,12,-1
EndSplineSet
Validated: 1
Position2: "'cpsp' Capital Spacing lookup 3 subtable" dx=10 dy=0 dh=20 dv=0
EndChar

StartChar: Eng
Encoding: 330 330 83
Width: 1368
Flags: MW
HStem: 1311 41G<276 643 643 643 1116 1335 1335 1335>
VStem: 29 1307
LayerCount: 2
Fore
SplineSet
248 0 m 1,0,-1
 29 0 l 1,1,-1
 276 1352 l 1,2,-1
 643 1352 l 1,3,-1
 950 358 l 1,4,-1
 1116 1352 l 1,5,-1
 1335 1352 l 1,6,-1
 1110 121 l 1,7,8
 1064 -125 1064 -125 994 -246 c 128,-1,9
 924 -367 924 -367 801 -367 c 0,10,11
 754 -367 754 -367 717.5 -349 c 128,-1,12
 681 -331 681 -331 666 -299 c 1,13,14
 750 -268 750 -268 799.5 -200 c 128,-1,15
 849 -132 849 -132 881 0 c 1,16,-1
 725 0 l 1,17,-1
 414 995 l 1,18,-1
 248 0 l 1,0,-1
EndSplineSet
Validated: 1
Position2: "'cpsp' Capital Spacing lookup 3 subtable" dx=10 dy=0 dh=20 dv=0
EndChar

StartChar: Nj
Encoding: 459 459 84
Width: 1947
Flags: MW
HStem: -410 135 1036 41G<1931 1931> 1217 293<1767 1868> 1311 41G<276 643 643 643 1116 1335 1335 1335>
VStem: 1630 373<1315 1409>
LayerCount: 2
Fore
SplineSet
1821 1509 m 0,0,1
 1903 1509 1903 1509 1953 1471 c 128,-1,2
 2003 1433 2003 1433 2003 1364 c 0,3,4
 2003 1293 2003 1293 1950.5 1255 c 128,-1,5
 1898 1217 1898 1217 1815 1217 c 0,6,7
 1733 1217 1733 1217 1681.5 1254.5 c 128,-1,8
 1630 1292 1630 1292 1630 1360 c 0,9,10
 1630 1431 1630 1431 1684 1470 c 128,-1,11
 1738 1509 1738 1509 1821 1509 c 0,0,1
276 1352 m 1,12,-1
 643 1352 l 1,13,-1
 950 358 l 1,14,-1
 1116 1352 l 1,15,-1
 1335 1352 l 1,16,-1
 1087 0 l 1,17,-1
 721 0 l 1,18,-1
 414 995 l 1,19,-1
 248 0 l 1,20,-1
 29 0 l 1,21,-1
 276 1352 l 1,12,-1
1743 125 m 2,22,23
 1688 -154 1688 -154 1592.5 -282 c 128,-1,24
 1497 -410 1497 -410 1348 -410 c 0,25,26
 1271 -410 1271 -410 1219 -376 c 128,-1,27
 1167 -342 1167 -342 1153 -274 c 1,28,29
 1270 -270 1270 -270 1331.5 -162 c 128,-1,30
 1393 -54 1393 -54 1446 217 c 2,31,-1
 1610 1044 l 1,32,-1
 1931 1077 l 1,33,-1
 1743 125 l 2,22,23
EndSplineSet
Validated: 1
Position2: "'cpsp' Capital Spacing lookup 3 subtable" dx=10 dy=0 dh=20 dv=0
EndChar

StartChar: Ntilde
Encoding: 209 209 85
Width: 1368
Flags: MW
HStem: 1311 41G<276 643 643 643 1116 1335 1335 1335> 1483 197<1023 1094 1023 1095> 1518 197<634 702>
VStem: 29 1307
LayerCount: 2
Fore
SplineSet
1182 1714 m 1,0,1
 1219 1669 1219 1669 1219 1620 c 0,2,3
 1219 1554 1219 1554 1171 1518.5 c 128,-1,4
 1123 1483 1123 1483 1040 1483 c 0,5,6
 994 1483 994 1483 848 1500.5 c 128,-1,7
 702 1518 702 1518 662 1518 c 0,8,9
 584 1518 584 1518 537 1485 c 1,10,11
 498 1537 498 1537 498 1589 c 0,12,13
 498 1649 498 1649 545.5 1681.5 c 128,-1,14
 593 1714 593 1714 682 1714 c 0,15,16
 734 1714 734 1714 879 1696.5 c 128,-1,17
 1024 1679 1024 1679 1069 1679 c 0,18,19
 1154 1679 1154 1679 1182 1714 c 1,0,1
276 1352 m 1,20,-1
 643 1352 l 1,21,-1
 950 358 l 1,22,-1
 1116 1352 l 1,23,-1
 1335 1352 l 1,24,-1
 1087 0 l 1,25,-1
 721 0 l 1,26,-1
 414 995 l 1,27,-1
 248 0 l 1,28,-1
 29 0 l 1,29,-1
 276 1352 l 1,20,-1
EndSplineSet
Validated: 1
Position2: "'cpsp' Capital Spacing lookup 3 subtable" dx=10 dy=0 dh=20 dv=0
EndChar

StartChar: O
Encoding: 79 79 86
Width: 1310
Flags: MW
HStem: -41 145<493 643 493 769> 1249 143<671 819>
VStem: 49 350<308 388 266 705> 911 350<968 1046 651 1089>
LayerCount: 2
Fore
SplineSet
799 1393 m 0,0,1
 1032 1393 1032 1393 1147 1263 c 128,-1,2
 1262 1133 1262 1133 1262 870 c 0,3,4
 1262 736 1262 736 1234 607 c 128,-1,5
 1206 478 1206 478 1145 360 c 128,-1,6
 1084 242 1084 242 998 153.5 c 128,-1,7
 912 65 912 65 787 12 c 128,-1,8
 662 -41 662 -41 514 -41 c 0,9,10
 280 -41 280 -41 164.5 89.5 c 128,-1,11
 49 220 49 220 49 483 c 0,12,13
 49 618 49 618 77.5 747.5 c 128,-1,14
 106 877 106 877 167 994.5 c 128,-1,15
 228 1112 228 1112 315 1200 c 128,-1,16
 402 1288 402 1288 526.5 1340.5 c 128,-1,17
 651 1393 651 1393 799 1393 c 0,0,1
758 1249 m 0,18,19
 634 1249 634 1249 560 1117.5 c 128,-1,20
 486 986 486 986 444 731 c 1,21,22
 399 502 399 502 399 332 c 0,23,24
 399 224 399 224 433.5 164 c 128,-1,25
 468 104 468 104 553 104 c 0,26,27
 619 104 619 104 670.5 141 c 128,-1,28
 722 178 722 178 759 250 c 128,-1,29
 796 322 796 322 821.5 412 c 128,-1,30
 847 502 847 502 866 623 c 1,31,32
 911 856 911 856 911 1024 c 0,33,34
 911 1132 911 1132 877.5 1190.5 c 128,-1,35
 844 1249 844 1249 758 1249 c 0,18,19
EndSplineSet
Validated: 1
Substitution2: "Single Substitution lookup 21 subtable" ordmasculine
Substitution2: "'aalt' Access All Alternates lookup 0 subtable" ordmasculine
Position2: "'cpsp' Capital Spacing lookup 3 subtable" dx=10 dy=0 dh=20 dv=0
EndChar

StartChar: Oacute
Encoding: 211 211 87
Width: 1310
Flags: MW
HStem: -41 145<493 643 493 769> 1249 143<671 819>
VStem: 49 350<308 388 266 705> 911 350<968 1046 651 1089>
LayerCount: 2
Fore
SplineSet
645 1552 m 1,0,-1
 1135 1747 l 1,1,2
 1186 1713 1186 1713 1186 1647 c 0,3,4
 1186 1476 1186 1476 905 1468 c 1,5,-1
 666 1458 l 1,6,-1
 645 1552 l 1,0,-1
799 1393 m 0,7,8
 1032 1393 1032 1393 1147 1263 c 128,-1,9
 1262 1133 1262 1133 1262 870 c 0,10,11
 1262 736 1262 736 1234 607 c 128,-1,12
 1206 478 1206 478 1145 360 c 128,-1,13
 1084 242 1084 242 998 153.5 c 128,-1,14
 912 65 912 65 787 12 c 128,-1,15
 662 -41 662 -41 514 -41 c 0,16,17
 280 -41 280 -41 164.5 89.5 c 128,-1,18
 49 220 49 220 49 483 c 0,19,20
 49 618 49 618 77.5 747.5 c 128,-1,21
 106 877 106 877 167 994.5 c 128,-1,22
 228 1112 228 1112 315 1200 c 128,-1,23
 402 1288 402 1288 526.5 1340.5 c 128,-1,24
 651 1393 651 1393 799 1393 c 0,7,8
758 1249 m 0,25,26
 634 1249 634 1249 560 1117.5 c 128,-1,27
 486 986 486 986 444 731 c 1,28,29
 399 502 399 502 399 332 c 0,30,31
 399 224 399 224 433.5 164 c 128,-1,32
 468 104 468 104 553 104 c 0,33,34
 619 104 619 104 670.5 141 c 128,-1,35
 722 178 722 178 759 250 c 128,-1,36
 796 322 796 322 821.5 412 c 128,-1,37
 847 502 847 502 866 623 c 1,38,39
 911 856 911 856 911 1024 c 0,40,41
 911 1132 911 1132 877.5 1190.5 c 128,-1,42
 844 1249 844 1249 758 1249 c 0,25,26
EndSplineSet
Validated: 1
Substitution2: "'locl' Localized Forms in Latin lookup 13 subtable" Oacute.loclPLK
Substitution2: "'aalt' Access All Alternates lookup 0 subtable" Oacute.loclPLK
Position2: "'cpsp' Capital Spacing lookup 3 subtable" dx=10 dy=0 dh=20 dv=0
EndChar

StartChar: Obreve
Encoding: 334 334 88
Width: 1310
Flags: MW
HStem: -41 145<493 643 493 769> 1249 143<671 819> 1434 100<801 884 801 935>
VStem: 49 350<308 388 266 705> 508 240<1614 1649 1614 1660> 911 350<968 1046 651 1089>
LayerCount: 2
Fore
SplineSet
756 1706 m 1,0,1
 748 1667 748 1667 748 1638 c 0,2,3
 748 1594 748 1594 768 1564 c 128,-1,4
 788 1534 788 1534 836 1534 c 0,5,6
 901 1534 901 1534 939.5 1585 c 128,-1,7
 978 1636 978 1636 993 1706 c 1,8,-1
 1223 1706 l 1,9,10
 1197 1582 1197 1582 1093 1508 c 128,-1,11
 989 1434 989 1434 815 1434 c 0,12,13
 665 1434 665 1434 586.5 1493.5 c 128,-1,14
 508 1553 508 1553 508 1651 c 0,15,16
 508 1676 508 1676 514 1706 c 1,17,-1
 756 1706 l 1,0,1
799 1393 m 0,18,19
 1032 1393 1032 1393 1147 1263 c 128,-1,20
 1262 1133 1262 1133 1262 870 c 0,21,22
 1262 736 1262 736 1234 607 c 128,-1,23
 1206 478 1206 478 1145 360 c 128,-1,24
 1084 242 1084 242 998 153.5 c 128,-1,25
 912 65 912 65 787 12 c 128,-1,26
 662 -41 662 -41 514 -41 c 0,27,28
 280 -41 280 -41 164.5 89.5 c 128,-1,29
 49 220 49 220 49 483 c 0,30,31
 49 618 49 618 77.5 747.5 c 128,-1,32
 106 877 106 877 167 994.5 c 128,-1,33
 228 1112 228 1112 315 1200 c 128,-1,34
 402 1288 402 1288 526.5 1340.5 c 128,-1,35
 651 1393 651 1393 799 1393 c 0,18,19
758 1249 m 0,36,37
 634 1249 634 1249 560 1117.5 c 128,-1,38
 486 986 486 986 444 731 c 1,39,40
 399 502 399 502 399 332 c 0,41,42
 399 224 399 224 433.5 164 c 128,-1,43
 468 104 468 104 553 104 c 0,44,45
 619 104 619 104 670.5 141 c 128,-1,46
 722 178 722 178 759 250 c 128,-1,47
 796 322 796 322 821.5 412 c 128,-1,48
 847 502 847 502 866 623 c 1,49,50
 911 856 911 856 911 1024 c 0,51,52
 911 1132 911 1132 877.5 1190.5 c 128,-1,53
 844 1249 844 1249 758 1249 c 0,36,37
EndSplineSet
Validated: 1
Position2: "'cpsp' Capital Spacing lookup 3 subtable" dx=10 dy=0 dh=20 dv=0
EndChar

StartChar: Ocircumflex
Encoding: 212 212 89
Width: 1310
Flags: MW
HStem: -41 145<493 643 493 769> 1249 143<671 819>
VStem: 49 350<308 388 266 705> 911 350<968 1046 651 1089>
LayerCount: 2
Fore
SplineSet
1040 1395 m 1,0,-1
 813 1522 l 1,1,-1
 528 1395 l 1,2,-1
 469 1493 l 1,3,-1
 807 1731 l 1,4,-1
 860 1731 l 1,5,-1
 1133 1491 l 1,6,-1
 1040 1395 l 1,0,-1
799 1393 m 0,7,8
 1032 1393 1032 1393 1147 1263 c 128,-1,9
 1262 1133 1262 1133 1262 870 c 0,10,11
 1262 736 1262 736 1234 607 c 128,-1,12
 1206 478 1206 478 1145 360 c 128,-1,13
 1084 242 1084 242 998 153.5 c 128,-1,14
 912 65 912 65 787 12 c 128,-1,15
 662 -41 662 -41 514 -41 c 0,16,17
 280 -41 280 -41 164.5 89.5 c 128,-1,18
 49 220 49 220 49 483 c 0,19,20
 49 618 49 618 77.5 747.5 c 128,-1,21
 106 877 106 877 167 994.5 c 128,-1,22
 228 1112 228 1112 315 1200 c 128,-1,23
 402 1288 402 1288 526.5 1340.5 c 128,-1,24
 651 1393 651 1393 799 1393 c 0,7,8
758 1249 m 0,25,26
 634 1249 634 1249 560 1117.5 c 128,-1,27
 486 986 486 986 444 731 c 1,28,29
 399 502 399 502 399 332 c 0,30,31
 399 224 399 224 433.5 164 c 128,-1,32
 468 104 468 104 553 104 c 0,33,34
 619 104 619 104 670.5 141 c 128,-1,35
 722 178 722 178 759 250 c 128,-1,36
 796 322 796 322 821.5 412 c 128,-1,37
 847 502 847 502 866 623 c 1,38,39
 911 856 911 856 911 1024 c 0,40,41
 911 1132 911 1132 877.5 1190.5 c 128,-1,42
 844 1249 844 1249 758 1249 c 0,25,26
EndSplineSet
Validated: 1
Position2: "'cpsp' Capital Spacing lookup 3 subtable" dx=10 dy=0 dh=20 dv=0
EndChar

StartChar: Odieresis
Encoding: 214 214 90
Width: 1310
Flags: MW
HStem: -41 145<493 643 493 769> 1249 143<671 819> 1452 285<554 650 1009 1105>
VStem: 49 350<308 388 266 705> 420 362<1547 1639> 874 362<1547 1639> 911 350<968 1046 651 1089>
LayerCount: 2
Fore
SplineSet
606 1737 m 0,0,1
 685 1737 685 1737 733.5 1699.5 c 128,-1,2
 782 1662 782 1662 782 1595 c 0,3,4
 782 1526 782 1526 731 1489 c 128,-1,5
 680 1452 680 1452 598 1452 c 0,6,7
 519 1452 519 1452 469.5 1488 c 128,-1,8
 420 1524 420 1524 420 1591 c 0,9,10
 420 1661 420 1661 472.5 1699 c 128,-1,11
 525 1737 525 1737 606 1737 c 0,0,1
1061 1737 m 0,12,13
 1140 1737 1140 1737 1188.5 1699.5 c 128,-1,14
 1237 1662 1237 1662 1237 1595 c 0,15,16
 1237 1526 1237 1526 1186 1489 c 128,-1,17
 1135 1452 1135 1452 1053 1452 c 0,18,19
 973 1452 973 1452 923.5 1488 c 128,-1,20
 874 1524 874 1524 874 1591 c 0,21,22
 874 1660 874 1660 926.5 1698.5 c 128,-1,23
 979 1737 979 1737 1061 1737 c 0,12,13
799 1393 m 0,24,25
 1032 1393 1032 1393 1147 1263 c 128,-1,26
 1262 1133 1262 1133 1262 870 c 0,27,28
 1262 736 1262 736 1234 607 c 128,-1,29
 1206 478 1206 478 1145 360 c 128,-1,30
 1084 242 1084 242 998 153.5 c 128,-1,31
 912 65 912 65 787 12 c 128,-1,32
 662 -41 662 -41 514 -41 c 0,33,34
 280 -41 280 -41 164.5 89.5 c 128,-1,35
 49 220 49 220 49 483 c 0,36,37
 49 618 49 618 77.5 747.5 c 128,-1,38
 106 877 106 877 167 994.5 c 128,-1,39
 228 1112 228 1112 315 1200 c 128,-1,40
 402 1288 402 1288 526.5 1340.5 c 128,-1,41
 651 1393 651 1393 799 1393 c 0,24,25
758 1249 m 0,42,43
 634 1249 634 1249 560 1117.5 c 128,-1,44
 486 986 486 986 444 731 c 1,45,46
 399 502 399 502 399 332 c 0,47,48
 399 224 399 224 433.5 164 c 128,-1,49
 468 104 468 104 553 104 c 0,50,51
 619 104 619 104 670.5 141 c 128,-1,52
 722 178 722 178 759 250 c 128,-1,53
 796 322 796 322 821.5 412 c 128,-1,54
 847 502 847 502 866 623 c 1,55,56
 911 856 911 856 911 1024 c 0,57,58
 911 1132 911 1132 877.5 1190.5 c 128,-1,59
 844 1249 844 1249 758 1249 c 0,42,43
EndSplineSet
Validated: 1
Position2: "'cpsp' Capital Spacing lookup 3 subtable" dx=10 dy=0 dh=20 dv=0
EndChar

StartChar: Odotbelow
Encoding: 7884 7884 91
Width: 1310
Flags: MW
HStem: -383 285<445 542> -41 145<493 643 493 769> 1249 143<671 819>
VStem: 49 350<308 388 266 705> 311 365<-288 -196> 911 350<968 1046 651 1089>
LayerCount: 2
Fore
SplineSet
799 1393 m 0,0,1
 1032 1393 1032 1393 1147 1263 c 128,-1,2
 1262 1133 1262 1133 1262 870 c 0,3,4
 1262 736 1262 736 1234 607 c 128,-1,5
 1206 478 1206 478 1145 360 c 128,-1,6
 1084 242 1084 242 998 153.5 c 128,-1,7
 912 65 912 65 787 12 c 128,-1,8
 662 -41 662 -41 514 -41 c 0,9,10
 280 -41 280 -41 164.5 89.5 c 128,-1,11
 49 220 49 220 49 483 c 0,12,13
 49 618 49 618 77.5 747.5 c 128,-1,14
 106 877 106 877 167 994.5 c 128,-1,15
 228 1112 228 1112 315 1200 c 128,-1,16
 402 1288 402 1288 526.5 1340.5 c 128,-1,17
 651 1393 651 1393 799 1393 c 0,0,1
758 1249 m 0,18,19
 634 1249 634 1249 560 1117.5 c 128,-1,20
 486 986 486 986 444 731 c 1,21,22
 399 502 399 502 399 332 c 0,23,24
 399 224 399 224 433.5 164 c 128,-1,25
 468 104 468 104 553 104 c 0,26,27
 619 104 619 104 670.5 141 c 128,-1,28
 722 178 722 178 759 250 c 128,-1,29
 796 322 796 322 821.5 412 c 128,-1,30
 847 502 847 502 866 623 c 1,31,32
 911 856 911 856 911 1024 c 0,33,34
 911 1132 911 1132 877.5 1190.5 c 128,-1,35
 844 1249 844 1249 758 1249 c 0,18,19
498 -98 m 0,36,37
 577 -98 577 -98 626.5 -135.5 c 128,-1,38
 676 -173 676 -173 676 -240 c 0,39,40
 676 -309 676 -309 623.5 -346 c 128,-1,41
 571 -383 571 -383 489 -383 c 0,42,43
 410 -383 410 -383 360.5 -347 c 128,-1,44
 311 -311 311 -311 311 -244 c 0,45,46
 311 -175 311 -175 363.5 -136.5 c 128,-1,47
 416 -98 416 -98 498 -98 c 0,36,37
EndSplineSet
Validated: 1
Position2: "'cpsp' Capital Spacing lookup 3 subtable" dx=10 dy=0 dh=20 dv=0
EndChar

StartChar: Ograve
Encoding: 210 210 92
Width: 1310
Flags: MW
HStem: -41 145<493 643 493 769> 1249 143<671 819>
VStem: 49 350<308 388 266 705> 911 350<968 1046 651 1089>
LayerCount: 2
Fore
SplineSet
997 1458 m 1,0,-1
 758 1468 l 2,1,2
 475 1480 475 1480 475 1647 c 0,3,4
 475 1710 475 1710 526 1749 c 1,5,-1
 1018 1552 l 1,6,-1
 997 1458 l 1,0,-1
799 1393 m 0,7,8
 1032 1393 1032 1393 1147 1263 c 128,-1,9
 1262 1133 1262 1133 1262 870 c 0,10,11
 1262 736 1262 736 1234 607 c 128,-1,12
 1206 478 1206 478 1145 360 c 128,-1,13
 1084 242 1084 242 998 153.5 c 128,-1,14
 912 65 912 65 787 12 c 128,-1,15
 662 -41 662 -41 514 -41 c 0,16,17
 280 -41 280 -41 164.5 89.5 c 128,-1,18
 49 220 49 220 49 483 c 0,19,20
 49 618 49 618 77.5 747.5 c 128,-1,21
 106 877 106 877 167 994.5 c 128,-1,22
 228 1112 228 1112 315 1200 c 128,-1,23
 402 1288 402 1288 526.5 1340.5 c 128,-1,24
 651 1393 651 1393 799 1393 c 0,7,8
758 1249 m 0,25,26
 634 1249 634 1249 560 1117.5 c 128,-1,27
 486 986 486 986 444 731 c 1,28,29
 399 502 399 502 399 332 c 0,30,31
 399 224 399 224 433.5 164 c 128,-1,32
 468 104 468 104 553 104 c 0,33,34
 619 104 619 104 670.5 141 c 128,-1,35
 722 178 722 178 759 250 c 128,-1,36
 796 322 796 322 821.5 412 c 128,-1,37
 847 502 847 502 866 623 c 1,38,39
 911 856 911 856 911 1024 c 0,40,41
 911 1132 911 1132 877.5 1190.5 c 128,-1,42
 844 1249 844 1249 758 1249 c 0,25,26
EndSplineSet
Validated: 1
Position2: "'cpsp' Capital Spacing lookup 3 subtable" dx=10 dy=0 dh=20 dv=0
EndChar

StartChar: Ohungarumlaut
Encoding: 336 336 93
Width: 1310
Flags: MW
HStem: -41 145<493 643 493 769> 1249 143<671 819>
VStem: 49 350<308 388 266 705> 911 350<968 1046 651 1089>
LayerCount: 2
Fore
SplineSet
856 1745 m 1,0,1
 924 1707 924 1707 924 1638 c 0,2,3
 924 1571 924 1571 877.5 1535 c 128,-1,4
 831 1499 831 1499 723 1475 c 2,5,-1
 555 1438 l 1,6,-1
 504 1507 l 1,7,-1
 856 1745 l 1,0,1
1268 1745 m 1,8,9
 1335 1707 1335 1707 1335 1640 c 0,10,11
 1335 1572 1335 1572 1289 1535.5 c 128,-1,12
 1243 1499 1243 1499 1137 1475 c 2,13,-1
 967 1438 l 1,14,-1
 915 1507 l 1,15,-1
 1268 1745 l 1,8,9
799 1393 m 0,16,17
 1032 1393 1032 1393 1147 1263 c 128,-1,18
 1262 1133 1262 1133 1262 870 c 0,19,20
 1262 736 1262 736 1234 607 c 128,-1,21
 1206 478 1206 478 1145 360 c 128,-1,22
 1084 242 1084 242 998 153.5 c 128,-1,23
 912 65 912 65 787 12 c 128,-1,24
 662 -41 662 -41 514 -41 c 0,25,26
 280 -41 280 -41 164.5 89.5 c 128,-1,27
 49 220 49 220 49 483 c 0,28,29
 49 618 49 618 77.5 747.5 c 128,-1,30
 106 877 106 877 167 994.5 c 128,-1,31
 228 1112 228 1112 315 1200 c 128,-1,32
 402 1288 402 1288 526.5 1340.5 c 128,-1,33
 651 1393 651 1393 799 1393 c 0,16,17
758 1249 m 0,34,35
 634 1249 634 1249 560 1117.5 c 128,-1,36
 486 986 486 986 444 731 c 1,37,38
 399 502 399 502 399 332 c 0,39,40
 399 224 399 224 433.5 164 c 128,-1,41
 468 104 468 104 553 104 c 0,42,43
 619 104 619 104 670.5 141 c 128,-1,44
 722 178 722 178 759 250 c 128,-1,45
 796 322 796 322 821.5 412 c 128,-1,46
 847 502 847 502 866 623 c 1,47,48
 911 856 911 856 911 1024 c 0,49,50
 911 1132 911 1132 877.5 1190.5 c 128,-1,51
 844 1249 844 1249 758 1249 c 0,34,35
EndSplineSet
Validated: 1
Position2: "'cpsp' Capital Spacing lookup 3 subtable" dx=10 dy=0 dh=20 dv=0
EndChar

StartChar: Omacron
Encoding: 332 332 94
Width: 1310
Flags: MW
HStem: -41 145<493 643 493 769> 1249 143<671 819> 1509 178<651 981 524 1120>
VStem: 49 350<308 388 266 705> 911 350<968 1046 651 1089>
LayerCount: 2
Fore
SplineSet
1120 1688 m 1,0,1
 1128 1660 1128 1660 1128 1634 c 0,2,3
 1128 1578 1128 1578 1090 1543.5 c 128,-1,4
 1052 1509 1052 1509 981 1509 c 2,5,-1
 524 1509 l 1,6,7
 520 1527 520 1527 520 1563 c 0,8,9
 521 1620 521 1620 557.5 1654 c 128,-1,10
 594 1688 594 1688 651 1688 c 2,11,-1
 1120 1688 l 1,0,1
799 1393 m 0,12,13
 1032 1393 1032 1393 1147 1263 c 128,-1,14
 1262 1133 1262 1133 1262 870 c 0,15,16
 1262 736 1262 736 1234 607 c 128,-1,17
 1206 478 1206 478 1145 360 c 128,-1,18
 1084 242 1084 242 998 153.5 c 128,-1,19
 912 65 912 65 787 12 c 128,-1,20
 662 -41 662 -41 514 -41 c 0,21,22
 280 -41 280 -41 164.5 89.5 c 128,-1,23
 49 220 49 220 49 483 c 0,24,25
 49 618 49 618 77.5 747.5 c 128,-1,26
 106 877 106 877 167 994.5 c 128,-1,27
 228 1112 228 1112 315 1200 c 128,-1,28
 402 1288 402 1288 526.5 1340.5 c 128,-1,29
 651 1393 651 1393 799 1393 c 0,12,13
758 1249 m 0,30,31
 634 1249 634 1249 560 1117.5 c 128,-1,32
 486 986 486 986 444 731 c 1,33,34
 399 502 399 502 399 332 c 0,35,36
 399 224 399 224 433.5 164 c 128,-1,37
 468 104 468 104 553 104 c 0,38,39
 619 104 619 104 670.5 141 c 128,-1,40
 722 178 722 178 759 250 c 128,-1,41
 796 322 796 322 821.5 412 c 128,-1,42
 847 502 847 502 866 623 c 1,43,44
 911 856 911 856 911 1024 c 0,45,46
 911 1132 911 1132 877.5 1190.5 c 128,-1,47
 844 1249 844 1249 758 1249 c 0,30,31
EndSplineSet
Validated: 1
Position2: "'cpsp' Capital Spacing lookup 3 subtable" dx=10 dy=0 dh=20 dv=0
EndChar

StartChar: Oogonek
Encoding: 490 490 95
Width: 1310
Flags: MW
HStem: -528 150<687 741> -41 145<493 523> 1249 143<671 819>
VStem: 49 350<308 388 266 705> 428 188<-305 -247> 911 350<968 1046 699 1089>
LayerCount: 2
Fore
SplineSet
809 20 m 1,0,1
 724 -33 724 -33 670 -110 c 128,-1,2
 616 -187 616 -187 616 -266 c 0,3,4
 616 -325 616 -325 642 -352 c 128,-1,5
 668 -379 668 -379 725 -379 c 0,6,7
 802 -379 802 -379 842 -328 c 1,8,9
 877 -363 877 -363 877 -406 c 0,10,11
 877 -458 877 -458 823.5 -493 c 128,-1,12
 770 -528 770 -528 680 -528 c 0,13,14
 563 -528 563 -528 495.5 -470 c 128,-1,15
 428 -412 428 -412 428 -303 c 0,16,17
 428 -145 428 -145 567 -39 c 1,18,19
 551 -41 551 -41 514 -41 c 0,20,21
 280 -41 280 -41 164.5 89.5 c 128,-1,22
 49 220 49 220 49 483 c 0,23,24
 49 618 49 618 77.5 747.5 c 128,-1,25
 106 877 106 877 167 994.5 c 128,-1,26
 228 1112 228 1112 315 1200 c 128,-1,27
 402 1288 402 1288 526.5 1340.5 c 128,-1,28
 651 1393 651 1393 799 1393 c 0,29,30
 1032 1393 1032 1393 1147 1263 c 128,-1,31
 1262 1133 1262 1133 1262 870 c 0,32,33
 1262 694 1262 694 1214 530 c 128,-1,34
 1166 366 1166 366 1061.5 227.5 c 128,-1,35
 957 89 957 89 809 20 c 1,0,1
399 332 m 0,36,37
 399 224 399 224 433.5 164 c 128,-1,38
 468 104 468 104 553 104 c 0,39,40
 619 104 619 104 670.5 141 c 128,-1,41
 722 178 722 178 759 250 c 128,-1,42
 796 322 796 322 821.5 412 c 128,-1,43
 847 502 847 502 866 623 c 1,44,45
 911 856 911 856 911 1024 c 0,46,47
 911 1132 911 1132 877.5 1190.5 c 128,-1,48
 844 1249 844 1249 758 1249 c 0,49,50
 634 1249 634 1249 560 1117.5 c 128,-1,51
 486 986 486 986 444 731 c 1,52,53
 399 502 399 502 399 332 c 0,36,37
EndSplineSet
Validated: 1
Position2: "'cpsp' Capital Spacing lookup 3 subtable" dx=10 dy=0 dh=20 dv=0
EndChar

StartChar: Oslash
Encoding: 216 216 96
Width: 1329
Flags: MW
HStem: -41 145<517 709 517 786> 1249 143<689 822> 1427 41G<1227 1250>
VStem: 68 369<565 565 565 705> 915 365<842 842>
LayerCount: 2
Fore
SplineSet
1122 1337 m 2,0,1
 1187 1410 1187 1410 1227 1468 c 1,2,3
 1264 1468 1264 1468 1295.5 1433 c 128,-1,4
 1327 1398 1327 1398 1327 1352 c 0,5,6
 1327 1297 1327 1297 1280 1247 c 2,7,-1
 1217 1178 l 1,8,9
 1280 1061 1280 1061 1280 870 c 0,10,11
 1280 736 1280 736 1252 607 c 128,-1,12
 1224 478 1224 478 1163 360 c 128,-1,13
 1102 242 1102 242 1015.5 153.5 c 128,-1,14
 929 65 929 65 804 12 c 128,-1,15
 679 -41 679 -41 530 -41 c 0,16,17
 333 -41 333 -41 215 57 c 1,18,-1
 201 43 l 1,19,20
 136 -25 136 -25 80 -115 c 1,21,22
 36 -115 36 -115 9 -85.5 c 128,-1,23
 -18 -56 -18 -56 -20 -10 c 1,24,25
 -20 54 -20 54 23 100 c 1,26,-1
 117 205 l 1,27,28
 68 315 68 315 68 483 c 0,29,30
 68 618 68 618 96.5 747.5 c 128,-1,31
 125 877 125 877 185.5 994.5 c 128,-1,32
 246 1112 246 1112 332 1200 c 128,-1,33
 418 1288 418 1288 542.5 1340.5 c 128,-1,34
 667 1393 667 1393 815 1393 c 0,35,36
 997 1393 997 1393 1104 1317 c 1,37,-1
 1122 1337 l 2,0,1
920 1110 m 1,38,39
 909 1176 909 1176 875 1212.5 c 128,-1,40
 841 1249 841 1249 776 1249 c 0,41,42
 652 1249 652 1249 578.5 1118.5 c 128,-1,43
 505 988 505 988 463 733 c 1,44,45
 443 630 443 630 436 565 c 1,46,-1
 920 1110 l 1,38,39
420 287 m 1,47,48
 430 104 430 104 569 104 c 0,49,50
 834.259599993 104 834.259599993 104 906.346270632 758.355454862 c 0,51,52
 908.410174408 777.090217916 908.410174408 777.090217916 915 842 c 1,53,-1
 420 287 l 1,47,48
EndSplineSet
Validated: 524289
Position2: "'cpsp' Capital Spacing lookup 3 subtable" dx=10 dy=0 dh=20 dv=0
EndChar

StartChar: Oslashacute
Encoding: 510 510 97
Width: 1329
Flags: MW
HStem: -41 145<517 709 517 786> 1249 143<689 822> 1427 41G<883 883 1227 1250>
VStem: 68 369<565 565 565 705> 915 365<842 842>
LayerCount: 2
Fore
SplineSet
623 1552 m 1,0,-1
 1112 1747 l 1,1,2
 1163 1713 1163 1713 1163 1647 c 0,3,4
 1163 1476 1163 1476 883 1468 c 1,5,-1
 643 1458 l 1,6,-1
 623 1552 l 1,0,-1
1122 1337 m 2,7,8
 1187 1410 1187 1410 1227 1468 c 1,9,10
 1264 1468 1264 1468 1295.5 1433 c 128,-1,11
 1327 1398 1327 1398 1327 1352 c 0,12,13
 1327 1297 1327 1297 1280 1247 c 2,14,-1
 1217 1178 l 1,15,16
 1280 1061 1280 1061 1280 870 c 0,17,18
 1280 736 1280 736 1252 607 c 128,-1,19
 1224 478 1224 478 1163 360 c 128,-1,20
 1102 242 1102 242 1015.5 153.5 c 128,-1,21
 929 65 929 65 804 12 c 128,-1,22
 679 -41 679 -41 530 -41 c 0,23,24
 333 -41 333 -41 215 57 c 1,25,-1
 201 43 l 1,26,27
 136 -25 136 -25 80 -115 c 1,28,29
 36 -115 36 -115 9 -85.5 c 128,-1,30
 -18 -56 -18 -56 -20 -10 c 1,31,32
 -20 54 -20 54 23 100 c 1,33,-1
 117 205 l 1,34,35
 68 315 68 315 68 483 c 0,36,37
 68 618 68 618 96.5 747.5 c 128,-1,38
 125 877 125 877 185.5 994.5 c 128,-1,39
 246 1112 246 1112 332 1200 c 128,-1,40
 418 1288 418 1288 542.5 1340.5 c 128,-1,41
 667 1393 667 1393 815 1393 c 0,42,43
 997 1393 997 1393 1104 1317 c 1,44,-1
 1122 1337 l 2,7,8
920 1110 m 1,45,46
 909 1176 909 1176 875 1212.5 c 128,-1,47
 841 1249 841 1249 776 1249 c 0,48,49
 652 1249 652 1249 578.5 1118.5 c 128,-1,50
 505 988 505 988 463 733 c 1,51,52
 443 630 443 630 436 565 c 1,53,-1
 920 1110 l 1,45,46
420 287 m 1,54,55
 430 104 430 104 569 104 c 0,56,57
 834.259599993 104 834.259599993 104 906.346270632 758.355454862 c 0,58,59
 908.410174408 777.090217916 908.410174408 777.090217916 915 842 c 1,60,-1
 420 287 l 1,54,55
EndSplineSet
Validated: 524289
Position2: "'cpsp' Capital Spacing lookup 3 subtable" dx=10 dy=0 dh=20 dv=0
EndChar

StartChar: Otilde
Encoding: 213 213 98
Width: 1310
Flags: MW
HStem: -41 145<493 643 493 769> 1249 143<671 819> 1483 197<996 1067 996 1068> 1518 197<607 676>
VStem: 49 350<308 388 266 705> 911 350<968 1046 651 1089>
LayerCount: 2
Fore
SplineSet
1155 1714 m 1,0,1
 1192 1669 1192 1669 1192 1620 c 0,2,3
 1192 1554 1192 1554 1144.5 1518.5 c 128,-1,4
 1097 1483 1097 1483 1014 1483 c 0,5,6
 968 1483 968 1483 821.5 1500.5 c 128,-1,7
 675 1518 675 1518 635 1518 c 0,8,9
 557 1518 557 1518 510 1485 c 1,10,11
 471 1537 471 1537 471 1589 c 0,12,13
 471 1649 471 1649 518.5 1681.5 c 128,-1,14
 566 1714 566 1714 655 1714 c 0,15,16
 707 1714 707 1714 852 1696.5 c 128,-1,17
 997 1679 997 1679 1042 1679 c 0,18,19
 1127 1679 1127 1679 1155 1714 c 1,0,1
799 1393 m 0,20,21
 1032 1393 1032 1393 1147 1263 c 128,-1,22
 1262 1133 1262 1133 1262 870 c 0,23,24
 1262 736 1262 736 1234 607 c 128,-1,25
 1206 478 1206 478 1145 360 c 128,-1,26
 1084 242 1084 242 998 153.5 c 128,-1,27
 912 65 912 65 787 12 c 128,-1,28
 662 -41 662 -41 514 -41 c 0,29,30
 280 -41 280 -41 164.5 89.5 c 128,-1,31
 49 220 49 220 49 483 c 0,32,33
 49 618 49 618 77.5 747.5 c 128,-1,34
 106 877 106 877 167 994.5 c 128,-1,35
 228 1112 228 1112 315 1200 c 128,-1,36
 402 1288 402 1288 526.5 1340.5 c 128,-1,37
 651 1393 651 1393 799 1393 c 0,20,21
758 1249 m 0,38,39
 634 1249 634 1249 560 1117.5 c 128,-1,40
 486 986 486 986 444 731 c 1,41,42
 399 502 399 502 399 332 c 0,43,44
 399 224 399 224 433.5 164 c 128,-1,45
 468 104 468 104 553 104 c 0,46,47
 619 104 619 104 670.5 141 c 128,-1,48
 722 178 722 178 759 250 c 128,-1,49
 796 322 796 322 821.5 412 c 128,-1,50
 847 502 847 502 866 623 c 1,51,52
 911 856 911 856 911 1024 c 0,53,54
 911 1132 911 1132 877.5 1190.5 c 128,-1,55
 844 1249 844 1249 758 1249 c 0,38,39
EndSplineSet
Validated: 1
Position2: "'cpsp' Capital Spacing lookup 3 subtable" dx=10 dy=0 dh=20 dv=0
EndChar

StartChar: OE
Encoding: 338 338 99
Width: 1701
Flags: MW
HStem: -41 145<490 599> -41 236<1303 1329> 584 199<1359 1453> 1126 225<1478 1583> 1182 170<1257 1257> 1249 143<670 818>
VStem: 49 350<303 389 270 703>
LayerCount: 2
Fore
SplineSet
1595 782 m 1,0,1
 1595 683 1595 683 1541 633.5 c 128,-1,2
 1487 584 1487 584 1391 584 c 0,3,4
 1282 584 1282 584 1194 627 c 1,5,6
 1169 413 1169 413 1169 379 c 0,7,8
 1169 274 1169 274 1216.5 234.5 c 128,-1,9
 1264 195 1264 195 1368 195 c 0,10,11
 1476 195 1476 195 1559 225 c 1,12,13
 1575 189 1575 189 1575 145 c 0,14,15
 1575 92 1575 92 1546 53.5 c 128,-1,16
 1517 15 1517 15 1468.5 -4.5 c 128,-1,17
 1420 -24 1420 -24 1369 -32.5 c 128,-1,18
 1318 -41 1318 -41 1260 -41 c 0,19,20
 1016 -41 1016 -41 932 117 c 1,21,22
 774 -41 774 -41 520 -41 c 0,23,24
 281 -41 281 -41 165 87 c 128,-1,25
 49 215 49 215 49 477 c 0,26,27
 49 614 49 614 78.5 746 c 128,-1,28
 108 878 108 878 169 995 c 128,-1,29
 230 1112 230 1112 315.5 1201 c 128,-1,30
 401 1290 401 1290 521.5 1341.5 c 128,-1,31
 642 1393 642 1393 782 1393 c 0,32,33
 916 1393 916 1393 1016 1352 c 1,34,-1
 1751 1352 l 1,35,36
 1751 1238 1751 1238 1687 1182 c 128,-1,37
 1623 1126 1623 1126 1516 1126 c 0,38,39
 1459 1126 1459 1126 1386.5 1141.5 c 128,-1,40
 1314 1157 1314 1157 1257 1182 c 1,41,-1
 1212 782 l 1,42,-1
 1595 782 l 1,0,1
551 104 m 0,43,44
 615 104 615 104 666.5 141 c 128,-1,45
 718 178 718 178 755 249.5 c 128,-1,46
 792 321 792 321 818 412 c 128,-1,47
 844 503 844 503 864 625 c 1,48,49
 909 854 909 854 909 1020 c 0,50,51
 909 1127 909 1127 875.5 1188 c 128,-1,52
 842 1249 842 1249 758 1249 c 0,53,54
 694 1249 694 1249 642.5 1212 c 128,-1,55
 591 1175 591 1175 553.5 1104 c 128,-1,56
 516 1033 516 1033 490 941.5 c 128,-1,57
 464 850 464 850 444 729 c 1,58,59
 399 500 399 500 399 334 c 0,60,61
 399 227 399 227 433 165.5 c 128,-1,62
 467 104 467 104 551 104 c 0,43,44
EndSplineSet
Validated: 1
Position2: "'cpsp' Capital Spacing lookup 3 subtable" dx=10 dy=0 dh=20 dv=0
EndChar

StartChar: P
Encoding: 80 80 100
Width: 1157
Flags: MW
HStem: 561 109 1233 135<687 771>
VStem: 897 324<918 1093>
LayerCount: 2
Fore
SplineSet
16 0 m 1,0,-1
 276 1352 l 1,1,2
 534 1368 534 1368 637 1368 c 0,3,4
 735 1368 735 1368 808 1362.5 c 128,-1,5
 881 1357 881 1357 950 1343.5 c 128,-1,6
 1019 1330 1019 1330 1066.5 1305 c 128,-1,7
 1114 1280 1114 1280 1150 1242 c 128,-1,8
 1186 1204 1186 1204 1203.5 1148 c 128,-1,9
 1221 1092 1221 1092 1221 1018 c 0,10,11
 1221 812 1221 812 1095.5 686.5 c 128,-1,12
 970 561 970 561 770 561 c 0,13,14
 687 561 687 561 625.5 587 c 128,-1,15
 564 613 564 613 547 672 c 1,16,17
 552 672 552 672 560.5 671 c 128,-1,18
 569 670 569 670 573 670 c 0,19,20
 588 670 588 670 612 674 c 1,21,22
 742 683 742 683 819.5 775.5 c 128,-1,23
 897 868 897 868 897 1020 c 0,24,25
 897 1130 897 1130 850.5 1181.5 c 128,-1,26
 804 1233 804 1233 702 1233 c 0,27,28
 652 1233 652 1233 594 1223 c 1,29,-1
 358 0 l 1,30,-1
 16 0 l 1,0,-1
EndSplineSet
Validated: 1
Position2: "'cpsp' Capital Spacing lookup 3 subtable" dx=10 dy=0 dh=20 dv=0
EndChar

StartChar: Thorn
Encoding: 222 222 101
Width: 1116
Flags: MW
HStem: 299 111 963 139<664 712> 963 389<276 712>
VStem: 848 324<647 823>
LayerCount: 2
Fore
SplineSet
571 1100 m 1,0,1
 604 1102 604 1102 680 1102 c 0,2,3
 798 1102 798 1102 883.5 1086 c 128,-1,4
 969 1070 969 1070 1036.5 1032 c 128,-1,5
 1104 994 1104 994 1137.5 925 c 128,-1,6
 1171 856 1171 856 1171 756 c 0,7,8
 1171 552 1171 552 1046.5 425.5 c 128,-1,9
 922 299 922 299 721 299 c 0,10,11
 638 299 638 299 576.5 325 c 128,-1,12
 515 351 515 351 498 410 c 1,13,-1
 549 410 l 1,14,15
 693 419 693 419 770.5 507.5 c 128,-1,16
 848 596 848 596 848 745 c 0,17,18
 848 861 848 861 798 912 c 128,-1,19
 748 963 748 963 641 963 c 0,20,21
 596 963 596 963 543 952 c 1,22,-1
 358 0 l 1,23,-1
 16 0 l 1,24,-1
 276 1352 l 1,25,-1
 621 1352 l 1,26,-1
 571 1100 l 1,0,1
EndSplineSet
Validated: 1
Position2: "'cpsp' Capital Spacing lookup 3 subtable" dx=10 dy=0 dh=20 dv=0
EndChar

StartChar: Q
Encoding: 81 81 102
Width: 1314
Flags: MW
HStem: -340 256<859 976 859 1013> -72 41G 180 109 1249 143<707 849>
VStem: 72 352<413 492 400 715> 934 350<959 1048 659 1078>
LayerCount: 2
Fore
SplineSet
823 1393 m 0,0,1
 1284 1393 1284 1393 1284 877 c 0,2,3
 1284 747 1284 747 1252.5 617.5 c 128,-1,4
 1221 488 1221 488 1160 374 c 128,-1,5
 1099 260 1099 260 1016.5 170 c 128,-1,6
 934 80 934 80 824 25.5 c 128,-1,7
 714 -29 714 -29 592 -35 c 1,8,9
 777 -84 777 -84 930 -84 c 0,10,11
 1090 -84 1090 -84 1180 -31 c 1,12,13
 1206 -78 1206 -78 1206 -143 c 0,14,15
 1206 -214 1206 -214 1166.5 -260 c 128,-1,16
 1127 -306 1127 -306 1072.5 -323 c 128,-1,17
 1018 -340 1018 -340 952 -340 c 0,18,19
 879 -340 879 -340 796.5 -321 c 128,-1,20
 714 -302 714 -302 652.5 -279.5 c 128,-1,21
 591 -257 591 -257 515 -238 c 128,-1,22
 439 -219 439 -219 377 -219 c 0,23,24
 278 -219 278 -219 213 -258 c 1,25,26
 158 -197 158 -197 158 -117 c 0,27,28
 158 -88 158 -88 166 -64 c 128,-1,29
 174 -40 174 -40 186 -23.5 c 128,-1,30
 198 -7 198 -7 220.5 6.5 c 128,-1,31
 243 20 243 20 261.5 28 c 128,-1,32
 280 36 280 36 312.5 43 c 128,-1,33
 345 50 345 50 366.5 53 c 128,-1,34
 388 56 388 56 426 61 c 0,35,36
 513 72 513 72 576.5 98.5 c 128,-1,37
 640 125 640 125 702 184.5 c 128,-1,38
 764 244 764 244 810.5 353.5 c 128,-1,39
 857 463 857 463 889 625 c 0,40,41
 934 857 934 857 934 1014 c 0,42,43
 934 1124 934 1124 903 1186.5 c 128,-1,44
 872 1249 872 1249 791 1249 c 0,45,46
 731 1249 731 1249 679 1212.5 c 128,-1,47
 627 1176 627 1176 589.5 1111 c 128,-1,48
 552 1046 552 1046 525 974.5 c 128,-1,49
 498 903 498 903 477 817 c 0,50,51
 424 607 424 607 424 440 c 0,52,53
 424 372 424 372 443.5 334 c 128,-1,54
 463 296 463 296 518 289 c 1,55,56
 518 241 518 241 472 210.5 c 128,-1,57
 426 180 426 180 344 180 c 0,58,59
 72 180 72 180 72 526 c 0,60,61
 72 642 72 642 100.5 761 c 128,-1,62
 129 880 129 880 190 994 c 128,-1,63
 251 1108 251 1108 337.5 1196.5 c 128,-1,64
 424 1285 424 1285 550 1339 c 128,-1,65
 676 1393 676 1393 823 1393 c 0,0,1
EndSplineSet
Validated: 1
Position2: "'cpsp' Capital Spacing lookup 3 subtable" dx=10 dy=0 dh=20 dv=0
EndChar

StartChar: R
Encoding: 82 82 103
Width: 1234
Flags: MW
HStem: 1233 133<671 760>
VStem: 883 326<906 1081>
LayerCount: 2
Fore
SplineSet
276 1352 m 1,0,1
 596 1366 596 1366 684 1366 c 0,2,3
 784 1366 784 1366 856.5 1358.5 c 128,-1,4
 929 1351 929 1351 999 1329.5 c 128,-1,5
 1069 1308 1069 1308 1112.5 1270.5 c 128,-1,6
 1156 1233 1156 1233 1182 1170.5 c 128,-1,7
 1208 1108 1208 1108 1208 1022 c 0,8,9
 1208 850 1208 850 1116.5 732.5 c 128,-1,10
 1025 615 1025 615 870 586 c 1,11,12
 946 380 946 380 1028.5 255.5 c 128,-1,13
 1111 131 1111 131 1188 96 c 1,14,15
 1167 27 1167 27 1114 -7 c 128,-1,16
 1061 -41 1061 -41 987 -41 c 0,17,18
 943 -41 943 -41 906 -30.5 c 128,-1,19
 869 -20 869 -20 836 6.5 c 128,-1,20
 803 33 803 33 777 62.5 c 128,-1,21
 751 92 751 92 724.5 145.5 c 128,-1,22
 698 199 698 199 678 245.5 c 128,-1,23
 658 292 658 292 632.5 372 c 128,-1,24
 607 452 607 452 588.5 516 c 128,-1,25
 570 580 570 580 541 684 c 1,26,27
 555 682 555 682 575 682 c 0,28,29
 725 682 725 682 804 767 c 128,-1,30
 883 852 883 852 883 1008 c 0,31,32
 883 1121 883 1121 837.5 1177 c 128,-1,33
 792 1233 792 1233 690 1233 c 0,34,35
 644 1233 644 1233 594 1225 c 1,36,-1
 358 0 l 1,37,-1
 20 0 l 1,38,-1
 276 1352 l 1,0,1
EndSplineSet
Validated: 1
Position2: "'cpsp' Capital Spacing lookup 3 subtable" dx=10 dy=0 dh=20 dv=0
EndChar

StartChar: Racute
Encoding: 340 340 104
Width: 1234
Flags: MW
HStem: 1233 133<671 760>
VStem: 883 326<906 1081>
LayerCount: 2
Fore
SplineSet
573 1552 m 1,0,-1
 1063 1747 l 1,1,2
 1114 1713 1114 1713 1114 1647 c 0,3,4
 1114 1476 1114 1476 834 1468 c 1,5,-1
 594 1458 l 1,6,-1
 573 1552 l 1,0,-1
276 1352 m 1,7,8
 596 1366 596 1366 684 1366 c 0,9,10
 784 1366 784 1366 856.5 1358.5 c 128,-1,11
 929 1351 929 1351 999 1329.5 c 128,-1,12
 1069 1308 1069 1308 1112.5 1270.5 c 128,-1,13
 1156 1233 1156 1233 1182 1170.5 c 128,-1,14
 1208 1108 1208 1108 1208 1022 c 0,15,16
 1208 850 1208 850 1116.5 732.5 c 128,-1,17
 1025 615 1025 615 870 586 c 1,18,19
 946 380 946 380 1028.5 255.5 c 128,-1,20
 1111 131 1111 131 1188 96 c 1,21,22
 1167 27 1167 27 1114 -7 c 128,-1,23
 1061 -41 1061 -41 987 -41 c 0,24,25
 943 -41 943 -41 906 -30.5 c 128,-1,26
 869 -20 869 -20 836 6.5 c 128,-1,27
 803 33 803 33 777 62.5 c 128,-1,28
 751 92 751 92 724.5 145.5 c 128,-1,29
 698 199 698 199 678 245.5 c 128,-1,30
 658 292 658 292 632.5 372 c 128,-1,31
 607 452 607 452 588.5 516 c 128,-1,32
 570 580 570 580 541 684 c 1,33,34
 555 682 555 682 575 682 c 0,35,36
 725 682 725 682 804 767 c 128,-1,37
 883 852 883 852 883 1008 c 0,38,39
 883 1121 883 1121 837.5 1177 c 128,-1,40
 792 1233 792 1233 690 1233 c 0,41,42
 644 1233 644 1233 594 1225 c 1,43,-1
 358 0 l 1,44,-1
 20 0 l 1,45,-1
 276 1352 l 1,7,8
EndSplineSet
Validated: 1
Position2: "'cpsp' Capital Spacing lookup 3 subtable" dx=10 dy=0 dh=20 dv=0
EndChar

StartChar: Rcaron
Encoding: 344 344 105
Width: 1234
Flags: MW
HStem: 1233 133<671 760>
VStem: 883 326<906 1081>
LayerCount: 2
Fore
SplineSet
545 1733 m 1,0,-1
 772 1626 l 1,1,-1
 1057 1733 l 1,2,-1
 1116 1645 l 1,3,-1
 788 1417 l 1,4,-1
 715 1417 l 1,5,-1
 453 1647 l 1,6,-1
 545 1733 l 1,0,-1
276 1352 m 1,7,8
 596 1366 596 1366 684 1366 c 0,9,10
 784 1366 784 1366 856.5 1358.5 c 128,-1,11
 929 1351 929 1351 999 1329.5 c 128,-1,12
 1069 1308 1069 1308 1112.5 1270.5 c 128,-1,13
 1156 1233 1156 1233 1182 1170.5 c 128,-1,14
 1208 1108 1208 1108 1208 1022 c 0,15,16
 1208 850 1208 850 1116.5 732.5 c 128,-1,17
 1025 615 1025 615 870 586 c 1,18,19
 946 380 946 380 1028.5 255.5 c 128,-1,20
 1111 131 1111 131 1188 96 c 1,21,22
 1167 27 1167 27 1114 -7 c 128,-1,23
 1061 -41 1061 -41 987 -41 c 0,24,25
 943 -41 943 -41 906 -30.5 c 128,-1,26
 869 -20 869 -20 836 6.5 c 128,-1,27
 803 33 803 33 777 62.5 c 128,-1,28
 751 92 751 92 724.5 145.5 c 128,-1,29
 698 199 698 199 678 245.5 c 128,-1,30
 658 292 658 292 632.5 372 c 128,-1,31
 607 452 607 452 588.5 516 c 128,-1,32
 570 580 570 580 541 684 c 1,33,34
 555 682 555 682 575 682 c 0,35,36
 725 682 725 682 804 767 c 128,-1,37
 883 852 883 852 883 1008 c 0,38,39
 883 1121 883 1121 837.5 1177 c 128,-1,40
 792 1233 792 1233 690 1233 c 0,41,42
 644 1233 644 1233 594 1225 c 1,43,-1
 358 0 l 1,44,-1
 20 0 l 1,45,-1
 276 1352 l 1,7,8
EndSplineSet
Validated: 1
Position2: "'cpsp' Capital Spacing lookup 3 subtable" dx=10 dy=0 dh=20 dv=0
EndChar

StartChar: Rcommaaccent
Encoding: 342 342 106
Width: 1234
Flags: MW
HStem: 1233 133<671 760>
VStem: 442 242<-275 -204> 883 326<906 1081>
LayerCount: 2
Fore
SplineSet
276 1352 m 1,0,1
 596 1366 596 1366 684 1366 c 0,2,3
 784 1366 784 1366 856.5 1358.5 c 128,-1,4
 929 1351 929 1351 999 1329.5 c 128,-1,5
 1069 1308 1069 1308 1112.5 1270.5 c 128,-1,6
 1156 1233 1156 1233 1182 1170.5 c 128,-1,7
 1208 1108 1208 1108 1208 1022 c 0,8,9
 1208 850 1208 850 1116.5 732.5 c 128,-1,10
 1025 615 1025 615 870 586 c 1,11,12
 946 380 946 380 1028.5 255.5 c 128,-1,13
 1111 131 1111 131 1188 96 c 1,14,15
 1167 27 1167 27 1114 -7 c 128,-1,16
 1061 -41 1061 -41 987 -41 c 0,17,18
 943 -41 943 -41 906 -30.5 c 128,-1,19
 869 -20 869 -20 836 6.5 c 128,-1,20
 803 33 803 33 777 62.5 c 128,-1,21
 751 92 751 92 724.5 145.5 c 128,-1,22
 698 199 698 199 678 245.5 c 128,-1,23
 658 292 658 292 632.5 372 c 128,-1,24
 607 452 607 452 588.5 516 c 128,-1,25
 570 580 570 580 541 684 c 1,26,27
 555 682 555 682 575 682 c 0,28,29
 725 682 725 682 804 767 c 128,-1,30
 883 852 883 852 883 1008 c 0,31,32
 883 1121 883 1121 837.5 1177 c 128,-1,33
 792 1233 792 1233 690 1233 c 0,34,35
 644 1233 644 1233 594 1225 c 1,36,-1
 358 0 l 1,37,-1
 20 0 l 1,38,-1
 276 1352 l 1,0,1
684 -229 m 0,39,40
 684 -304 684 -304 637 -370 c 128,-1,41
 590 -436 590 -436 522.5 -472 c 128,-1,42
 455 -508 455 -508 391 -508 c 0,43,44
 344 -508 344 -508 322 -492 c 1,45,46
 383 -419 383 -419 412.5 -358 c 128,-1,47
 442 -297 442 -297 442 -219 c 0,48,49
 442 -169 442 -169 426 -129 c 1,50,51
 445 -118 445 -118 479.5 -110 c 128,-1,52
 514 -102 514 -102 543 -102 c 0,53,54
 607 -102 607 -102 645.5 -136 c 128,-1,55
 684 -170 684 -170 684 -229 c 0,39,40
EndSplineSet
Validated: 1
Position2: "'cpsp' Capital Spacing lookup 3 subtable" dx=10 dy=0 dh=20 dv=0
EndChar

StartChar: Rdotbelow
Encoding: 7770 7770 107
Width: 1234
Flags: MW
HStem: -383 285<484 581> 1233 133<671 760>
VStem: 350 365<-288 -196> 883 326<906 1081>
LayerCount: 2
Fore
SplineSet
276 1352 m 1,0,1
 596 1366 596 1366 684 1366 c 0,2,3
 784 1366 784 1366 856.5 1358.5 c 128,-1,4
 929 1351 929 1351 999 1329.5 c 128,-1,5
 1069 1308 1069 1308 1112.5 1270.5 c 128,-1,6
 1156 1233 1156 1233 1182 1170.5 c 128,-1,7
 1208 1108 1208 1108 1208 1022 c 0,8,9
 1208 850 1208 850 1116.5 732.5 c 128,-1,10
 1025 615 1025 615 870 586 c 1,11,12
 946 380 946 380 1028.5 255.5 c 128,-1,13
 1111 131 1111 131 1188 96 c 1,14,15
 1167 27 1167 27 1114 -7 c 128,-1,16
 1061 -41 1061 -41 987 -41 c 0,17,18
 943 -41 943 -41 906 -30.5 c 128,-1,19
 869 -20 869 -20 836 6.5 c 128,-1,20
 803 33 803 33 777 62.5 c 128,-1,21
 751 92 751 92 724.5 145.5 c 128,-1,22
 698 199 698 199 678 245.5 c 128,-1,23
 658 292 658 292 632.5 372 c 128,-1,24
 607 452 607 452 588.5 516 c 128,-1,25
 570 580 570 580 541 684 c 1,26,27
 555 682 555 682 575 682 c 0,28,29
 725 682 725 682 804 767 c 128,-1,30
 883 852 883 852 883 1008 c 0,31,32
 883 1121 883 1121 837.5 1177 c 128,-1,33
 792 1233 792 1233 690 1233 c 0,34,35
 644 1233 644 1233 594 1225 c 1,36,-1
 358 0 l 1,37,-1
 20 0 l 1,38,-1
 276 1352 l 1,0,1
537 -98 m 0,39,40
 616 -98 616 -98 665.5 -135.5 c 128,-1,41
 715 -173 715 -173 715 -240 c 0,42,43
 715 -309 715 -309 662.5 -346 c 128,-1,44
 610 -383 610 -383 528 -383 c 0,45,46
 449 -383 449 -383 399.5 -347 c 128,-1,47
 350 -311 350 -311 350 -244 c 0,48,49
 350 -175 350 -175 402.5 -136.5 c 128,-1,50
 455 -98 455 -98 537 -98 c 0,39,40
EndSplineSet
Validated: 1
Position2: "'cpsp' Capital Spacing lookup 3 subtable" dx=10 dy=0 dh=20 dv=0
EndChar

StartChar: S
Encoding: 83 83 108
Width: 1110
Flags: MW
HStem: -43 137<407 509 407 552> 1264 129<611 710>
VStem: 8 303<191 262 191 284> 152 317<997 1092> 668 324<263 350> 795 295<1092 1159>
LayerCount: 2
Fore
SplineSet
727 1393 m 0,0,1
 800 1393 800 1393 862 1380.5 c 128,-1,2
 924 1368 924 1368 977 1341 c 128,-1,3
 1030 1314 1030 1314 1060 1265 c 128,-1,4
 1090 1216 1090 1216 1090 1149 c 0,5,6
 1090 1047 1090 1047 1024.5 990.5 c 128,-1,7
 959 934 959 934 872 934 c 0,8,9
 817 934 817 934 764 958 c 1,10,11
 795 1031 795 1031 795 1114 c 0,12,13
 795 1184 795 1184 762.5 1224 c 128,-1,14
 730 1264 730 1264 666 1264 c 0,15,16
 584 1264 584 1264 526.5 1205.5 c 128,-1,17
 469 1147 469 1147 469 1065 c 0,18,19
 469 1040 469 1040 476 1016.5 c 128,-1,20
 483 993 483 993 491 975 c 128,-1,21
 499 957 499 957 519.5 935 c 128,-1,22
 540 913 540 913 552 900.5 c 128,-1,23
 564 888 564 888 594.5 866 c 128,-1,24
 625 844 625 844 637.5 835.5 c 128,-1,25
 650 827 650 827 687 803 c 128,-1,26
 724 779 724 779 735 772 c 0,27,28
 781 741 781 741 811.5 718 c 128,-1,29
 842 695 842 695 879 658.5 c 128,-1,30
 916 622 916 622 938 587 c 128,-1,31
 960 552 960 552 975.5 503.5 c 128,-1,32
 991 455 991 455 991 401 c 0,33,34
 991 268 991 268 906.5 165 c 128,-1,35
 822 62 822 62 688 9.5 c 128,-1,36
 554 -43 554 -43 397 -43 c 0,37,38
 323 -43 323 -43 257.5 -29.5 c 128,-1,39
 192 -16 192 -16 134 13 c 128,-1,40
 76 42 76 42 42 95 c 128,-1,41
 8 148 8 148 8 219 c 0,42,43
 8 314 8 314 66.5 371 c 128,-1,44
 125 428 125 428 219 428 c 0,45,46
 280 428 280 428 342 401 c 1,47,48
 311 322 311 322 311 238 c 0,49,50
 311 169 311 169 347.5 131.5 c 128,-1,51
 384 94 384 94 453 94 c 0,52,53
 541 94 541 94 604.5 147 c 128,-1,54
 668 200 668 200 668 285 c 0,55,56
 668 309 668 309 661 332 c 128,-1,57
 654 355 654 355 645.5 373.5 c 128,-1,58
 637 392 637 392 618 413 c 128,-1,59
 599 434 599 434 585.5 447.5 c 128,-1,60
 572 461 572 461 544.5 482.5 c 128,-1,61
 517 504 517 504 502.5 514 c 128,-1,62
 488 524 488 524 455.5 546.5 c 128,-1,63
 423 569 423 569 410 578 c 0,64,65
 363 610 363 610 332.5 633.5 c 128,-1,66
 302 657 302 657 264.5 694 c 128,-1,67
 227 731 227 731 205 767 c 128,-1,68
 183 803 183 803 167.5 852.5 c 128,-1,69
 152 902 152 902 152 958 c 0,70,71
 152 1088 152 1088 228.5 1188 c 128,-1,72
 305 1288 305 1288 435 1340.5 c 128,-1,73
 565 1393 565 1393 727 1393 c 0,0,1
EndSplineSet
Validated: 1
Position2: "'cpsp' Capital Spacing lookup 3 subtable" dx=10 dy=0 dh=20 dv=0
EndChar

StartChar: Sacute
Encoding: 346 346 109
Width: 1110
Flags: MW
HStem: -43 137<407 509 407 552> 1264 129<611 710>
VStem: 8 303<191 262 191 284> 152 317<997 1092> 668 324<263 350> 795 295<1092 1159>
LayerCount: 2
Fore
SplineSet
586 1552 m 1,0,-1
 1075 1747 l 1,1,2
 1126 1713 1126 1713 1126 1647 c 0,3,4
 1126 1476 1126 1476 846 1468 c 1,5,-1
 606 1458 l 1,6,-1
 586 1552 l 1,0,-1
727 1393 m 0,7,8
 800 1393 800 1393 862 1380.5 c 128,-1,9
 924 1368 924 1368 977 1341 c 128,-1,10
 1030 1314 1030 1314 1060 1265 c 128,-1,11
 1090 1216 1090 1216 1090 1149 c 0,12,13
 1090 1047 1090 1047 1024.5 990.5 c 128,-1,14
 959 934 959 934 872 934 c 0,15,16
 817 934 817 934 764 958 c 1,17,18
 795 1031 795 1031 795 1114 c 0,19,20
 795 1184 795 1184 762.5 1224 c 128,-1,21
 730 1264 730 1264 666 1264 c 0,22,23
 584 1264 584 1264 526.5 1205.5 c 128,-1,24
 469 1147 469 1147 469 1065 c 0,25,26
 469 1040 469 1040 476 1016.5 c 128,-1,27
 483 993 483 993 491 975 c 128,-1,28
 499 957 499 957 519.5 935 c 128,-1,29
 540 913 540 913 552 900.5 c 128,-1,30
 564 888 564 888 594.5 866 c 128,-1,31
 625 844 625 844 637.5 835.5 c 128,-1,32
 650 827 650 827 687 803 c 128,-1,33
 724 779 724 779 735 772 c 0,34,35
 781 741 781 741 811.5 718 c 128,-1,36
 842 695 842 695 879 658.5 c 128,-1,37
 916 622 916 622 938 587 c 128,-1,38
 960 552 960 552 975.5 503.5 c 128,-1,39
 991 455 991 455 991 401 c 0,40,41
 991 268 991 268 906.5 165 c 128,-1,42
 822 62 822 62 688 9.5 c 128,-1,43
 554 -43 554 -43 397 -43 c 0,44,45
 323 -43 323 -43 257.5 -29.5 c 128,-1,46
 192 -16 192 -16 134 13 c 128,-1,47
 76 42 76 42 42 95 c 128,-1,48
 8 148 8 148 8 219 c 0,49,50
 8 314 8 314 66.5 371 c 128,-1,51
 125 428 125 428 219 428 c 0,52,53
 280 428 280 428 342 401 c 1,54,55
 311 322 311 322 311 238 c 0,56,57
 311 169 311 169 347.5 131.5 c 128,-1,58
 384 94 384 94 453 94 c 0,59,60
 541 94 541 94 604.5 147 c 128,-1,61
 668 200 668 200 668 285 c 0,62,63
 668 309 668 309 661 332 c 128,-1,64
 654 355 654 355 645.5 373.5 c 128,-1,65
 637 392 637 392 618 413 c 128,-1,66
 599 434 599 434 585.5 447.5 c 128,-1,67
 572 461 572 461 544.5 482.5 c 128,-1,68
 517 504 517 504 502.5 514 c 128,-1,69
 488 524 488 524 455.5 546.5 c 128,-1,70
 423 569 423 569 410 578 c 0,71,72
 363 610 363 610 332.5 633.5 c 128,-1,73
 302 657 302 657 264.5 694 c 128,-1,74
 227 731 227 731 205 767 c 128,-1,75
 183 803 183 803 167.5 852.5 c 128,-1,76
 152 902 152 902 152 958 c 0,77,78
 152 1088 152 1088 228.5 1188 c 128,-1,79
 305 1288 305 1288 435 1340.5 c 128,-1,80
 565 1393 565 1393 727 1393 c 0,7,8
EndSplineSet
Validated: 1
Substitution2: "'locl' Localized Forms in Latin lookup 13 subtable" Sacute.loclPLK
Substitution2: "'aalt' Access All Alternates lookup 0 subtable" Sacute.loclPLK
Position2: "'cpsp' Capital Spacing lookup 3 subtable" dx=10 dy=0 dh=20 dv=0
EndChar

StartChar: Scaron
Encoding: 352 352 110
Width: 1110
Flags: MW
HStem: -43 137<407 509 407 552> 1264 129<611 710>
VStem: 8 303<191 262 191 284> 152 317<997 1092> 668 324<263 350> 795 295<1092 1159>
LayerCount: 2
Fore
SplineSet
557 1733 m 1,0,-1
 784 1626 l 1,1,-1
 1069 1733 l 1,2,-1
 1128 1645 l 1,3,-1
 801 1417 l 1,4,-1
 727 1417 l 1,5,-1
 465 1647 l 1,6,-1
 557 1733 l 1,0,-1
727 1393 m 0,7,8
 800 1393 800 1393 862 1380.5 c 128,-1,9
 924 1368 924 1368 977 1341 c 128,-1,10
 1030 1314 1030 1314 1060 1265 c 128,-1,11
 1090 1216 1090 1216 1090 1149 c 0,12,13
 1090 1047 1090 1047 1024.5 990.5 c 128,-1,14
 959 934 959 934 872 934 c 0,15,16
 817 934 817 934 764 958 c 1,17,18
 795 1031 795 1031 795 1114 c 0,19,20
 795 1184 795 1184 762.5 1224 c 128,-1,21
 730 1264 730 1264 666 1264 c 0,22,23
 584 1264 584 1264 526.5 1205.5 c 128,-1,24
 469 1147 469 1147 469 1065 c 0,25,26
 469 1040 469 1040 476 1016.5 c 128,-1,27
 483 993 483 993 491 975 c 128,-1,28
 499 957 499 957 519.5 935 c 128,-1,29
 540 913 540 913 552 900.5 c 128,-1,30
 564 888 564 888 594.5 866 c 128,-1,31
 625 844 625 844 637.5 835.5 c 128,-1,32
 650 827 650 827 687 803 c 128,-1,33
 724 779 724 779 735 772 c 0,34,35
 781 741 781 741 811.5 718 c 128,-1,36
 842 695 842 695 879 658.5 c 128,-1,37
 916 622 916 622 938 587 c 128,-1,38
 960 552 960 552 975.5 503.5 c 128,-1,39
 991 455 991 455 991 401 c 0,40,41
 991 268 991 268 906.5 165 c 128,-1,42
 822 62 822 62 688 9.5 c 128,-1,43
 554 -43 554 -43 397 -43 c 0,44,45
 323 -43 323 -43 257.5 -29.5 c 128,-1,46
 192 -16 192 -16 134 13 c 128,-1,47
 76 42 76 42 42 95 c 128,-1,48
 8 148 8 148 8 219 c 0,49,50
 8 314 8 314 66.5 371 c 128,-1,51
 125 428 125 428 219 428 c 0,52,53
 280 428 280 428 342 401 c 1,54,55
 311 322 311 322 311 238 c 0,56,57
 311 169 311 169 347.5 131.5 c 128,-1,58
 384 94 384 94 453 94 c 0,59,60
 541 94 541 94 604.5 147 c 128,-1,61
 668 200 668 200 668 285 c 0,62,63
 668 309 668 309 661 332 c 128,-1,64
 654 355 654 355 645.5 373.5 c 128,-1,65
 637 392 637 392 618 413 c 128,-1,66
 599 434 599 434 585.5 447.5 c 128,-1,67
 572 461 572 461 544.5 482.5 c 128,-1,68
 517 504 517 504 502.5 514 c 128,-1,69
 488 524 488 524 455.5 546.5 c 128,-1,70
 423 569 423 569 410 578 c 0,71,72
 363 610 363 610 332.5 633.5 c 128,-1,73
 302 657 302 657 264.5 694 c 128,-1,74
 227 731 227 731 205 767 c 128,-1,75
 183 803 183 803 167.5 852.5 c 128,-1,76
 152 902 152 902 152 958 c 0,77,78
 152 1088 152 1088 228.5 1188 c 128,-1,79
 305 1288 305 1288 435 1340.5 c 128,-1,80
 565 1393 565 1393 727 1393 c 0,7,8
EndSplineSet
Validated: 1
Position2: "'cpsp' Capital Spacing lookup 3 subtable" dx=10 dy=0 dh=20 dv=0
EndChar

StartChar: Scedilla
Encoding: 350 350 111
Width: 1110
Flags: MW
HStem: -524 125<383 451 383 521> -227 102<391 601> -43 137<381 509> 1264 129<611 710>
VStem: 8 303<191 262 191 284> 152 317<997 1092> 547 209<-343 -274> 668 324<278 350> 795 295<1092 1159>
LayerCount: 2
Fore
SplineSet
381 -43 m 1,0,1
 310 -41 310 -41 247 -27 c 128,-1,2
 184 -13 184 -13 128.5 16.5 c 128,-1,3
 73 46 73 46 40.5 98 c 128,-1,4
 8 150 8 150 8 219 c 0,5,6
 8 314 8 314 66.5 371 c 128,-1,7
 125 428 125 428 219 428 c 0,8,9
 280 428 280 428 342 401 c 1,10,11
 311 322 311 322 311 238 c 0,12,13
 311 169 311 169 347.5 131.5 c 128,-1,14
 384 94 384 94 453 94 c 0,15,16
 541 94 541 94 604.5 147 c 128,-1,17
 668 200 668 200 668 285 c 0,18,19
 668 309 668 309 661 332 c 128,-1,20
 654 355 654 355 645.5 373.5 c 128,-1,21
 637 392 637 392 618 413 c 128,-1,22
 599 434 599 434 585.5 447.5 c 128,-1,23
 572 461 572 461 544.5 482.5 c 128,-1,24
 517 504 517 504 502.5 514 c 128,-1,25
 488 524 488 524 455.5 546.5 c 128,-1,26
 423 569 423 569 410 578 c 0,27,28
 363 610 363 610 332.5 633.5 c 128,-1,29
 302 657 302 657 264.5 694 c 128,-1,30
 227 731 227 731 205 767 c 128,-1,31
 183 803 183 803 167.5 852.5 c 128,-1,32
 152 902 152 902 152 958 c 0,33,34
 152 1088 152 1088 228.5 1188 c 128,-1,35
 305 1288 305 1288 435 1340.5 c 128,-1,36
 565 1393 565 1393 727 1393 c 0,37,38
 800 1393 800 1393 862 1380.5 c 128,-1,39
 924 1368 924 1368 977 1341 c 128,-1,40
 1030 1314 1030 1314 1060 1265 c 128,-1,41
 1090 1216 1090 1216 1090 1149 c 0,42,43
 1090 1047 1090 1047 1024.5 990.5 c 128,-1,44
 959 934 959 934 872 934 c 0,45,46
 817 934 817 934 764 958 c 1,47,48
 795 1031 795 1031 795 1114 c 0,49,50
 795 1184 795 1184 762.5 1224 c 128,-1,51
 730 1264 730 1264 666 1264 c 0,52,53
 584 1264 584 1264 526.5 1205.5 c 128,-1,54
 469 1147 469 1147 469 1065 c 0,55,56
 469 1040 469 1040 476 1016.5 c 128,-1,57
 483 993 483 993 491 975 c 128,-1,58
 499 957 499 957 519.5 935 c 128,-1,59
 540 913 540 913 552 900.5 c 128,-1,60
 564 888 564 888 594.5 866 c 128,-1,61
 625 844 625 844 637.5 835.5 c 128,-1,62
 650 827 650 827 687 803 c 128,-1,63
 724 779 724 779 735 772 c 0,64,65
 781 741 781 741 811.5 718 c 128,-1,66
 842 695 842 695 879 658.5 c 128,-1,67
 916 622 916 622 938 587 c 128,-1,68
 960 552 960 552 975.5 503.5 c 128,-1,69
 991 455 991 455 991 401 c 0,70,71
 991 311 991 311 951.5 233 c 128,-1,72
 912 155 912 155 843.5 100 c 128,-1,73
 775 45 775 45 685.5 10 c 128,-1,74
 596 -25 596 -25 494 -37 c 1,75,-1
 467 -127 l 1,76,77
 478 -127 478 -127 505 -126 c 128,-1,78
 532 -125 532 -125 543 -125 c 0,79,80
 638 -125 638 -125 697 -164 c 128,-1,81
 756 -203 756 -203 756 -285 c 0,82,83
 756 -389 756 -389 662 -456.5 c 128,-1,84
 568 -524 568 -524 430 -524 c 0,85,86
 346 -524 346 -524 296 -496.5 c 128,-1,87
 246 -469 246 -469 246 -420 c 0,88,89
 246 -366 246 -366 281 -338 c 1,90,91
 320 -399 320 -399 418 -399 c 0,92,93
 547 -399 547 -399 547 -307 c 0,94,95
 547 -227 547 -227 406 -227 c 0,96,97
 380 -227 380 -227 326 -231 c 1,98,-1
 381 -43 l 1,0,1
EndSplineSet
Validated: 1
Substitution2: "'locl' Localized Forms in Latin lookup 12 subtable" Scommaaccent
Substitution2: "'locl' Localized Forms in Latin lookup 11 subtable" Scommaaccent
Substitution2: "'aalt' Access All Alternates lookup 0 subtable" Scommaaccent
Position2: "'cpsp' Capital Spacing lookup 3 subtable" dx=10 dy=0 dh=20 dv=0
EndChar

StartChar: Scircumflex
Encoding: 348 348 112
Width: 1110
Flags: MW
HStem: -43 137<407 509 407 552> 1264 129<611 710>
VStem: 8 303<191 262 191 284> 152 317<997 1092> 668 324<263 350> 795 295<1092 1159>
LayerCount: 2
Fore
SplineSet
981 1395 m 1,0,-1
 754 1522 l 1,1,-1
 469 1395 l 1,2,-1
 410 1493 l 1,3,-1
 748 1731 l 1,4,-1
 801 1731 l 1,5,-1
 1073 1491 l 1,6,-1
 981 1395 l 1,0,-1
727 1393 m 0,7,8
 800 1393 800 1393 862 1380.5 c 128,-1,9
 924 1368 924 1368 977 1341 c 128,-1,10
 1030 1314 1030 1314 1060 1265 c 128,-1,11
 1090 1216 1090 1216 1090 1149 c 0,12,13
 1090 1047 1090 1047 1024.5 990.5 c 128,-1,14
 959 934 959 934 872 934 c 0,15,16
 817 934 817 934 764 958 c 1,17,18
 795 1031 795 1031 795 1114 c 0,19,20
 795 1184 795 1184 762.5 1224 c 128,-1,21
 730 1264 730 1264 666 1264 c 0,22,23
 584 1264 584 1264 526.5 1205.5 c 128,-1,24
 469 1147 469 1147 469 1065 c 0,25,26
 469 1040 469 1040 476 1016.5 c 128,-1,27
 483 993 483 993 491 975 c 128,-1,28
 499 957 499 957 519.5 935 c 128,-1,29
 540 913 540 913 552 900.5 c 128,-1,30
 564 888 564 888 594.5 866 c 128,-1,31
 625 844 625 844 637.5 835.5 c 128,-1,32
 650 827 650 827 687 803 c 128,-1,33
 724 779 724 779 735 772 c 0,34,35
 781 741 781 741 811.5 718 c 128,-1,36
 842 695 842 695 879 658.5 c 128,-1,37
 916 622 916 622 938 587 c 128,-1,38
 960 552 960 552 975.5 503.5 c 128,-1,39
 991 455 991 455 991 401 c 0,40,41
 991 268 991 268 906.5 165 c 128,-1,42
 822 62 822 62 688 9.5 c 128,-1,43
 554 -43 554 -43 397 -43 c 0,44,45
 323 -43 323 -43 257.5 -29.5 c 128,-1,46
 192 -16 192 -16 134 13 c 128,-1,47
 76 42 76 42 42 95 c 128,-1,48
 8 148 8 148 8 219 c 0,49,50
 8 314 8 314 66.5 371 c 128,-1,51
 125 428 125 428 219 428 c 0,52,53
 280 428 280 428 342 401 c 1,54,55
 311 322 311 322 311 238 c 0,56,57
 311 169 311 169 347.5 131.5 c 128,-1,58
 384 94 384 94 453 94 c 0,59,60
 541 94 541 94 604.5 147 c 128,-1,61
 668 200 668 200 668 285 c 0,62,63
 668 309 668 309 661 332 c 128,-1,64
 654 355 654 355 645.5 373.5 c 128,-1,65
 637 392 637 392 618 413 c 128,-1,66
 599 434 599 434 585.5 447.5 c 128,-1,67
 572 461 572 461 544.5 482.5 c 128,-1,68
 517 504 517 504 502.5 514 c 128,-1,69
 488 524 488 524 455.5 546.5 c 128,-1,70
 423 569 423 569 410 578 c 0,71,72
 363 610 363 610 332.5 633.5 c 128,-1,73
 302 657 302 657 264.5 694 c 128,-1,74
 227 731 227 731 205 767 c 128,-1,75
 183 803 183 803 167.5 852.5 c 128,-1,76
 152 902 152 902 152 958 c 0,77,78
 152 1088 152 1088 228.5 1188 c 128,-1,79
 305 1288 305 1288 435 1340.5 c 128,-1,80
 565 1393 565 1393 727 1393 c 0,7,8
EndSplineSet
Validated: 1
Position2: "'cpsp' Capital Spacing lookup 3 subtable" dx=10 dy=0 dh=20 dv=0
EndChar

StartChar: Scommaaccent
Encoding: 536 536 113
Width: 1110
Flags: MW
HStem: -43 137<407 509 407 552> 1264 129<611 710>
VStem: 8 303<191 262 191 284> 152 317<997 1092> 336 242<-275 -204> 668 324<263 350> 795 295<1092 1159>
LayerCount: 2
Fore
SplineSet
727 1393 m 0,0,1
 800 1393 800 1393 862 1380.5 c 128,-1,2
 924 1368 924 1368 977 1341 c 128,-1,3
 1030 1314 1030 1314 1060 1265 c 128,-1,4
 1090 1216 1090 1216 1090 1149 c 0,5,6
 1090 1047 1090 1047 1024.5 990.5 c 128,-1,7
 959 934 959 934 872 934 c 0,8,9
 817 934 817 934 764 958 c 1,10,11
 795 1031 795 1031 795 1114 c 0,12,13
 795 1184 795 1184 762.5 1224 c 128,-1,14
 730 1264 730 1264 666 1264 c 0,15,16
 584 1264 584 1264 526.5 1205.5 c 128,-1,17
 469 1147 469 1147 469 1065 c 0,18,19
 469 1040 469 1040 476 1016.5 c 128,-1,20
 483 993 483 993 491 975 c 128,-1,21
 499 957 499 957 519.5 935 c 128,-1,22
 540 913 540 913 552 900.5 c 128,-1,23
 564 888 564 888 594.5 866 c 128,-1,24
 625 844 625 844 637.5 835.5 c 128,-1,25
 650 827 650 827 687 803 c 128,-1,26
 724 779 724 779 735 772 c 0,27,28
 781 741 781 741 811.5 718 c 128,-1,29
 842 695 842 695 879 658.5 c 128,-1,30
 916 622 916 622 938 587 c 128,-1,31
 960 552 960 552 975.5 503.5 c 128,-1,32
 991 455 991 455 991 401 c 0,33,34
 991 268 991 268 906.5 165 c 128,-1,35
 822 62 822 62 688 9.5 c 128,-1,36
 554 -43 554 -43 397 -43 c 0,37,38
 323 -43 323 -43 257.5 -29.5 c 128,-1,39
 192 -16 192 -16 134 13 c 128,-1,40
 76 42 76 42 42 95 c 128,-1,41
 8 148 8 148 8 219 c 0,42,43
 8 314 8 314 66.5 371 c 128,-1,44
 125 428 125 428 219 428 c 0,45,46
 280 428 280 428 342 401 c 1,47,48
 311 322 311 322 311 238 c 0,49,50
 311 169 311 169 347.5 131.5 c 128,-1,51
 384 94 384 94 453 94 c 0,52,53
 541 94 541 94 604.5 147 c 128,-1,54
 668 200 668 200 668 285 c 0,55,56
 668 309 668 309 661 332 c 128,-1,57
 654 355 654 355 645.5 373.5 c 128,-1,58
 637 392 637 392 618 413 c 128,-1,59
 599 434 599 434 585.5 447.5 c 128,-1,60
 572 461 572 461 544.5 482.5 c 128,-1,61
 517 504 517 504 502.5 514 c 128,-1,62
 488 524 488 524 455.5 546.5 c 128,-1,63
 423 569 423 569 410 578 c 0,64,65
 363 610 363 610 332.5 633.5 c 128,-1,66
 302 657 302 657 264.5 694 c 128,-1,67
 227 731 227 731 205 767 c 128,-1,68
 183 803 183 803 167.5 852.5 c 128,-1,69
 152 902 152 902 152 958 c 0,70,71
 152 1088 152 1088 228.5 1188 c 128,-1,72
 305 1288 305 1288 435 1340.5 c 128,-1,73
 565 1393 565 1393 727 1393 c 0,0,1
578 -229 m 0,74,75
 578 -304 578 -304 531 -370 c 128,-1,76
 484 -436 484 -436 416.5 -472 c 128,-1,77
 349 -508 349 -508 285 -508 c 0,78,79
 237 -508 237 -508 215 -492 c 1,80,81
 277 -418 277 -418 306.5 -357.5 c 128,-1,82
 336 -297 336 -297 336 -219 c 0,83,84
 336 -171 336 -171 319 -129 c 1,85,86
 338 -118 338 -118 372.5 -110 c 128,-1,87
 407 -102 407 -102 436 -102 c 0,88,89
 500 -102 500 -102 539 -136 c 128,-1,90
 578 -170 578 -170 578 -229 c 0,74,75
EndSplineSet
Validated: 1
Position2: "'cpsp' Capital Spacing lookup 3 subtable" dx=10 dy=0 dh=20 dv=0
EndChar

StartChar: Sdotbelow
Encoding: 7778 7778 114
Width: 1110
Flags: MW
HStem: -383 285<378 474> -43 137<407 509 407 552> 1264 129<611 710>
VStem: 8 303<191 262 191 284> 152 317<997 1092> 244 365<-288 -196> 668 324<263 350> 795 295<1092 1159>
LayerCount: 2
Fore
SplineSet
727 1393 m 0,0,1
 800 1393 800 1393 862 1380.5 c 128,-1,2
 924 1368 924 1368 977 1341 c 128,-1,3
 1030 1314 1030 1314 1060 1265 c 128,-1,4
 1090 1216 1090 1216 1090 1149 c 0,5,6
 1090 1047 1090 1047 1024.5 990.5 c 128,-1,7
 959 934 959 934 872 934 c 0,8,9
 817 934 817 934 764 958 c 1,10,11
 795 1031 795 1031 795 1114 c 0,12,13
 795 1184 795 1184 762.5 1224 c 128,-1,14
 730 1264 730 1264 666 1264 c 0,15,16
 584 1264 584 1264 526.5 1205.5 c 128,-1,17
 469 1147 469 1147 469 1065 c 0,18,19
 469 1040 469 1040 476 1016.5 c 128,-1,20
 483 993 483 993 491 975 c 128,-1,21
 499 957 499 957 519.5 935 c 128,-1,22
 540 913 540 913 552 900.5 c 128,-1,23
 564 888 564 888 594.5 866 c 128,-1,24
 625 844 625 844 637.5 835.5 c 128,-1,25
 650 827 650 827 687 803 c 128,-1,26
 724 779 724 779 735 772 c 0,27,28
 781 741 781 741 811.5 718 c 128,-1,29
 842 695 842 695 879 658.5 c 128,-1,30
 916 622 916 622 938 587 c 128,-1,31
 960 552 960 552 975.5 503.5 c 128,-1,32
 991 455 991 455 991 401 c 0,33,34
 991 268 991 268 906.5 165 c 128,-1,35
 822 62 822 62 688 9.5 c 128,-1,36
 554 -43 554 -43 397 -43 c 0,37,38
 323 -43 323 -43 257.5 -29.5 c 128,-1,39
 192 -16 192 -16 134 13 c 128,-1,40
 76 42 76 42 42 95 c 128,-1,41
 8 148 8 148 8 219 c 0,42,43
 8 314 8 314 66.5 371 c 128,-1,44
 125 428 125 428 219 428 c 0,45,46
 280 428 280 428 342 401 c 1,47,48
 311 322 311 322 311 238 c 0,49,50
 311 169 311 169 347.5 131.5 c 128,-1,51
 384 94 384 94 453 94 c 0,52,53
 541 94 541 94 604.5 147 c 128,-1,54
 668 200 668 200 668 285 c 0,55,56
 668 309 668 309 661 332 c 128,-1,57
 654 355 654 355 645.5 373.5 c 128,-1,58
 637 392 637 392 618 413 c 128,-1,59
 599 434 599 434 585.5 447.5 c 128,-1,60
 572 461 572 461 544.5 482.5 c 128,-1,61
 517 504 517 504 502.5 514 c 128,-1,62
 488 524 488 524 455.5 546.5 c 128,-1,63
 423 569 423 569 410 578 c 0,64,65
 363 610 363 610 332.5 633.5 c 128,-1,66
 302 657 302 657 264.5 694 c 128,-1,67
 227 731 227 731 205 767 c 128,-1,68
 183 803 183 803 167.5 852.5 c 128,-1,69
 152 902 152 902 152 958 c 0,70,71
 152 1088 152 1088 228.5 1188 c 128,-1,72
 305 1288 305 1288 435 1340.5 c 128,-1,73
 565 1393 565 1393 727 1393 c 0,0,1
430 -98 m 0,74,75
 509 -98 509 -98 558.5 -135.5 c 128,-1,76
 608 -173 608 -173 608 -240 c 0,77,78
 608 -309 608 -309 556 -346 c 128,-1,79
 504 -383 504 -383 422 -383 c 0,80,81
 343 -383 343 -383 293.5 -347 c 128,-1,82
 244 -311 244 -311 244 -244 c 0,83,84
 244 -174 244 -174 296.5 -136 c 128,-1,85
 349 -98 349 -98 430 -98 c 0,74,75
EndSplineSet
Validated: 1
Position2: "'cpsp' Capital Spacing lookup 3 subtable" dx=10 dy=0 dh=20 dv=0
EndChar

StartChar: uni1E9E
Encoding: 7838 7838 115
Width: 1505
Flags: MW
HStem: -43 137<869 963 869 1015> 1286 106<779 952>
VStem: 520 262<181 242 181 258> 762 319<784 835> 1087 319<243 353>
LayerCount: 2
Fore
SplineSet
131 678 m 2,0,1
 163 842 163 842 218.5 966 c 128,-1,2
 274 1090 274 1090 344.5 1170.5 c 128,-1,3
 415 1251 415 1251 507.5 1301.5 c 128,-1,4
 600 1352 600 1352 698 1372.5 c 128,-1,5
 796 1393 796 1393 913 1393 c 0,6,7
 1284 1393 1284 1393 1444 1190 c 1,8,9
 1348 1150 1348 1150 1269 1100 c 128,-1,10
 1190 1050 1190 1050 1135.5 987.5 c 128,-1,11
 1081 925 1081 925 1081 868 c 0,12,13
 1081 834 1081 834 1099 804 c 128,-1,14
 1117 774 1117 774 1145.5 749 c 128,-1,15
 1174 724 1174 724 1209 698 c 128,-1,16
 1244 672 1244 672 1279 641 c 128,-1,17
 1314 610 1314 610 1342.5 574.5 c 128,-1,18
 1371 539 1371 539 1389 487.5 c 128,-1,19
 1407 436 1407 436 1407 375 c 0,20,21
 1407 248 1407 248 1331.5 151 c 128,-1,22
 1256 54 1256 54 1136.5 5.5 c 128,-1,23
 1017 -43 1017 -43 877 -43 c 0,24,25
 824 -43 824 -43 774.5 -35.5 c 128,-1,26
 725 -28 725 -28 678 -9.5 c 128,-1,27
 631 9 631 9 596.5 36.5 c 128,-1,28
 562 64 562 64 541 106 c 128,-1,29
 520 148 520 148 520 201 c 0,30,31
 520 286 520 286 571 336.5 c 128,-1,32
 622 387 622 387 700 387 c 0,33,34
 757 387 757 387 809 360 c 1,35,36
 782 284 782 284 782 221 c 0,37,38
 782 160 782 160 815 127 c 128,-1,39
 848 94 848 94 911 94 c 0,40,41
 986 94 986 94 1036.5 143.5 c 128,-1,42
 1087 193 1087 193 1087 260 c 0,43,44
 1087 297 1087 297 1069 331 c 128,-1,45
 1051 365 1051 365 1022.5 391.5 c 128,-1,46
 994 418 994 418 959 445 c 128,-1,47
 924 472 924 472 889.5 502 c 128,-1,48
 855 532 855 532 826.5 566 c 128,-1,49
 798 600 798 600 780 647.5 c 128,-1,50
 762 695 762 695 762 750 c 0,51,52
 762 992 762 992 1135 1192 c 1,53,54
 1041 1286 1041 1286 903 1286 c 0,55,56
 830 1286 830 1286 770 1258.5 c 128,-1,57
 710 1231 710 1231 666 1182.5 c 128,-1,58
 622 1134 622 1134 585.5 1058 c 128,-1,59
 549 982 549 982 523.5 894.5 c 128,-1,60
 498 807 498 807 475 692 c 2,61,-1
 342 0 l 1,62,-1
 -2 0 l 1,63,-1
 131 678 l 2,0,1
EndSplineSet
Validated: 1
Position2: "'cpsp' Capital Spacing lookup 3 subtable" dx=10 dy=0 dh=20 dv=0
EndChar

StartChar: Schwa
Encoding: 399 399 116
Width: 1175
Flags: MW
HStem: -53 121<391 504 391 623> 606 102<635 653 633 748> 1139 254<552 646>
VStem: 20 301<178 349 178 391> 774 350<835 944>
LayerCount: 2
Fore
SplineSet
373 -53 m 0,0,1
 20 -53 20 -53 20 250 c 0,2,3
 20 459 20 459 185.5 579.5 c 128,-1,4
 351 700 351 700 633 709 c 0,5,6
 654 709 654 709 700 708 c 128,-1,7
 746 707 746 707 764 707 c 1,8,9
 774 795 774 795 774 854 c 0,10,11
 774 997 774 997 727.5 1068 c 128,-1,12
 681 1139 681 1139 565 1139 c 0,13,14
 466 1139 466 1139 378 1088.5 c 128,-1,15
 290 1038 290 1038 242 948 c 1,16,17
 193 976 193 976 193 1053 c 0,18,19
 194 1146 194 1146 261 1224.5 c 128,-1,20
 328 1303 328 1303 441 1348 c 128,-1,21
 554 1393 554 1393 686 1393 c 0,22,23
 904 1393 904 1393 1014 1259.5 c 128,-1,24
 1124 1126 1124 1126 1124 848 c 0,25,26
 1124 711 1124 711 1094.5 581 c 128,-1,27
 1065 451 1065 451 1003 336 c 128,-1,28
 941 221 941 221 854 134.5 c 128,-1,29
 767 48 767 48 643 -2.5 c 128,-1,30
 519 -53 519 -53 373 -53 c 0,0,1
430 68 m 0,31,32
 537 68 537 68 622 218 c 128,-1,33
 707 368 707 368 748 606 c 1,34,35
 634 606 634 606 538 563 c 128,-1,36
 442 520 442 520 382 432.5 c 128,-1,37
 322 345 322 345 322 229 c 0,38,39
 322 68 322 68 430 68 c 0,31,32
EndSplineSet
Validated: 1
Position2: "'cpsp' Capital Spacing lookup 3 subtable" dx=10 dy=0 dh=20 dv=0
EndChar

StartChar: T
Encoding: 84 84 117
Width: 878
Flags: MW
HStem: 1139 213<213 831 274 371 702 825 702 702> 1333 41G
VStem: 186 328<109 147 109 159>
LayerCount: 2
Fore
SplineSet
831 1352 m 2,0,1
 953 1352 953 1352 1014 1374 c 1,2,3
 1042 1335 1042 1335 1042 1270 c 0,4,5
 1042 1229 1042 1229 1024.5 1202 c 128,-1,6
 1007 1175 1007 1175 974 1162 c 128,-1,7
 941 1149 941 1149 906.5 1144 c 128,-1,8
 872 1139 872 1139 825 1139 c 2,9,-1
 702 1139 l 1,10,-1
 528 260 l 1,11,12
 514 169 514 169 514 129 c 0,13,14
 514 67 514 67 541 18 c 1,15,16
 462 -41 462 -41 354 -41 c 0,17,18
 186 -41 186 -41 186 131 c 0,19,20
 186 227 186 227 221 399 c 2,21,-1
 371 1139 l 1,22,-1
 238 1139 l 2,23,24
 144 1139 144 1139 86 1122 c 1,25,26
 68 1163 68 1163 68 1210 c 0,27,28
 68 1252 68 1252 84 1280.5 c 128,-1,29
 100 1309 100 1309 130 1324 c 128,-1,30
 160 1339 160 1339 194.5 1345.5 c 128,-1,31
 229 1352 229 1352 274 1352 c 2,32,-1
 831 1352 l 2,0,1
EndSplineSet
Validated: 1
Position2: "'cpsp' Capital Spacing lookup 3 subtable" dx=10 dy=0 dh=20 dv=0
EndChar

StartChar: Tbar
Encoding: 358 358 118
Width: 882
Flags: MW
HStem: 608 168<123 262 0 297 631 788> 1139 213<213 831 274 371 702 825 702 702> 1333 41G
VStem: -6 1049<655 1288> 186 328<109 147 109 154>
LayerCount: 2
Fore
SplineSet
831 1352 m 2,0,1
 953 1352 953 1352 1014 1374 c 1,2,3
 1042 1335 1042 1335 1042 1270 c 0,4,5
 1042 1229 1042 1229 1024.5 1202 c 128,-1,6
 1007 1175 1007 1175 974 1162 c 128,-1,7
 941 1149 941 1149 906.5 1144 c 128,-1,8
 872 1139 872 1139 825 1139 c 2,9,-1
 702 1139 l 1,10,-1
 631 776 l 1,11,-1
 924 776 l 1,12,13
 932 748 932 748 932 723 c 0,14,15
 932 671 932 671 896 639.5 c 128,-1,16
 860 608 860 608 788 608 c 2,17,-1
 598 608 l 1,18,-1
 528 260 l 1,19,20
 514 169 514 169 514 129 c 0,21,22
 514 67 514 67 541 18 c 1,23,24
 462 -41 462 -41 354 -41 c 0,25,26
 186 -41 186 -41 186 131 c 0,27,28
 186 202 186 202 207 313 c 2,29,-1
 262 608 l 1,30,-1
 0 608 l 1,31,32
 -6 626 -6 626 -6 662 c 0,33,34
 -5 716 -5 716 29.5 746 c 128,-1,35
 64 776 64 776 123 776 c 2,36,-1
 297 776 l 1,37,-1
 371 1139 l 1,38,-1
 238 1139 l 2,39,40
 144 1139 144 1139 86 1122 c 1,41,42
 68 1163 68 1163 68 1210 c 0,43,44
 68 1252 68 1252 84 1280.5 c 128,-1,45
 100 1309 100 1309 130 1324 c 128,-1,46
 160 1339 160 1339 194.5 1345.5 c 128,-1,47
 229 1352 229 1352 274 1352 c 2,48,-1
 831 1352 l 2,0,1
EndSplineSet
Validated: 1
Position2: "'cpsp' Capital Spacing lookup 3 subtable" dx=10 dy=0 dh=20 dv=0
EndChar

StartChar: Tcaron
Encoding: 356 356 119
Width: 878
Flags: MW
HStem: 1139 213<213 831 274 371 702 825 702 702> 1333 41G
VStem: 186 328<109 147 109 159>
LayerCount: 2
Fore
SplineSet
393 1733 m 1,0,-1
 621 1626 l 1,1,-1
 905 1733 l 1,2,-1
 965 1645 l 1,3,-1
 637 1417 l 1,4,-1
 563 1417 l 1,5,-1
 301 1647 l 1,6,-1
 393 1733 l 1,0,-1
831 1352 m 2,7,8
 953 1352 953 1352 1014 1374 c 1,9,10
 1042 1335 1042 1335 1042 1270 c 0,11,12
 1042 1229 1042 1229 1024.5 1202 c 128,-1,13
 1007 1175 1007 1175 974 1162 c 128,-1,14
 941 1149 941 1149 906.5 1144 c 128,-1,15
 872 1139 872 1139 825 1139 c 2,16,-1
 702 1139 l 1,17,-1
 528 260 l 1,18,19
 514 169 514 169 514 129 c 0,20,21
 514 67 514 67 541 18 c 1,22,23
 462 -41 462 -41 354 -41 c 0,24,25
 186 -41 186 -41 186 131 c 0,26,27
 186 227 186 227 221 399 c 2,28,-1
 371 1139 l 1,29,-1
 238 1139 l 2,30,31
 144 1139 144 1139 86 1122 c 1,32,33
 68 1163 68 1163 68 1210 c 0,34,35
 68 1252 68 1252 84 1280.5 c 128,-1,36
 100 1309 100 1309 130 1324 c 128,-1,37
 160 1339 160 1339 194.5 1345.5 c 128,-1,38
 229 1352 229 1352 274 1352 c 2,39,-1
 831 1352 l 2,7,8
EndSplineSet
Validated: 1
Position2: "'cpsp' Capital Spacing lookup 3 subtable" dx=10 dy=0 dh=20 dv=0
EndChar

StartChar: Tcedilla
Encoding: 354 354 120
Width: 878
Flags: MW
HStem: -524 125<272 340 272 411> -227 102<281 490> 1139 213<213 831 274 371 702 825 702 702> 1333 41G
VStem: 186 328<109 147 109 159> 436 209<-343 -274>
LayerCount: 2
Fore
SplineSet
831 1352 m 2,0,1
 953 1352 953 1352 1014 1374 c 1,2,3
 1042 1335 1042 1335 1042 1270 c 0,4,5
 1042 1229 1042 1229 1024.5 1202 c 128,-1,6
 1007 1175 1007 1175 974 1162 c 128,-1,7
 941 1149 941 1149 906.5 1144 c 128,-1,8
 872 1139 872 1139 825 1139 c 2,9,-1
 702 1139 l 1,10,-1
 528 260 l 1,11,12
 514 169 514 169 514 129 c 0,13,14
 514 67 514 67 541 18 c 1,15,16
 473 -32 473 -32 383 -39 c 1,17,-1
 356 -127 l 1,18,19
 368 -127 368 -127 394 -126 c 128,-1,20
 420 -125 420 -125 432 -125 c 0,21,22
 527 -125 527 -125 586 -164 c 128,-1,23
 645 -203 645 -203 645 -285 c 0,24,25
 645 -389 645 -389 551 -456.5 c 128,-1,26
 457 -524 457 -524 319 -524 c 0,27,28
 235 -524 235 -524 185 -496.5 c 128,-1,29
 135 -469 135 -469 135 -420 c 0,30,31
 135 -366 135 -366 170 -338 c 1,32,33
 209 -399 209 -399 307 -399 c 0,34,35
 436 -399 436 -399 436 -307 c 0,36,37
 436 -227 436 -227 295 -227 c 0,38,39
 269 -227 269 -227 215 -231 c 1,40,-1
 276 -29 l 1,41,42
 186 7 186 7 186 131 c 0,43,44
 186 227 186 227 221 399 c 2,45,-1
 371 1139 l 1,46,-1
 238 1139 l 2,47,48
 144 1139 144 1139 86 1122 c 1,49,50
 68 1163 68 1163 68 1210 c 0,51,52
 68 1252 68 1252 84 1280.5 c 128,-1,53
 100 1309 100 1309 130 1324 c 128,-1,54
 160 1339 160 1339 194.5 1345.5 c 128,-1,55
 229 1352 229 1352 274 1352 c 2,56,-1
 831 1352 l 2,0,1
EndSplineSet
Validated: 1
Substitution2: "'locl' Localized Forms in Latin lookup 12 subtable" uni021A
Substitution2: "'locl' Localized Forms in Latin lookup 11 subtable" uni021A
Substitution2: "'aalt' Access All Alternates lookup 0 subtable" uni021A
Position2: "'cpsp' Capital Spacing lookup 3 subtable" dx=10 dy=0 dh=20 dv=0
EndChar

StartChar: uni021A
Encoding: 538 538 121
Width: 878
Flags: MW
HStem: 1139 213<213 831 274 371 702 825 702 702> 1333 41G
VStem: 186 328<109 147 109 159> 225 242<-275 -204>
LayerCount: 2
Fore
SplineSet
831 1352 m 2,0,1
 953 1352 953 1352 1014 1374 c 1,2,3
 1042 1335 1042 1335 1042 1270 c 0,4,5
 1042 1229 1042 1229 1024.5 1202 c 128,-1,6
 1007 1175 1007 1175 974 1162 c 128,-1,7
 941 1149 941 1149 906.5 1144 c 128,-1,8
 872 1139 872 1139 825 1139 c 2,9,-1
 702 1139 l 1,10,-1
 528 260 l 1,11,12
 514 169 514 169 514 129 c 0,13,14
 514 67 514 67 541 18 c 1,15,16
 462 -41 462 -41 354 -41 c 0,17,18
 186 -41 186 -41 186 131 c 0,19,20
 186 227 186 227 221 399 c 2,21,-1
 371 1139 l 1,22,-1
 238 1139 l 2,23,24
 144 1139 144 1139 86 1122 c 1,25,26
 68 1163 68 1163 68 1210 c 0,27,28
 68 1252 68 1252 84 1280.5 c 128,-1,29
 100 1309 100 1309 130 1324 c 128,-1,30
 160 1339 160 1339 194.5 1345.5 c 128,-1,31
 229 1352 229 1352 274 1352 c 2,32,-1
 831 1352 l 2,0,1
467 -229 m 0,33,34
 467 -304 467 -304 420 -370 c 128,-1,35
 373 -436 373 -436 305.5 -472 c 128,-1,36
 238 -508 238 -508 174 -508 c 0,37,38
 126 -508 126 -508 104 -492 c 1,39,40
 166 -418 166 -418 195.5 -357.5 c 128,-1,41
 225 -297 225 -297 225 -219 c 0,42,43
 225 -169 225 -169 209 -129 c 1,44,45
 228 -118 228 -118 262.5 -110 c 128,-1,46
 297 -102 297 -102 326 -102 c 0,47,48
 390 -102 390 -102 428.5 -136 c 128,-1,49
 467 -170 467 -170 467 -229 c 0,33,34
EndSplineSet
Validated: 1
Position2: "'cpsp' Capital Spacing lookup 3 subtable" dx=10 dy=0 dh=20 dv=0
EndChar

StartChar: Tdotbelow
Encoding: 7788 7788 122
Width: 878
Flags: MW
HStem: -383 285<267 364> 1139 213<213 831 274 371 702 825 702 702> 1333 41G
VStem: 133 365<-288 -196> 186 328<109 147 109 159>
LayerCount: 2
Fore
SplineSet
831 1352 m 2,0,1
 953 1352 953 1352 1014 1374 c 1,2,3
 1042 1335 1042 1335 1042 1270 c 0,4,5
 1042 1229 1042 1229 1024.5 1202 c 128,-1,6
 1007 1175 1007 1175 974 1162 c 128,-1,7
 941 1149 941 1149 906.5 1144 c 128,-1,8
 872 1139 872 1139 825 1139 c 2,9,-1
 702 1139 l 1,10,-1
 528 260 l 1,11,12
 514 169 514 169 514 129 c 0,13,14
 514 67 514 67 541 18 c 1,15,16
 462 -41 462 -41 354 -41 c 0,17,18
 186 -41 186 -41 186 131 c 0,19,20
 186 227 186 227 221 399 c 2,21,-1
 371 1139 l 1,22,-1
 238 1139 l 2,23,24
 144 1139 144 1139 86 1122 c 1,25,26
 68 1163 68 1163 68 1210 c 0,27,28
 68 1252 68 1252 84 1280.5 c 128,-1,29
 100 1309 100 1309 130 1324 c 128,-1,30
 160 1339 160 1339 194.5 1345.5 c 128,-1,31
 229 1352 229 1352 274 1352 c 2,32,-1
 831 1352 l 2,0,1
319 -98 m 0,33,34
 398 -98 398 -98 448 -135.5 c 128,-1,35
 498 -173 498 -173 498 -240 c 0,36,37
 498 -309 498 -309 445.5 -346 c 128,-1,38
 393 -383 393 -383 311 -383 c 0,39,40
 232 -383 232 -383 182.5 -347 c 128,-1,41
 133 -311 133 -311 133 -244 c 0,42,43
 133 -174 133 -174 185.5 -136 c 128,-1,44
 238 -98 238 -98 319 -98 c 0,33,34
EndSplineSet
Validated: 1
Position2: "'cpsp' Capital Spacing lookup 3 subtable" dx=10 dy=0 dh=20 dv=0
EndChar

StartChar: U
Encoding: 85 85 123
Width: 1245
Flags: MW
HStem: -41 172<521 662 521 678> 1311 41G<258 604 604 604 993 1255 1255 1255>
VStem: 70 348<241 319>
LayerCount: 2
Fore
SplineSet
1100 539 m 2,0,1
 1043 242 1043 242 902 100.5 c 128,-1,2
 761 -41 761 -41 500 -41 c 0,3,4
 301 -41 301 -41 185.5 40.5 c 128,-1,5
 70 122 70 122 70 287 c 0,6,7
 70 378 70 378 98 522 c 2,8,-1
 258 1352 l 1,9,-1
 604 1352 l 1,10,-1
 444 498 l 1,11,12
 418 370 418 370 418 293 c 0,13,14
 418 215 418 215 457 173 c 128,-1,15
 496 131 496 131 571 131 c 0,16,17
 623 131 623 131 664.5 152 c 128,-1,18
 706 173 706 173 733 206 c 128,-1,19
 760 239 760 239 781.5 292.5 c 128,-1,20
 803 346 803 346 816 396 c 128,-1,21
 829 446 829 446 842 518 c 2,22,-1
 993 1352 l 1,23,-1
 1255 1352 l 1,24,-1
 1100 539 l 2,0,1
EndSplineSet
Validated: 1
Position2: "'cpsp' Capital Spacing lookup 3 subtable" dx=10 dy=0 dh=20 dv=0
EndChar

StartChar: Uacute
Encoding: 218 218 124
Width: 1245
Flags: MW
HStem: -41 172<521 662 521 678> 1311 41G<258 604 604 604 993 1255 1255 1255>
VStem: 70 348<241 319>
LayerCount: 2
Fore
SplineSet
659 1552 m 1,0,-1
 1149 1747 l 1,1,2
 1200 1713 1200 1713 1200 1647 c 0,3,4
 1200 1476 1200 1476 920 1468 c 1,5,-1
 680 1458 l 1,6,-1
 659 1552 l 1,0,-1
1100 539 m 2,7,8
 1043 242 1043 242 902 100.5 c 128,-1,9
 761 -41 761 -41 500 -41 c 0,10,11
 301 -41 301 -41 185.5 40.5 c 128,-1,12
 70 122 70 122 70 287 c 0,13,14
 70 378 70 378 98 522 c 2,15,-1
 258 1352 l 1,16,-1
 604 1352 l 1,17,-1
 444 498 l 1,18,19
 418 370 418 370 418 293 c 0,20,21
 418 215 418 215 457 173 c 128,-1,22
 496 131 496 131 571 131 c 0,23,24
 623 131 623 131 664.5 152 c 128,-1,25
 706 173 706 173 733 206 c 128,-1,26
 760 239 760 239 781.5 292.5 c 128,-1,27
 803 346 803 346 816 396 c 128,-1,28
 829 446 829 446 842 518 c 2,29,-1
 993 1352 l 1,30,-1
 1255 1352 l 1,31,-1
 1100 539 l 2,7,8
EndSplineSet
Validated: 1
Position2: "'cpsp' Capital Spacing lookup 3 subtable" dx=10 dy=0 dh=20 dv=0
EndChar

StartChar: Ubreve
Encoding: 364 364 125
Width: 1245
Flags: MW
HStem: -41 172<521 662 521 678> 1311 41G<258 604 604 604 993 1255 1255 1255> 1434 100<815 898 815 949>
VStem: 70 348<241 319> 522 240<1614 1649 1614 1660>
LayerCount: 2
Fore
SplineSet
770 1706 m 1,0,1
 762 1667 762 1667 762 1638 c 0,2,3
 762 1594 762 1594 782 1564 c 128,-1,4
 802 1534 802 1534 850 1534 c 0,5,6
 915 1534 915 1534 954 1585.5 c 128,-1,7
 993 1637 993 1637 1008 1706 c 1,8,-1
 1237 1706 l 1,9,10
 1211 1582 1211 1582 1107 1508 c 128,-1,11
 1003 1434 1003 1434 829 1434 c 0,12,13
 679 1434 679 1434 600.5 1493.5 c 128,-1,14
 522 1553 522 1553 522 1651 c 0,15,16
 522 1676 522 1676 528 1706 c 1,17,-1
 770 1706 l 1,0,1
1100 539 m 2,18,19
 1043 242 1043 242 902 100.5 c 128,-1,20
 761 -41 761 -41 500 -41 c 0,21,22
 301 -41 301 -41 185.5 40.5 c 128,-1,23
 70 122 70 122 70 287 c 0,24,25
 70 378 70 378 98 522 c 2,26,-1
 258 1352 l 1,27,-1
 604 1352 l 1,28,-1
 444 498 l 1,29,30
 418 370 418 370 418 293 c 0,31,32
 418 215 418 215 457 173 c 128,-1,33
 496 131 496 131 571 131 c 0,34,35
 623 131 623 131 664.5 152 c 128,-1,36
 706 173 706 173 733 206 c 128,-1,37
 760 239 760 239 781.5 292.5 c 128,-1,38
 803 346 803 346 816 396 c 128,-1,39
 829 446 829 446 842 518 c 2,40,-1
 993 1352 l 1,41,-1
 1255 1352 l 1,42,-1
 1100 539 l 2,18,19
EndSplineSet
Validated: 1
Position2: "'cpsp' Capital Spacing lookup 3 subtable" dx=10 dy=0 dh=20 dv=0
EndChar

StartChar: Ucircumflex
Encoding: 219 219 126
Width: 1245
Flags: MW
HStem: -41 172<521 662 521 678> 1311 41G<258 604 604 604 993 1255 1255 1255>
VStem: 70 348<241 319>
LayerCount: 2
Fore
SplineSet
1055 1395 m 1,0,-1
 827 1522 l 1,1,-1
 543 1395 l 1,2,-1
 483 1493 l 1,3,-1
 821 1731 l 1,4,-1
 874 1731 l 1,5,-1
 1147 1491 l 1,6,-1
 1055 1395 l 1,0,-1
1100 539 m 2,7,8
 1043 242 1043 242 902 100.5 c 128,-1,9
 761 -41 761 -41 500 -41 c 0,10,11
 301 -41 301 -41 185.5 40.5 c 128,-1,12
 70 122 70 122 70 287 c 0,13,14
 70 378 70 378 98 522 c 2,15,-1
 258 1352 l 1,16,-1
 604 1352 l 1,17,-1
 444 498 l 1,18,19
 418 370 418 370 418 293 c 0,20,21
 418 215 418 215 457 173 c 128,-1,22
 496 131 496 131 571 131 c 0,23,24
 623 131 623 131 664.5 152 c 128,-1,25
 706 173 706 173 733 206 c 128,-1,26
 760 239 760 239 781.5 292.5 c 128,-1,27
 803 346 803 346 816 396 c 128,-1,28
 829 446 829 446 842 518 c 2,29,-1
 993 1352 l 1,30,-1
 1255 1352 l 1,31,-1
 1100 539 l 2,7,8
EndSplineSet
Validated: 1
Position2: "'cpsp' Capital Spacing lookup 3 subtable" dx=10 dy=0 dh=20 dv=0
EndChar

StartChar: Udieresis
Encoding: 220 220 127
Width: 1245
Flags: MW
HStem: -41 172<521 662 521 678> 1311 41G<258 604 604 604 993 1255 1255 1255> 1452 285<568 665 1023 1119>
VStem: 70 348<241 319> 434 362<1547 1639> 889 362<1547 1639>
LayerCount: 2
Fore
SplineSet
621 1737 m 0,0,1
 700 1737 700 1737 748.5 1699.5 c 128,-1,2
 797 1662 797 1662 797 1595 c 0,3,4
 797 1526 797 1526 745.5 1489 c 128,-1,5
 694 1452 694 1452 612 1452 c 0,6,7
 533 1452 533 1452 483.5 1488 c 128,-1,8
 434 1524 434 1524 434 1591 c 0,9,10
 434 1660 434 1660 486.5 1698.5 c 128,-1,11
 539 1737 539 1737 621 1737 c 0,0,1
1075 1737 m 0,12,13
 1154 1737 1154 1737 1202.5 1699.5 c 128,-1,14
 1251 1662 1251 1662 1251 1595 c 0,15,16
 1251 1526 1251 1526 1200 1489 c 128,-1,17
 1149 1452 1149 1452 1067 1452 c 0,18,19
 988 1452 988 1452 938.5 1488 c 128,-1,20
 889 1524 889 1524 889 1591 c 0,21,22
 889 1661 889 1661 941.5 1699 c 128,-1,23
 994 1737 994 1737 1075 1737 c 0,12,13
1100 539 m 2,24,25
 1043 242 1043 242 902 100.5 c 128,-1,26
 761 -41 761 -41 500 -41 c 0,27,28
 301 -41 301 -41 185.5 40.5 c 128,-1,29
 70 122 70 122 70 287 c 0,30,31
 70 378 70 378 98 522 c 2,32,-1
 258 1352 l 1,33,-1
 604 1352 l 1,34,-1
 444 498 l 1,35,36
 418 370 418 370 418 293 c 0,37,38
 418 215 418 215 457 173 c 128,-1,39
 496 131 496 131 571 131 c 0,40,41
 623 131 623 131 664.5 152 c 128,-1,42
 706 173 706 173 733 206 c 128,-1,43
 760 239 760 239 781.5 292.5 c 128,-1,44
 803 346 803 346 816 396 c 128,-1,45
 829 446 829 446 842 518 c 2,46,-1
 993 1352 l 1,47,-1
 1255 1352 l 1,48,-1
 1100 539 l 2,24,25
EndSplineSet
Validated: 1
Position2: "'cpsp' Capital Spacing lookup 3 subtable" dx=10 dy=0 dh=20 dv=0
EndChar

StartChar: Udotbelow
Encoding: 7908 7908 128
Width: 1245
Flags: MW
HStem: -383 285<415 511> -41 172<521 662 521 678> 1311 41G<258 604 604 604 993 1255 1255 1255>
VStem: 70 348<241 319> 281 365<-288 -196>
LayerCount: 2
Fore
SplineSet
1100 539 m 2,0,1
 1043 242 1043 242 902 100.5 c 128,-1,2
 761 -41 761 -41 500 -41 c 0,3,4
 301 -41 301 -41 185.5 40.5 c 128,-1,5
 70 122 70 122 70 287 c 0,6,7
 70 378 70 378 98 522 c 2,8,-1
 258 1352 l 1,9,-1
 604 1352 l 1,10,-1
 444 498 l 1,11,12
 418 370 418 370 418 293 c 0,13,14
 418 215 418 215 457 173 c 128,-1,15
 496 131 496 131 571 131 c 0,16,17
 623 131 623 131 664.5 152 c 128,-1,18
 706 173 706 173 733 206 c 128,-1,19
 760 239 760 239 781.5 292.5 c 128,-1,20
 803 346 803 346 816 396 c 128,-1,21
 829 446 829 446 842 518 c 2,22,-1
 993 1352 l 1,23,-1
 1255 1352 l 1,24,-1
 1100 539 l 2,0,1
467 -98 m 0,25,26
 546 -98 546 -98 595.5 -135.5 c 128,-1,27
 645 -173 645 -173 645 -240 c 0,28,29
 645 -309 645 -309 593 -346 c 128,-1,30
 541 -383 541 -383 459 -383 c 0,31,32
 380 -383 380 -383 330.5 -347 c 128,-1,33
 281 -311 281 -311 281 -244 c 0,34,35
 281 -174 281 -174 333.5 -136 c 128,-1,36
 386 -98 386 -98 467 -98 c 0,25,26
EndSplineSet
Validated: 1
Position2: "'cpsp' Capital Spacing lookup 3 subtable" dx=10 dy=0 dh=20 dv=0
EndChar

StartChar: Ugrave
Encoding: 217 217 129
Width: 1245
Flags: MW
HStem: -41 172<521 662 521 678> 1311 41G<258 604 604 604 993 1255 1255 1255>
VStem: 70 348<241 319>
LayerCount: 2
Fore
SplineSet
1012 1458 m 1,0,-1
 772 1468 l 2,1,2
 489 1480 489 1480 489 1647 c 0,3,4
 489 1710 489 1710 541 1749 c 1,5,-1
 1032 1552 l 1,6,-1
 1012 1458 l 1,0,-1
1100 539 m 2,7,8
 1043 242 1043 242 902 100.5 c 128,-1,9
 761 -41 761 -41 500 -41 c 0,10,11
 301 -41 301 -41 185.5 40.5 c 128,-1,12
 70 122 70 122 70 287 c 0,13,14
 70 378 70 378 98 522 c 2,15,-1
 258 1352 l 1,16,-1
 604 1352 l 1,17,-1
 444 498 l 1,18,19
 418 370 418 370 418 293 c 0,20,21
 418 215 418 215 457 173 c 128,-1,22
 496 131 496 131 571 131 c 0,23,24
 623 131 623 131 664.5 152 c 128,-1,25
 706 173 706 173 733 206 c 128,-1,26
 760 239 760 239 781.5 292.5 c 128,-1,27
 803 346 803 346 816 396 c 128,-1,28
 829 446 829 446 842 518 c 2,29,-1
 993 1352 l 1,30,-1
 1255 1352 l 1,31,-1
 1100 539 l 2,7,8
EndSplineSet
Validated: 1
Position2: "'cpsp' Capital Spacing lookup 3 subtable" dx=10 dy=0 dh=20 dv=0
EndChar

StartChar: Uhungarumlaut
Encoding: 368 368 130
Width: 1245
Flags: MW
HStem: -41 172<521 662 521 678> 1311 41G<258 604 604 604 993 1255 1255 1255>
VStem: 70 348<241 319>
LayerCount: 2
Fore
SplineSet
868 1745 m 1,0,1
 936 1707 936 1707 936 1638 c 0,2,3
 936 1571 936 1571 889.5 1535 c 128,-1,4
 843 1499 843 1499 735 1475 c 2,5,-1
 567 1438 l 1,6,-1
 516 1507 l 1,7,-1
 868 1745 l 1,0,1
1280 1745 m 1,8,9
 1348 1707 1348 1707 1348 1640 c 0,10,11
 1348 1572 1348 1572 1302 1535.5 c 128,-1,12
 1256 1499 1256 1499 1149 1475 c 2,13,-1
 979 1438 l 1,14,-1
 928 1507 l 1,15,-1
 1280 1745 l 1,8,9
1100 539 m 2,16,17
 1043 242 1043 242 902 100.5 c 128,-1,18
 761 -41 761 -41 500 -41 c 0,19,20
 301 -41 301 -41 185.5 40.5 c 128,-1,21
 70 122 70 122 70 287 c 0,22,23
 70 378 70 378 98 522 c 2,24,-1
 258 1352 l 1,25,-1
 604 1352 l 1,26,-1
 444 498 l 1,27,28
 418 370 418 370 418 293 c 0,29,30
 418 215 418 215 457 173 c 128,-1,31
 496 131 496 131 571 131 c 0,32,33
 623 131 623 131 664.5 152 c 128,-1,34
 706 173 706 173 733 206 c 128,-1,35
 760 239 760 239 781.5 292.5 c 128,-1,36
 803 346 803 346 816 396 c 128,-1,37
 829 446 829 446 842 518 c 2,38,-1
 993 1352 l 1,39,-1
 1255 1352 l 1,40,-1
 1100 539 l 2,16,17
EndSplineSet
Validated: 1
Position2: "'cpsp' Capital Spacing lookup 3 subtable" dx=10 dy=0 dh=20 dv=0
EndChar

StartChar: Umacron
Encoding: 362 362 131
Width: 1245
Flags: MW
HStem: -41 172<521 662 521 678> 1311 41G<258 604 604 604 993 1255 1255 1255> 1509 178<664 993 537 1133>
VStem: 70 348<241 319>
LayerCount: 2
Fore
SplineSet
1133 1688 m 1,0,1
 1141 1660 1141 1660 1141 1634 c 0,2,3
 1141 1578 1141 1578 1102.5 1543.5 c 128,-1,4
 1064 1509 1064 1509 993 1509 c 2,5,-1
 537 1509 l 1,6,7
 532 1531 532 1531 532 1563 c 0,8,9
 533 1620 533 1620 570 1654 c 128,-1,10
 607 1688 607 1688 664 1688 c 2,11,-1
 1133 1688 l 1,0,1
1100 539 m 2,12,13
 1043 242 1043 242 902 100.5 c 128,-1,14
 761 -41 761 -41 500 -41 c 0,15,16
 301 -41 301 -41 185.5 40.5 c 128,-1,17
 70 122 70 122 70 287 c 0,18,19
 70 378 70 378 98 522 c 2,20,-1
 258 1352 l 1,21,-1
 604 1352 l 1,22,-1
 444 498 l 1,23,24
 418 370 418 370 418 293 c 0,25,26
 418 215 418 215 457 173 c 128,-1,27
 496 131 496 131 571 131 c 0,28,29
 623 131 623 131 664.5 152 c 128,-1,30
 706 173 706 173 733 206 c 128,-1,31
 760 239 760 239 781.5 292.5 c 128,-1,32
 803 346 803 346 816 396 c 128,-1,33
 829 446 829 446 842 518 c 2,34,-1
 993 1352 l 1,35,-1
 1255 1352 l 1,36,-1
 1100 539 l 2,12,13
EndSplineSet
Validated: 1
Position2: "'cpsp' Capital Spacing lookup 3 subtable" dx=10 dy=0 dh=20 dv=0
EndChar

StartChar: Uogonek
Encoding: 370 370 132
Width: 1245
Flags: MW
HStem: -528 150<671 725> -41 172<373 662> 1311 41G<258 604 604 604 993 1255 1255 1255>
VStem: 70 348<241 319> 412 188<-305 -247>
LayerCount: 2
Fore
SplineSet
1255 1352 m 1,0,-1
 1100 539 l 2,1,2
 1062 340 1062 340 988 211.5 c 128,-1,3
 914 83 914 83 793 20 c 1,4,5
 708 -33 708 -33 654 -110 c 128,-1,6
 600 -187 600 -187 600 -266 c 0,7,8
 600 -325 600 -325 626 -352 c 128,-1,9
 652 -379 652 -379 709 -379 c 0,10,11
 785 -379 785 -379 825 -328 c 1,12,13
 860 -363 860 -363 860 -406 c 0,14,15
 860 -459 860 -459 807 -493.5 c 128,-1,16
 754 -528 754 -528 664 -528 c 0,17,18
 547 -528 547 -528 479.5 -470 c 128,-1,19
 412 -412 412 -412 412 -303 c 0,20,21
 412 -148 412 -148 551 -39 c 1,22,-1
 500 -41 l 1,23,24
 301 -41 301 -41 185.5 40.5 c 128,-1,25
 70 122 70 122 70 287 c 0,26,27
 70 378 70 378 98 522 c 2,28,-1
 258 1352 l 1,29,-1
 604 1352 l 1,30,-1
 444 498 l 1,31,32
 418 370 418 370 418 293 c 0,33,34
 418 215 418 215 457 173 c 128,-1,35
 496 131 496 131 571 131 c 0,36,37
 623 131 623 131 664.5 152 c 128,-1,38
 706 173 706 173 733 206 c 128,-1,39
 760 239 760 239 781.5 292.5 c 128,-1,40
 803 346 803 346 816 396 c 128,-1,41
 829 446 829 446 842 518 c 2,42,-1
 993 1352 l 1,43,-1
 1255 1352 l 1,0,-1
EndSplineSet
Validated: 1
Position2: "'cpsp' Capital Spacing lookup 3 subtable" dx=10 dy=0 dh=20 dv=0
EndChar

StartChar: Uring
Encoding: 366 366 133
Width: 1245
Flags: MW
HStem: -41 172<521 662 521 678> 1311 41G<258 604 604 604 993 1255 1255 1255> 1413 70<811 865 811 884> 1675 76<840 895>
VStem: 70 348<241 319> 637 129<1531 1588 1531 1616> 942 131<1570 1626>
LayerCount: 2
Fore
SplineSet
1073 1610 m 0,0,1
 1073 1522 1073 1522 997 1467.5 c 128,-1,2
 921 1413 921 1413 821 1413 c 0,3,4
 735 1413 735 1413 686 1450 c 128,-1,5
 637 1487 637 1487 637 1554 c 0,6,7
 637 1642 637 1642 713.5 1696.5 c 128,-1,8
 790 1751 790 1751 891 1751 c 0,9,10
 975 1751 975 1751 1024 1714.5 c 128,-1,11
 1073 1678 1073 1678 1073 1610 c 0,0,1
942 1604 m 0,12,13
 942 1675 942 1675 870 1675 c 0,14,15
 824 1675 824 1675 795 1640.5 c 128,-1,16
 766 1606 766 1606 766 1552 c 0,17,18
 766 1483 766 1483 836 1483 c 0,19,20
 880 1483 880 1483 911 1518 c 128,-1,21
 942 1553 942 1553 942 1604 c 0,12,13
1100 539 m 2,22,23
 1043 242 1043 242 902 100.5 c 128,-1,24
 761 -41 761 -41 500 -41 c 0,25,26
 301 -41 301 -41 185.5 40.5 c 128,-1,27
 70 122 70 122 70 287 c 0,28,29
 70 378 70 378 98 522 c 2,30,-1
 258 1352 l 1,31,-1
 604 1352 l 1,32,-1
 444 498 l 1,33,34
 418 370 418 370 418 293 c 0,35,36
 418 215 418 215 457 173 c 128,-1,37
 496 131 496 131 571 131 c 0,38,39
 623 131 623 131 664.5 152 c 128,-1,40
 706 173 706 173 733 206 c 128,-1,41
 760 239 760 239 781.5 292.5 c 128,-1,42
 803 346 803 346 816 396 c 128,-1,43
 829 446 829 446 842 518 c 2,44,-1
 993 1352 l 1,45,-1
 1255 1352 l 1,46,-1
 1100 539 l 2,22,23
EndSplineSet
Validated: 1
Position2: "'cpsp' Capital Spacing lookup 3 subtable" dx=10 dy=0 dh=20 dv=0
EndChar

StartChar: Utilde
Encoding: 360 360 134
Width: 1245
Flags: MW
HStem: -41 172<521 662 521 678> 1311 41G<258 604 604 604 993 1255 1255 1255> 1483 197<1011 1081 1011 1082> 1518 197<622 690>
VStem: 70 348<241 319>
LayerCount: 2
Fore
SplineSet
1169 1714 m 1,0,1
 1206 1669 1206 1669 1206 1620 c 0,2,3
 1206 1554 1206 1554 1158.5 1518.5 c 128,-1,4
 1111 1483 1111 1483 1028 1483 c 0,5,6
 982 1483 982 1483 835.5 1500.5 c 128,-1,7
 689 1518 689 1518 649 1518 c 0,8,9
 571 1518 571 1518 524 1485 c 1,10,11
 485 1537 485 1537 485 1589 c 0,12,13
 485 1649 485 1649 533 1681.5 c 128,-1,14
 581 1714 581 1714 670 1714 c 0,15,16
 722 1714 722 1714 867 1696.5 c 128,-1,17
 1012 1679 1012 1679 1057 1679 c 0,18,19
 1141 1679 1141 1679 1169 1714 c 1,0,1
1100 539 m 2,20,21
 1043 242 1043 242 902 100.5 c 128,-1,22
 761 -41 761 -41 500 -41 c 0,23,24
 301 -41 301 -41 185.5 40.5 c 128,-1,25
 70 122 70 122 70 287 c 0,26,27
 70 378 70 378 98 522 c 2,28,-1
 258 1352 l 1,29,-1
 604 1352 l 1,30,-1
 444 498 l 1,31,32
 418 370 418 370 418 293 c 0,33,34
 418 215 418 215 457 173 c 128,-1,35
 496 131 496 131 571 131 c 0,36,37
 623 131 623 131 664.5 152 c 128,-1,38
 706 173 706 173 733 206 c 128,-1,39
 760 239 760 239 781.5 292.5 c 128,-1,40
 803 346 803 346 816 396 c 128,-1,41
 829 446 829 446 842 518 c 2,42,-1
 993 1352 l 1,43,-1
 1255 1352 l 1,44,-1
 1100 539 l 2,20,21
EndSplineSet
Validated: 1
Position2: "'cpsp' Capital Spacing lookup 3 subtable" dx=10 dy=0 dh=20 dv=0
EndChar

StartChar: V
Encoding: 86 86 135
Width: 1054
Flags: MW
HStem: 0 209<496 496 496 598> 1311 41G<983 1227 1227 1227> 1352 41G
VStem: 41 1186
LayerCount: 2
Fore
SplineSet
135 1042 m 1,0,1
 122 1218 122 1218 41 1280 c 1,2,3
 64 1335 64 1335 114.5 1364 c 128,-1,4
 165 1393 165 1393 236 1393 c 0,5,6
 303 1393 303 1393 348.5 1368.5 c 128,-1,7
 394 1344 394 1344 418.5 1296.5 c 128,-1,8
 443 1249 443 1249 453 1193.5 c 128,-1,9
 463 1138 463 1138 465 1061 c 2,10,-1
 496 209 l 1,11,-1
 983 1352 l 1,12,-1
 1227 1352 l 1,13,-1
 598 0 l 1,14,-1
 199 0 l 1,15,-1
 135 1042 l 1,0,1
EndSplineSet
Validated: 1
Position2: "'cpsp' Capital Spacing lookup 3 subtable" dx=10 dy=0 dh=20 dv=0
EndChar

StartChar: W
Encoding: 87 87 136
Width: 1751
Flags: MW
HStem: 0 209<496 496 496 598> 1311 41G<948 1151 1151 1151 1681 1925 1925 1925> 1352 41G
VStem: 41 1884
LayerCount: 2
Fore
SplineSet
135 1042 m 1,0,1
 122 1218 122 1218 41 1280 c 1,2,3
 64 1335 64 1335 114.5 1364 c 128,-1,4
 165 1393 165 1393 236 1393 c 0,5,6
 303 1393 303 1393 348.5 1368.5 c 128,-1,7
 394 1344 394 1344 418.5 1296.5 c 128,-1,8
 443 1249 443 1249 453 1193.5 c 128,-1,9
 463 1138 463 1138 465 1061 c 2,10,-1
 496 209 l 1,11,-1
 948 1352 l 1,12,-1
 1151 1352 l 1,13,-1
 1219 209 l 1,14,-1
 1681 1352 l 1,15,-1
 1925 1352 l 1,16,-1
 1321 0 l 1,17,-1
 942 0 l 1,18,-1
 905 748 l 1,19,-1
 598 0 l 1,20,-1
 199 0 l 1,21,-1
 135 1042 l 1,0,1
EndSplineSet
Validated: 1
Position2: "'cpsp' Capital Spacing lookup 3 subtable" dx=10 dy=0 dh=20 dv=0
EndChar

StartChar: Wacute
Encoding: 7810 7810 137
Width: 1751
Flags: MW
HStem: 0 209<496 496 496 598> 1311 41G<948 1151 1151 1151 1681 1925 1925 1925> 1352 41G
VStem: 41 1884
LayerCount: 2
Fore
SplineSet
920 1552 m 1,0,-1
 1409 1747 l 1,1,2
 1460 1713 1460 1713 1460 1647 c 0,3,4
 1460 1476 1460 1476 1180 1468 c 1,5,-1
 940 1458 l 1,6,-1
 920 1552 l 1,0,-1
135 1042 m 1,7,8
 122 1218 122 1218 41 1280 c 1,9,10
 64 1335 64 1335 114.5 1364 c 128,-1,11
 165 1393 165 1393 236 1393 c 0,12,13
 303 1393 303 1393 348.5 1368.5 c 128,-1,14
 394 1344 394 1344 418.5 1296.5 c 128,-1,15
 443 1249 443 1249 453 1193.5 c 128,-1,16
 463 1138 463 1138 465 1061 c 2,17,-1
 496 209 l 1,18,-1
 948 1352 l 1,19,-1
 1151 1352 l 1,20,-1
 1219 209 l 1,21,-1
 1681 1352 l 1,22,-1
 1925 1352 l 1,23,-1
 1321 0 l 1,24,-1
 942 0 l 1,25,-1
 905 748 l 1,26,-1
 598 0 l 1,27,-1
 199 0 l 1,28,-1
 135 1042 l 1,7,8
EndSplineSet
Validated: 1
Position2: "'cpsp' Capital Spacing lookup 3 subtable" dx=10 dy=0 dh=20 dv=0
EndChar

StartChar: Wcircumflex
Encoding: 372 372 138
Width: 1751
Flags: MW
HStem: 0 209<496 496 496 598> 1311 41G<948 1151 1151 1151 1681 1925 1925 1925> 1352 41G
VStem: 41 1884
LayerCount: 2
Fore
SplineSet
1315 1395 m 1,0,-1
 1087 1522 l 1,1,-1
 803 1395 l 1,2,-1
 743 1493 l 1,3,-1
 1081 1731 l 1,4,-1
 1135 1731 l 1,5,-1
 1407 1491 l 1,6,-1
 1315 1395 l 1,0,-1
135 1042 m 1,7,8
 122 1218 122 1218 41 1280 c 1,9,10
 64 1335 64 1335 114.5 1364 c 128,-1,11
 165 1393 165 1393 236 1393 c 0,12,13
 303 1393 303 1393 348.5 1368.5 c 128,-1,14
 394 1344 394 1344 418.5 1296.5 c 128,-1,15
 443 1249 443 1249 453 1193.5 c 128,-1,16
 463 1138 463 1138 465 1061 c 2,17,-1
 496 209 l 1,18,-1
 948 1352 l 1,19,-1
 1151 1352 l 1,20,-1
 1219 209 l 1,21,-1
 1681 1352 l 1,22,-1
 1925 1352 l 1,23,-1
 1321 0 l 1,24,-1
 942 0 l 1,25,-1
 905 748 l 1,26,-1
 598 0 l 1,27,-1
 199 0 l 1,28,-1
 135 1042 l 1,7,8
EndSplineSet
Validated: 1
Position2: "'cpsp' Capital Spacing lookup 3 subtable" dx=10 dy=0 dh=20 dv=0
EndChar

StartChar: Wdieresis
Encoding: 7812 7812 139
Width: 1751
Flags: MW
HStem: 0 209<496 496 496 598> 1311 41G<948 1151 1151 1151 1681 1925 1925 1925> 1352 41G 1452 285<828 925 1283 1379>
VStem: 694 362<1547 1639> 1149 362<1547 1639>
LayerCount: 2
Fore
SplineSet
881 1737 m 0,0,1
 960 1737 960 1737 1008.5 1699.5 c 128,-1,2
 1057 1662 1057 1662 1057 1595 c 0,3,4
 1057 1526 1057 1526 1005.5 1489 c 128,-1,5
 954 1452 954 1452 872 1452 c 0,6,7
 793 1452 793 1452 743.5 1488 c 128,-1,8
 694 1524 694 1524 694 1591 c 0,9,10
 694 1660 694 1660 746.5 1698.5 c 128,-1,11
 799 1737 799 1737 881 1737 c 0,0,1
1335 1737 m 0,12,13
 1414 1737 1414 1737 1462.5 1699.5 c 128,-1,14
 1511 1662 1511 1662 1511 1595 c 0,15,16
 1511 1526 1511 1526 1460 1489 c 128,-1,17
 1409 1452 1409 1452 1327 1452 c 0,18,19
 1248 1452 1248 1452 1198.5 1488 c 128,-1,20
 1149 1524 1149 1524 1149 1591 c 0,21,22
 1149 1661 1149 1661 1201.5 1699 c 128,-1,23
 1254 1737 1254 1737 1335 1737 c 0,12,13
135 1042 m 1,24,25
 122 1218 122 1218 41 1280 c 1,26,27
 64 1335 64 1335 114.5 1364 c 128,-1,28
 165 1393 165 1393 236 1393 c 0,29,30
 303 1393 303 1393 348.5 1368.5 c 128,-1,31
 394 1344 394 1344 418.5 1296.5 c 128,-1,32
 443 1249 443 1249 453 1193.5 c 128,-1,33
 463 1138 463 1138 465 1061 c 2,34,-1
 496 209 l 1,35,-1
 948 1352 l 1,36,-1
 1151 1352 l 1,37,-1
 1219 209 l 1,38,-1
 1681 1352 l 1,39,-1
 1925 1352 l 1,40,-1
 1321 0 l 1,41,-1
 942 0 l 1,42,-1
 905 748 l 1,43,-1
 598 0 l 1,44,-1
 199 0 l 1,45,-1
 135 1042 l 1,24,25
EndSplineSet
Validated: 1
Position2: "'cpsp' Capital Spacing lookup 3 subtable" dx=10 dy=0 dh=20 dv=0
EndChar

StartChar: Wgrave
Encoding: 7808 7808 140
Width: 1751
Flags: MW
HStem: 0 209<496 496 496 598> 1311 41G<948 1151 1151 1151 1681 1925 1925 1925> 1352 41G
VStem: 41 1884
LayerCount: 2
Fore
SplineSet
1272 1458 m 1,0,-1
 1032 1468 l 2,1,2
 750 1480 750 1480 750 1647 c 0,3,4
 750 1710 750 1710 801 1749 c 1,5,-1
 1292 1552 l 1,6,-1
 1272 1458 l 1,0,-1
135 1042 m 1,7,8
 122 1218 122 1218 41 1280 c 1,9,10
 64 1335 64 1335 114.5 1364 c 128,-1,11
 165 1393 165 1393 236 1393 c 0,12,13
 303 1393 303 1393 348.5 1368.5 c 128,-1,14
 394 1344 394 1344 418.5 1296.5 c 128,-1,15
 443 1249 443 1249 453 1193.5 c 128,-1,16
 463 1138 463 1138 465 1061 c 2,17,-1
 496 209 l 1,18,-1
 948 1352 l 1,19,-1
 1151 1352 l 1,20,-1
 1219 209 l 1,21,-1
 1681 1352 l 1,22,-1
 1925 1352 l 1,23,-1
 1321 0 l 1,24,-1
 942 0 l 1,25,-1
 905 748 l 1,26,-1
 598 0 l 1,27,-1
 199 0 l 1,28,-1
 135 1042 l 1,7,8
EndSplineSet
Validated: 1
Position2: "'cpsp' Capital Spacing lookup 3 subtable" dx=10 dy=0 dh=20 dv=0
EndChar

StartChar: X
Encoding: 88 88 141
Width: 1101
Flags: MW
HStem: 1311 41G<975 1229 1229 1229> 1350 41G<251 372>
VStem: -123 1352
LayerCount: 2
Fore
SplineSet
223 1083 m 2,0,1
 163 1244 163 1244 80 1280 c 1,2,3
 150 1391 150 1391 303 1391 c 0,4,5
 400 1391 400 1391 452.5 1338.5 c 128,-1,6
 505 1286 505 1286 545 1174 c 2,7,-1
 647 893 l 1,8,-1
 975 1352 l 1,9,-1
 1229 1352 l 1,10,-1
 725 680 l 1,11,-1
 870 285 l 2,12,13
 897 213 897 213 940.5 155 c 128,-1,14
 984 97 984 97 1026 88 c 1,15,16
 1002 26 1002 26 942.5 -7.5 c 128,-1,17
 883 -41 883 -41 809 -41 c 0,18,19
 755 -41 755 -41 713 -23 c 128,-1,20
 671 -5 671 -5 640.5 32 c 128,-1,21
 610 69 610 69 589 108.5 c 128,-1,22
 568 148 568 148 547 207 c 2,23,-1
 451 465 l 1,24,-1
 131 0 l 1,25,-1
 -123 0 l 1,26,-1
 373 678 l 1,27,-1
 223 1083 l 2,0,1
EndSplineSet
Validated: 1
Position2: "'cpsp' Capital Spacing lookup 3 subtable" dx=10 dy=0 dh=20 dv=0
EndChar

StartChar: Y
Encoding: 89 89 142
Width: 946
Flags: MW
HStem: 1337 41G<183 326 932 1059>
VStem: 18 1147
LayerCount: 2
Fore
SplineSet
535 764 m 1,0,1
 662 1093 662 1093 775 1235.5 c 128,-1,2
 888 1378 888 1378 1020 1378 c 0,3,4
 1141 1378 1141 1378 1165 1280 c 1,5,6
 1015 1201 1015 1201 869.5 1014.5 c 128,-1,7
 724 828 724 828 623 578 c 1,8,-1
 510 0 l 1,9,-1
 166 0 l 1,10,-1
 291 631 l 1,11,12
 236 932 236 932 171.5 1076 c 128,-1,13
 107 1220 107 1220 18 1266 c 1,14,15
 79 1378 79 1378 233 1378 c 0,16,17
 369 1378 369 1378 432 1271.5 c 128,-1,18
 495 1165 495 1165 522 901 c 1,19,-1
 535 764 l 1,0,1
EndSplineSet
Validated: 1
Position2: "'cpsp' Capital Spacing lookup 3 subtable" dx=10 dy=0 dh=20 dv=0
EndChar

StartChar: Yacute
Encoding: 221 221 143
Width: 946
Flags: MW
HStem: 1337 41G<183 326 932 1059>
VStem: 18 1147
LayerCount: 2
Fore
SplineSet
489 1552 m 1,0,-1
 979 1747 l 1,1,2
 1030 1713 1030 1713 1030 1647 c 0,3,4
 1030 1476 1030 1476 750 1468 c 1,5,-1
 510 1458 l 1,6,-1
 489 1552 l 1,0,-1
535 764 m 1,7,8
 662 1093 662 1093 775 1235.5 c 128,-1,9
 888 1378 888 1378 1020 1378 c 0,10,11
 1141 1378 1141 1378 1165 1280 c 1,12,13
 1015 1201 1015 1201 869.5 1014.5 c 128,-1,14
 724 828 724 828 623 578 c 1,15,-1
 510 0 l 1,16,-1
 166 0 l 1,17,-1
 291 631 l 1,18,19
 236 932 236 932 171.5 1076 c 128,-1,20
 107 1220 107 1220 18 1266 c 1,21,22
 79 1378 79 1378 233 1378 c 0,23,24
 369 1378 369 1378 432 1271.5 c 128,-1,25
 495 1165 495 1165 522 901 c 1,26,-1
 535 764 l 1,7,8
EndSplineSet
Validated: 1
Position2: "'cpsp' Capital Spacing lookup 3 subtable" dx=10 dy=0 dh=20 dv=0
EndChar

StartChar: Ycircumflex
Encoding: 374 374 144
Width: 946
Flags: MW
HStem: 1337 41G<183 326 932 1059>
VStem: 18 1147
LayerCount: 2
Fore
SplineSet
885 1395 m 1,0,-1
 657 1522 l 1,1,-1
 373 1395 l 1,2,-1
 313 1493 l 1,3,-1
 651 1731 l 1,4,-1
 705 1731 l 1,5,-1
 977 1491 l 1,6,-1
 885 1395 l 1,0,-1
535 764 m 1,7,8
 662 1093 662 1093 775 1235.5 c 128,-1,9
 888 1378 888 1378 1020 1378 c 0,10,11
 1141 1378 1141 1378 1165 1280 c 1,12,13
 1015 1201 1015 1201 869.5 1014.5 c 128,-1,14
 724 828 724 828 623 578 c 1,15,-1
 510 0 l 1,16,-1
 166 0 l 1,17,-1
 291 631 l 1,18,19
 236 932 236 932 171.5 1076 c 128,-1,20
 107 1220 107 1220 18 1266 c 1,21,22
 79 1378 79 1378 233 1378 c 0,23,24
 369 1378 369 1378 432 1271.5 c 128,-1,25
 495 1165 495 1165 522 901 c 1,26,-1
 535 764 l 1,7,8
EndSplineSet
Validated: 1
Position2: "'cpsp' Capital Spacing lookup 3 subtable" dx=10 dy=0 dh=20 dv=0
EndChar

StartChar: Ydieresis
Encoding: 376 376 145
Width: 946
Flags: MW
HStem: 1337 41G<183 326 932 1059> 1452 285<398 495 853 949>
VStem: 264 362<1547 1639> 719 362<1547 1639>
LayerCount: 2
Fore
SplineSet
451 1737 m 0,0,1
 530 1737 530 1737 578.5 1699.5 c 128,-1,2
 627 1662 627 1662 627 1595 c 0,3,4
 627 1526 627 1526 575.5 1489 c 128,-1,5
 524 1452 524 1452 442 1452 c 0,6,7
 363 1452 363 1452 313.5 1488 c 128,-1,8
 264 1524 264 1524 264 1591 c 0,9,10
 264 1660 264 1660 316.5 1698.5 c 128,-1,11
 369 1737 369 1737 451 1737 c 0,0,1
905 1737 m 0,12,13
 984 1737 984 1737 1032.5 1699.5 c 128,-1,14
 1081 1662 1081 1662 1081 1595 c 0,15,16
 1081 1526 1081 1526 1030 1489 c 128,-1,17
 979 1452 979 1452 897 1452 c 0,18,19
 818 1452 818 1452 768.5 1488 c 128,-1,20
 719 1524 719 1524 719 1591 c 0,21,22
 719 1661 719 1661 771.5 1699 c 128,-1,23
 824 1737 824 1737 905 1737 c 0,12,13
535 764 m 1,24,25
 662 1093 662 1093 775 1235.5 c 128,-1,26
 888 1378 888 1378 1020 1378 c 0,27,28
 1141 1378 1141 1378 1165 1280 c 1,29,30
 1015 1201 1015 1201 869.5 1014.5 c 128,-1,31
 724 828 724 828 623 578 c 1,32,-1
 510 0 l 1,33,-1
 166 0 l 1,34,-1
 291 631 l 1,35,36
 236 932 236 932 171.5 1076 c 128,-1,37
 107 1220 107 1220 18 1266 c 1,38,39
 79 1378 79 1378 233 1378 c 0,40,41
 369 1378 369 1378 432 1271.5 c 128,-1,42
 495 1165 495 1165 522 901 c 1,43,-1
 535 764 l 1,24,25
EndSplineSet
Validated: 1
Position2: "'cpsp' Capital Spacing lookup 3 subtable" dx=10 dy=0 dh=20 dv=0
EndChar

StartChar: Ygrave
Encoding: 7922 7922 146
Width: 946
Flags: MW
HStem: 1337 41G<183 326 932 1059>
VStem: 18 1147
LayerCount: 2
Fore
SplineSet
842 1458 m 1,0,-1
 602 1468 l 2,1,2
 319 1480 319 1480 319 1647 c 0,3,4
 319 1710 319 1710 371 1749 c 1,5,-1
 862 1552 l 1,6,-1
 842 1458 l 1,0,-1
535 764 m 1,7,8
 662 1093 662 1093 775 1235.5 c 128,-1,9
 888 1378 888 1378 1020 1378 c 0,10,11
 1141 1378 1141 1378 1165 1280 c 1,12,13
 1015 1201 1015 1201 869.5 1014.5 c 128,-1,14
 724 828 724 828 623 578 c 1,15,-1
 510 0 l 1,16,-1
 166 0 l 1,17,-1
 291 631 l 1,18,19
 236 932 236 932 171.5 1076 c 128,-1,20
 107 1220 107 1220 18 1266 c 1,21,22
 79 1378 79 1378 233 1378 c 0,23,24
 369 1378 369 1378 432 1271.5 c 128,-1,25
 495 1165 495 1165 522 901 c 1,26,-1
 535 764 l 1,7,8
EndSplineSet
Validated: 1
Position2: "'cpsp' Capital Spacing lookup 3 subtable" dx=10 dy=0 dh=20 dv=0
EndChar

StartChar: Ytilde
Encoding: 7928 7928 147
Width: 946
Flags: MW
HStem: 1337 41G<183 326 932 1059> 1483 197<841 911 841 912> 1518 197<452 520>
VStem: 18 1147
LayerCount: 2
Fore
SplineSet
999 1714 m 1,0,1
 1036 1669 1036 1669 1036 1620 c 0,2,3
 1036 1554 1036 1554 988.5 1518.5 c 128,-1,4
 941 1483 941 1483 858 1483 c 0,5,6
 812 1483 812 1483 665.5 1500.5 c 128,-1,7
 519 1518 519 1518 479 1518 c 0,8,9
 401 1518 401 1518 354 1485 c 1,10,11
 315 1537 315 1537 315 1589 c 0,12,13
 315 1649 315 1649 363 1681.5 c 128,-1,14
 411 1714 411 1714 500 1714 c 0,15,16
 552 1714 552 1714 697 1696.5 c 128,-1,17
 842 1679 842 1679 887 1679 c 0,18,19
 971 1679 971 1679 999 1714 c 1,0,1
535 764 m 1,20,21
 662 1093 662 1093 775 1235.5 c 128,-1,22
 888 1378 888 1378 1020 1378 c 0,23,24
 1141 1378 1141 1378 1165 1280 c 1,25,26
 1015 1201 1015 1201 869.5 1014.5 c 128,-1,27
 724 828 724 828 623 578 c 1,28,-1
 510 0 l 1,29,-1
 166 0 l 1,30,-1
 291 631 l 1,31,32
 236 932 236 932 171.5 1076 c 128,-1,33
 107 1220 107 1220 18 1266 c 1,34,35
 79 1378 79 1378 233 1378 c 0,36,37
 369 1378 369 1378 432 1271.5 c 128,-1,38
 495 1165 495 1165 522 901 c 1,39,-1
 535 764 l 1,20,21
EndSplineSet
Validated: 1
Position2: "'cpsp' Capital Spacing lookup 3 subtable" dx=10 dy=0 dh=20 dv=0
EndChar

StartChar: Z
Encoding: 90 90 148
Width: 1011
Flags: MW
HStem: -29 283<595 701 595 733> 1020 41G<731 731> 1100 283<340 426> 1311 41G
VStem: -41 1118<132 1226>
LayerCount: 2
Fore
SplineSet
731 1061 m 1,0,1
 497 1100 497 1100 383 1100 c 0,2,3
 251 1100 251 1100 166 1055 c 1,4,5
 125 1119 125 1119 125 1198 c 0,6,7
 125 1382 125 1382 379 1382 c 0,8,9
 458 1382 458 1382 617 1355.5 c 128,-1,10
 776 1329 776 1329 850 1329 c 0,11,12
 936 1329 936 1329 1010 1352 c 1,13,14
 1077 1296 1077 1296 1077 1198 c 0,15,16
 1077 1104 1077 1104 993 1032 c 1,17,-1
 293 293 l 1,18,19
 455 254 455 254 653 254 c 0,20,21
 809 254 809 254 879 307 c 1,22,23
 918 252 918 252 918 174 c 0,24,25
 918 -29 918 -29 639 -29 c 0,26,27
 546 -29 546 -29 378.5 0 c 128,-1,28
 211 29 211 29 150 29 c 0,29,30
 78 29 78 29 25 0 c 1,31,32
 -3 23 -3 23 -22 70 c 128,-1,33
 -41 117 -41 117 -41 164 c 0,34,35
 -41 257 -41 257 39 326 c 1,36,-1
 731 1061 l 1,0,1
EndSplineSet
Validated: 1
Position2: "'cpsp' Capital Spacing lookup 3 subtable" dx=10 dy=0 dh=20 dv=0
EndChar

StartChar: Zacute
Encoding: 377 377 149
Width: 1011
Flags: MW
HStem: -29 283<595 701 595 733> 1020 41G<731 731> 1100 283<340 426> 1311 41G
VStem: -41 1118<132 1226>
LayerCount: 2
Fore
SplineSet
451 1552 m 1,0,-1
 940 1747 l 1,1,2
 991 1713 991 1713 991 1647 c 0,3,4
 991 1476 991 1476 711 1468 c 1,5,-1
 471 1458 l 1,6,-1
 451 1552 l 1,0,-1
731 1061 m 1,7,8
 497 1100 497 1100 383 1100 c 0,9,10
 251 1100 251 1100 166 1055 c 1,11,12
 125 1119 125 1119 125 1198 c 0,13,14
 125 1382 125 1382 379 1382 c 0,15,16
 458 1382 458 1382 617 1355.5 c 128,-1,17
 776 1329 776 1329 850 1329 c 0,18,19
 936 1329 936 1329 1010 1352 c 1,20,21
 1077 1296 1077 1296 1077 1198 c 0,22,23
 1077 1104 1077 1104 993 1032 c 1,24,-1
 293 293 l 1,25,26
 455 254 455 254 653 254 c 0,27,28
 809 254 809 254 879 307 c 1,29,30
 918 252 918 252 918 174 c 0,31,32
 918 -29 918 -29 639 -29 c 0,33,34
 546 -29 546 -29 378.5 0 c 128,-1,35
 211 29 211 29 150 29 c 0,36,37
 78 29 78 29 25 0 c 1,38,39
 -3 23 -3 23 -22 70 c 128,-1,40
 -41 117 -41 117 -41 164 c 0,41,42
 -41 257 -41 257 39 326 c 1,43,-1
 731 1061 l 1,7,8
EndSplineSet
Validated: 1
Substitution2: "'locl' Localized Forms in Latin lookup 13 subtable" Zacute.loclPLK
Substitution2: "'aalt' Access All Alternates lookup 0 subtable" Zacute.loclPLK
Position2: "'cpsp' Capital Spacing lookup 3 subtable" dx=10 dy=0 dh=20 dv=0
EndChar

StartChar: Zcaron
Encoding: 381 381 150
Width: 1011
Flags: MW
HStem: -29 283<595 701 595 733> 1020 41G<731 731> 1100 283<340 426> 1311 41G
VStem: -41 1118<132 1226>
LayerCount: 2
Fore
SplineSet
422 1733 m 1,0,-1
 649 1626 l 1,1,-1
 934 1733 l 1,2,-1
 993 1645 l 1,3,-1
 666 1417 l 1,4,-1
 592 1417 l 1,5,-1
 330 1647 l 1,6,-1
 422 1733 l 1,0,-1
731 1061 m 1,7,8
 497 1100 497 1100 383 1100 c 0,9,10
 251 1100 251 1100 166 1055 c 1,11,12
 125 1119 125 1119 125 1198 c 0,13,14
 125 1382 125 1382 379 1382 c 0,15,16
 458 1382 458 1382 617 1355.5 c 128,-1,17
 776 1329 776 1329 850 1329 c 0,18,19
 936 1329 936 1329 1010 1352 c 1,20,21
 1077 1296 1077 1296 1077 1198 c 0,22,23
 1077 1104 1077 1104 993 1032 c 1,24,-1
 293 293 l 1,25,26
 455 254 455 254 653 254 c 0,27,28
 809 254 809 254 879 307 c 1,29,30
 918 252 918 252 918 174 c 0,31,32
 918 -29 918 -29 639 -29 c 0,33,34
 546 -29 546 -29 378.5 0 c 128,-1,35
 211 29 211 29 150 29 c 0,36,37
 78 29 78 29 25 0 c 1,38,39
 -3 23 -3 23 -22 70 c 128,-1,40
 -41 117 -41 117 -41 164 c 0,41,42
 -41 257 -41 257 39 326 c 1,43,-1
 731 1061 l 1,7,8
EndSplineSet
Validated: 1
Position2: "'cpsp' Capital Spacing lookup 3 subtable" dx=10 dy=0 dh=20 dv=0
EndChar

